{"glyphs":{"0":{"ha":833,"x_min":0,"x_max":0,"o":"m 417 -22 b 767 492 635 -22 767 175 b 417 1008 767 810 635 1008 b 67 492 199 1008 67 810 b 417 -22 67 175 199 -22 z m 218 492 b 417 872 218 732 293 872 b 533 815 463 872 503 853 l 244 281 b 218 492 226 338 218 410 z m 417 114 b 299 171 371 114 331 133 l 589 704 b 615 492 607 647 615 575 b 417 114 615 254 540 114 z "},"1":{"ha":833,"x_min":0,"x_max":0,"o":"m 78 0 l 756 0 l 756 138 l 525 138 l 525 986 l 403 986 b 251 826 403 869 360 826 l 126 826 l 126 703 l 379 703 l 379 138 l 78 138 z "},"2":{"ha":833,"x_min":0,"x_max":0,"o":"m 67 0 l 767 0 l 767 138 l 240 138 b 497 383 246 204 326 292 b 765 719 699 492 765 567 b 439 1008 765 892 649 1008 b 72 689 221 1008 93 885 l 224 679 b 439 872 243 803 313 872 b 614 714 554 872 614 808 b 438 510 614 618 561 575 b 67 0 149 357 67 219 z "},"3":{"ha":833,"x_min":0,"x_max":0,"o":"m 408 -22 b 767 276 619 -22 767 88 b 567 529 767 403 692 496 b 733 740 676 564 733 635 b 415 1008 733 907 610 1008 b 86 751 219 1008 106 906 l 236 742 b 414 872 247 824 303 872 b 582 728 522 872 582 824 b 411 586 582 625 506 586 l 335 586 l 335 456 l 411 456 b 615 281 531 456 615 399 b 410 114 615 160 519 114 b 215 269 304 114 226 157 l 67 260 b 408 -22 75 92 190 -22 z "},"4":{"ha":833,"x_min":0,"x_max":0,"o":"m 519 0 l 665 0 l 665 208 l 783 208 l 783 343 l 665 343 l 665 986 l 504 986 l 50 335 l 50 208 l 519 208 z m 193 343 l 519 792 l 519 343 z "},"5":{"ha":833,"x_min":0,"x_max":0,"o":"m 414 -22 b 756 318 615 -22 756 118 b 439 656 756 514 631 656 b 251 581 371 656 300 631 l 283 849 l 700 849 l 700 986 l 157 986 l 93 428 l 247 425 b 417 526 275 488 344 526 b 604 319 533 526 604 449 b 414 114 604 189 531 114 b 229 267 310 114 242 165 l 78 257 b 414 -22 92 94 217 -22 z "},"6":{"ha":833,"x_min":0,"x_max":0,"o":"m 419 -22 b 769 331 628 -22 769 113 b 447 664 769 532 643 664 b 217 558 344 664 264 619 b 457 872 236 772 324 872 b 618 758 554 872 599 826 l 768 771 b 457 1008 731 910 639 1008 b 64 419 167 1008 64 746 b 419 -22 64 136 192 -22 z m 419 115 b 218 328 296 115 218 206 b 431 532 218 453 307 532 b 618 328 546 532 618 453 b 419 115 618 193 540 115 z "},"7":{"ha":833,"x_min":0,"x_max":0,"o":"m 256 0 l 410 0 b 753 858 410 335 511 583 l 753 986 l 81 986 l 81 849 l 600 849 b 256 0 386 601 256 303 z "},"8":{"ha":833,"x_min":0,"x_max":0,"o":"m 417 -22 b 769 271 619 -22 769 79 b 576 531 769 399 696 489 b 725 738 667 565 725 633 b 417 1008 725 893 599 1008 b 108 738 235 1008 108 893 b 257 531 108 633 167 565 b 64 271 138 489 64 399 b 417 -22 64 79 214 -22 z m 417 589 b 260 733 322 589 260 636 b 417 872 260 819 321 872 b 574 733 513 872 574 819 b 417 589 574 636 511 589 z m 417 114 b 215 282 301 114 215 165 b 417 458 215 389 285 458 b 618 282 549 458 618 389 b 417 114 618 165 532 114 z "},"9":{"ha":833,"x_min":0,"x_max":0,"o":"m 414 1008 b 64 656 206 1008 64 874 b 386 322 64 454 190 322 b 617 428 489 322 569 367 b 376 114 597 214 510 114 b 215 228 279 114 235 160 l 65 215 b 376 -22 103 76 194 -22 b 769 567 667 -22 769 240 b 414 1008 769 850 642 1008 z m 414 871 b 615 658 538 871 615 781 b 403 454 615 533 526 454 b 215 658 288 454 215 533 b 414 871 215 793 293 871 z "},"A":{"ha":833,"x_min":0,"x_max":0,"o":"m 33 0 l 185 0 l 256 257 l 578 257 l 649 0 l 800 0 l 511 986 l 322 986 z m 417 835 l 540 392 l 293 392 z "},"Á":{"ha":833,"x_min":0,"x_max":0,"o":"m 354 1078 l 474 1078 l 599 1264 l 443 1264 z m 33 0 l 185 0 l 256 257 l 578 257 l 649 0 l 800 0 l 511 986 l 322 986 z m 417 835 l 540 392 l 293 392 z "},"Ă":{"ha":833,"x_min":0,"x_max":0,"o":"m 417 1079 b 617 1267 533 1079 611 1153 l 525 1267 b 417 1175 517 1201 476 1175 b 308 1267 357 1175 317 1201 l 217 1267 b 417 1079 222 1153 300 1079 z m 33 0 l 185 0 l 256 257 l 578 257 l 649 0 l 800 0 l 511 986 l 322 986 z m 417 835 l 540 392 l 293 392 z "},"Ǎ":{"ha":833,"x_min":0,"x_max":0,"o":"m 214 1268 l 344 1075 l 489 1075 l 619 1268 l 508 1268 l 417 1144 l 325 1268 z m 33 0 l 185 0 l 256 257 l 578 257 l 649 0 l 800 0 l 511 986 l 322 986 z m 417 835 l 540 392 l 293 392 z "},"Â":{"ha":833,"x_min":0,"x_max":0,"o":"m 213 1075 l 324 1075 l 415 1199 l 508 1075 l 618 1075 l 488 1268 l 344 1268 z m 33 0 l 185 0 l 256 257 l 578 257 l 649 0 l 800 0 l 511 986 l 322 986 z m 417 835 l 540 392 l 293 392 z "},"Ä":{"ha":833,"x_min":0,"x_max":0,"o":"m 208 1092 l 353 1092 l 353 1238 l 208 1238 z m 481 1092 l 625 1092 l 625 1238 l 481 1238 z m 33 0 l 185 0 l 256 257 l 578 257 l 649 0 l 800 0 l 511 986 l 322 986 z m 417 835 l 540 392 l 293 392 z "},"À":{"ha":833,"x_min":0,"x_max":0,"o":"m 364 1078 l 483 1078 l 393 1264 l 239 1264 z m 33 0 l 185 0 l 256 257 l 578 257 l 649 0 l 800 0 l 511 986 l 322 986 z m 417 835 l 540 392 l 293 392 z "},"Ā":{"ha":833,"x_min":0,"x_max":0,"o":"m 225 1108 l 606 1108 l 606 1221 l 225 1221 z m 33 0 l 185 0 l 256 257 l 578 257 l 649 0 l 800 0 l 511 986 l 322 986 z m 417 835 l 540 392 l 293 392 z "},"Ą":{"ha":833,"x_min":0,"x_max":0,"o":"m 33 0 l 185 0 l 256 257 l 578 257 l 649 0 l 678 0 l 644 -40 b 588 -181 607 -89 588 -132 b 719 -294 588 -251 638 -294 b 849 -257 775 -294 825 -279 l 814 -171 b 751 -190 799 -183 771 -190 b 711 -151 726 -190 711 -178 b 753 -61 711 -129 718 -107 l 800 0 l 511 986 l 322 986 z m 417 835 l 540 392 l 293 392 z "},"Å":{"ha":833,"x_min":0,"x_max":0,"o":"m 417 1047 b 550 1179 492 1047 550 1104 b 417 1311 550 1254 492 1311 b 283 1179 340 1311 283 1254 b 417 1047 283 1104 340 1047 z m 417 1121 b 360 1179 383 1121 360 1146 b 417 1236 360 1213 383 1236 b 474 1179 450 1236 474 1213 b 417 1121 474 1146 450 1121 z m 33 0 l 185 0 l 256 257 l 578 257 l 649 0 l 800 0 l 511 986 l 322 986 z m 417 835 l 540 392 l 293 392 z "},"Ã":{"ha":833,"x_min":0,"x_max":0,"o":"m 500 1090 b 639 1267 583 1090 635 1151 l 560 1267 b 504 1178 554 1200 538 1178 b 438 1210 483 1178 465 1188 b 329 1253 404 1236 375 1253 b 194 1081 251 1253 197 1197 l 274 1081 b 332 1165 276 1144 300 1165 b 401 1132 357 1165 371 1156 b 500 1090 432 1107 463 1090 z m 33 0 l 185 0 l 256 257 l 578 257 l 649 0 l 800 0 l 511 986 l 322 986 z m 417 835 l 540 392 l 293 392 z "},"Æ":{"ha":833,"x_min":0,"x_max":0,"o":"m 13 0 l 164 0 l 239 257 l 433 257 l 433 0 l 808 0 l 808 138 l 575 138 l 575 428 l 783 428 l 783 561 l 575 561 l 575 849 l 799 849 l 799 986 l 303 986 z m 410 853 l 433 853 l 433 392 l 278 392 z "},"B":{"ha":833,"x_min":0,"x_max":0,"o":"m 115 0 l 435 0 b 775 274 649 0 775 100 b 550 508 775 401 696 490 b 733 718 665 529 733 611 b 401 986 733 888 619 986 l 115 986 z m 261 568 l 261 850 l 404 850 b 582 708 526 850 582 800 b 404 568 582 619 526 568 z m 261 136 l 261 433 l 436 433 b 624 281 558 433 624 376 b 436 136 624 190 563 136 z "},"C":{"ha":833,"x_min":0,"x_max":0,"o":"m 421 -22 b 775 336 610 -22 740 111 l 624 343 b 421 114 599 193 522 114 b 201 492 278 114 201 250 b 421 872 201 735 278 872 b 617 663 514 872 589 800 l 769 671 b 421 1008 729 885 600 1008 b 50 492 183 1008 50 810 b 421 -22 50 175 183 -22 z "},"Ć":{"ha":833,"x_min":0,"x_max":0,"o":"m 357 1078 l 476 1078 l 601 1264 l 447 1264 z m 421 -22 b 775 336 610 -22 740 111 l 624 343 b 421 114 599 193 522 114 b 201 492 278 114 201 250 b 421 872 201 735 278 872 b 617 663 514 872 589 800 l 769 671 b 421 1008 729 885 600 1008 b 50 492 183 1008 50 810 b 421 -22 50 175 183 -22 z "},"Č":{"ha":833,"x_min":0,"x_max":0,"o":"m 218 1268 l 349 1075 l 492 1075 l 624 1268 l 513 1268 l 421 1144 l 328 1268 z m 421 -22 b 775 336 610 -22 740 111 l 624 343 b 421 114 599 193 522 114 b 201 492 278 114 201 250 b 421 872 201 735 278 872 b 617 663 514 872 589 800 l 769 671 b 421 1008 729 885 600 1008 b 50 492 183 1008 50 810 b 421 -22 50 175 183 -22 z "},"Ç":{"ha":833,"x_min":0,"x_max":0,"o":"m 425 -311 b 588 -175 518 -311 588 -260 b 454 -47 588 -104 546 -53 l 475 -18 b 775 336 635 6 744 133 l 624 343 b 421 114 599 193 522 114 b 201 492 278 114 201 250 b 421 872 201 735 278 872 b 617 663 514 872 589 800 l 769 671 b 421 1008 729 885 600 1008 b 50 492 183 1008 50 810 b 378 -19 50 194 167 3 l 349 -67 l 393 -112 b 494 -172 478 -112 494 -137 b 422 -225 494 -206 467 -225 b 335 -169 376 -225 351 -208 l 257 -200 b 425 -311 279 -264 335 -311 z "},"Ĉ":{"ha":833,"x_min":0,"x_max":0,"o":"m 217 1075 l 328 1075 l 419 1199 l 511 1075 l 622 1075 l 492 1268 l 347 1268 z m 421 -22 b 775 336 610 -22 740 111 l 624 343 b 421 114 599 193 522 114 b 201 492 278 114 201 250 b 421 872 201 735 278 872 b 617 663 514 872 589 800 l 769 671 b 421 1008 729 885 600 1008 b 50 492 183 1008 50 810 b 421 -22 50 175 183 -22 z "},"Ċ":{"ha":833,"x_min":0,"x_max":0,"o":"m 347 1093 l 492 1093 l 492 1239 l 347 1239 z m 421 -22 b 775 336 610 -22 740 111 l 624 343 b 421 114 599 193 522 114 b 201 492 278 114 201 250 b 421 872 201 735 278 872 b 617 663 514 872 589 800 l 769 671 b 421 1008 729 885 600 1008 b 50 492 183 1008 50 810 b 421 -22 50 175 183 -22 z "},"D":{"ha":833,"x_min":0,"x_max":0,"o":"m 115 0 l 356 0 b 783 492 618 0 783 175 b 356 986 783 808 618 986 l 115 986 z m 261 138 l 261 849 l 351 849 b 632 492 529 849 632 729 b 351 138 632 256 529 138 z "},"Ď":{"ha":833,"x_min":0,"x_max":0,"o":"m 214 1268 l 344 1075 l 489 1075 l 619 1268 l 508 1268 l 417 1144 l 325 1268 z m 115 0 l 356 0 b 783 492 618 0 783 175 b 356 986 783 808 618 986 l 115 986 z m 261 138 l 261 849 l 351 849 b 632 492 529 849 632 729 b 351 138 632 256 529 138 z "},"Đ":{"ha":833,"x_min":0,"x_max":0,"o":"m 115 0 l 356 0 b 783 492 618 0 783 175 b 356 986 783 808 618 986 l 115 986 l 115 556 l 22 556 l 22 431 l 115 431 z m 261 138 l 261 431 l 478 431 l 478 556 l 261 556 l 261 849 l 351 849 b 632 492 529 849 632 729 b 351 138 632 256 529 138 z "},"Ð":{"ha":833,"x_min":0,"x_max":0,"o":"m 115 0 l 356 0 b 783 492 618 0 783 175 b 356 986 783 808 618 986 l 115 986 l 115 556 l 22 556 l 22 431 l 115 431 z m 261 138 l 261 431 l 478 431 l 478 556 l 261 556 l 261 849 l 351 849 b 632 492 529 849 632 729 b 351 138 632 256 529 138 z "},"E":{"ha":833,"x_min":0,"x_max":0,"o":"m 122 0 l 739 0 l 739 138 l 268 138 l 268 428 l 711 428 l 711 561 l 268 561 l 268 849 l 728 849 l 728 986 l 122 986 z "},"É":{"ha":833,"x_min":0,"x_max":0,"o":"m 376 1079 l 496 1079 l 621 1265 l 465 1265 z m 122 0 l 739 0 l 739 138 l 268 138 l 268 428 l 711 428 l 711 561 l 268 561 l 268 849 l 728 849 l 728 986 l 122 986 z "},"Ě":{"ha":833,"x_min":0,"x_max":0,"o":"m 236 1269 l 367 1076 l 511 1076 l 642 1269 l 531 1269 l 439 1146 l 347 1269 z m 122 0 l 739 0 l 739 138 l 268 138 l 268 428 l 711 428 l 711 561 l 268 561 l 268 849 l 728 849 l 728 986 l 122 986 z "},"Ê":{"ha":833,"x_min":0,"x_max":0,"o":"m 235 1076 l 346 1076 l 438 1200 l 531 1076 l 640 1076 l 510 1269 l 367 1269 z m 122 0 l 739 0 l 739 138 l 268 138 l 268 428 l 711 428 l 711 561 l 268 561 l 268 849 l 728 849 l 728 986 l 122 986 z "},"Ë":{"ha":833,"x_min":0,"x_max":0,"o":"m 231 1093 l 375 1093 l 375 1239 l 231 1239 z m 503 1093 l 647 1093 l 647 1239 l 503 1239 z m 122 0 l 739 0 l 739 138 l 268 138 l 268 428 l 711 428 l 711 561 l 268 561 l 268 849 l 728 849 l 728 986 l 122 986 z "},"Ė":{"ha":833,"x_min":0,"x_max":0,"o":"m 365 1094 l 510 1094 l 510 1240 l 365 1240 z m 122 0 l 739 0 l 739 138 l 268 138 l 268 428 l 711 428 l 711 561 l 268 561 l 268 849 l 728 849 l 728 986 l 122 986 z "},"È":{"ha":833,"x_min":0,"x_max":0,"o":"m 386 1079 l 506 1079 l 415 1265 l 261 1265 z m 122 0 l 739 0 l 739 138 l 268 138 l 268 428 l 711 428 l 711 561 l 268 561 l 268 849 l 728 849 l 728 986 l 122 986 z "},"Ē":{"ha":833,"x_min":0,"x_max":0,"o":"m 247 1110 l 628 1110 l 628 1222 l 247 1222 z m 122 0 l 739 0 l 739 138 l 268 138 l 268 428 l 711 428 l 711 561 l 268 561 l 268 849 l 728 849 l 728 986 l 122 986 z "},"Ę":{"ha":833,"x_min":0,"x_max":0,"o":"m 122 0 l 615 0 l 583 -40 b 526 -181 544 -89 526 -132 b 657 -294 526 -251 576 -294 b 786 -257 714 -294 763 -279 l 753 -171 b 689 -190 736 -183 710 -190 b 649 -151 664 -190 649 -178 b 692 -61 649 -129 657 -107 l 739 0 l 739 138 l 268 138 l 268 428 l 711 428 l 711 561 l 268 561 l 268 849 l 728 849 l 728 986 l 122 986 z "},"Ẽ":{"ha":833,"x_min":0,"x_max":0,"o":"m 522 1092 b 661 1268 606 1092 657 1153 l 582 1268 b 526 1179 576 1201 560 1179 b 460 1211 506 1179 488 1189 b 351 1254 426 1238 397 1254 b 217 1082 274 1254 219 1199 l 296 1082 b 354 1167 299 1146 322 1167 b 424 1133 379 1167 393 1157 b 522 1092 454 1108 485 1092 z m 122 0 l 739 0 l 739 138 l 268 138 l 268 428 l 711 428 l 711 561 l 268 561 l 268 849 l 728 849 l 728 986 l 122 986 z "},"Ə":{"ha":833,"x_min":0,"x_max":0,"o":"m 426 -22 b 794 493 643 -22 794 175 b 413 1008 794 822 654 1008 b 67 693 244 1008 121 889 l 222 678 b 418 872 250 794 314 872 b 643 549 560 872 643 738 l 50 549 l 50 475 b 426 -22 50 175 188 -22 z m 426 114 b 206 415 290 114 206 225 l 642 415 b 426 114 642 228 558 114 z "},"F":{"ha":833,"x_min":0,"x_max":0,"o":"m 136 0 l 282 0 l 282 415 l 728 415 l 728 549 l 282 549 l 282 851 l 753 851 l 753 986 l 136 986 z "},"G":{"ha":833,"x_min":0,"x_max":0,"o":"m 415 -22 b 650 126 532 -22 607 38 l 654 0 l 772 0 l 772 503 l 421 503 l 421 376 l 638 376 b 428 115 632 219 554 115 b 201 492 283 115 201 250 b 421 871 201 735 281 871 b 619 672 526 871 592 793 l 771 682 b 419 1008 728 879 606 1008 b 50 492 188 1008 50 810 b 415 -22 50 157 203 -22 z "},"Ğ":{"ha":833,"x_min":0,"x_max":0,"o":"m 417 1079 b 617 1267 533 1079 611 1153 l 525 1267 b 417 1175 518 1201 478 1175 b 308 1267 357 1175 317 1201 l 217 1267 b 417 1079 222 1153 300 1079 z m 415 -22 b 650 126 532 -22 607 38 l 654 0 l 772 0 l 772 503 l 421 503 l 421 376 l 638 376 b 428 115 632 219 554 115 b 201 492 283 115 201 250 b 421 871 201 735 281 871 b 619 672 526 871 592 793 l 771 682 b 419 1008 728 879 606 1008 b 50 492 188 1008 50 810 b 415 -22 50 157 203 -22 z "},"Ǧ":{"ha":833,"x_min":0,"x_max":0,"o":"m 214 1268 l 346 1075 l 489 1075 l 619 1268 l 510 1268 l 417 1144 l 325 1268 z m 415 -22 b 650 126 532 -22 607 38 l 654 0 l 772 0 l 772 503 l 421 503 l 421 376 l 638 376 b 428 115 632 219 554 115 b 201 492 283 115 201 250 b 421 871 201 735 281 871 b 619 672 526 871 592 793 l 771 682 b 419 1008 728 879 606 1008 b 50 492 188 1008 50 810 b 415 -22 50 157 203 -22 z "},"Ĝ":{"ha":833,"x_min":0,"x_max":0,"o":"m 214 1075 l 324 1075 l 417 1199 l 508 1075 l 619 1075 l 488 1268 l 344 1268 z m 415 -22 b 650 126 532 -22 607 38 l 654 0 l 772 0 l 772 503 l 421 503 l 421 376 l 638 376 b 428 115 632 219 554 115 b 201 492 283 115 201 250 b 421 871 201 735 281 871 b 619 672 526 871 592 793 l 771 682 b 419 1008 728 879 606 1008 b 50 492 188 1008 50 810 b 415 -22 50 157 203 -22 z "},"Ģ":{"ha":833,"x_min":0,"x_max":0,"o":"m 415 -22 b 650 126 532 -22 607 38 l 654 0 l 772 0 l 772 503 l 421 503 l 421 376 l 638 376 b 428 115 632 219 554 115 b 201 492 283 115 201 250 b 421 871 201 735 281 871 b 619 672 526 871 592 793 l 771 682 b 419 1008 728 879 606 1008 b 50 492 188 1008 50 810 b 415 -22 50 157 203 -22 z m 314 -339 l 400 -339 l 493 -200 l 493 -72 l 342 -72 l 342 -208 l 392 -208 z "},"Ġ":{"ha":833,"x_min":0,"x_max":0,"o":"m 343 1093 l 489 1093 l 489 1239 l 343 1239 z m 415 -22 b 650 126 532 -22 607 38 l 654 0 l 772 0 l 772 503 l 421 503 l 421 376 l 638 376 b 428 115 632 219 554 115 b 201 492 283 115 201 250 b 421 871 201 735 281 871 b 619 672 526 871 592 793 l 771 682 b 419 1008 728 879 606 1008 b 50 492 188 1008 50 810 b 415 -22 50 157 203 -22 z "},"Ḡ":{"ha":833,"x_min":0,"x_max":0,"o":"m 225 1108 l 607 1108 l 607 1221 l 225 1221 z m 415 -22 b 650 126 532 -22 607 38 l 654 0 l 772 0 l 772 503 l 421 503 l 421 376 l 638 376 b 428 115 632 219 554 115 b 201 492 283 115 201 250 b 421 871 201 735 281 871 b 619 672 526 871 592 793 l 771 682 b 419 1008 728 879 606 1008 b 50 492 188 1008 50 810 b 415 -22 50 157 203 -22 z "},"Ǥ":{"ha":833,"x_min":0,"x_max":0,"o":"m 415 -22 b 747 217 583 -22 697 56 l 815 217 l 815 314 l 769 314 b 776 433 774 351 776 390 l 776 503 l 421 503 l 421 389 l 635 389 b 631 314 635 361 633 338 l 421 314 l 421 217 l 600 217 b 415 115 564 147 501 115 b 178 492 261 115 178 261 b 414 872 178 724 264 872 b 618 672 532 872 590 792 l 769 682 b 413 1008 728 875 615 1008 b 26 492 175 1008 26 806 b 415 -22 26 174 181 -22 z "},"H":{"ha":833,"x_min":0,"x_max":0,"o":"m 78 0 l 224 0 l 224 428 l 610 428 l 610 0 l 756 0 l 756 986 l 610 986 l 610 564 l 224 564 l 224 986 l 78 986 z "},"Ħ":{"ha":833,"x_min":0,"x_max":0,"o":"m 78 0 l 224 0 l 224 428 l 610 428 l 610 0 l 756 0 l 756 729 l 808 729 l 808 856 l 756 856 l 756 986 l 610 986 l 610 856 l 224 856 l 224 986 l 78 986 l 78 856 l 25 856 l 25 729 l 78 729 z m 224 564 l 224 729 l 610 729 l 610 564 z "},"Ĥ":{"ha":833,"x_min":0,"x_max":0,"o":"m 213 1075 l 324 1075 l 415 1199 l 508 1075 l 618 1075 l 488 1268 l 344 1268 z m 78 0 l 224 0 l 224 428 l 610 428 l 610 0 l 756 0 l 756 986 l 610 986 l 610 564 l 224 564 l 224 986 l 78 986 z "},"I":{"ha":833,"x_min":0,"x_max":0,"o":"m 108 0 l 725 0 l 725 138 l 489 138 l 489 849 l 725 849 l 725 986 l 108 986 l 108 849 l 344 849 l 344 138 l 108 138 z "},"Í":{"ha":833,"x_min":0,"x_max":0,"o":"m 354 1078 l 474 1078 l 599 1264 l 443 1264 z m 108 0 l 725 0 l 725 138 l 489 138 l 489 849 l 725 849 l 725 986 l 108 986 l 108 849 l 344 849 l 344 138 l 108 138 z "},"Î":{"ha":833,"x_min":0,"x_max":0,"o":"m 213 1075 l 324 1075 l 415 1199 l 508 1075 l 618 1075 l 488 1268 l 344 1268 z m 108 0 l 725 0 l 725 138 l 489 138 l 489 849 l 725 849 l 725 986 l 108 986 l 108 849 l 344 849 l 344 138 l 108 138 z "},"Ï":{"ha":833,"x_min":0,"x_max":0,"o":"m 208 1092 l 353 1092 l 353 1238 l 208 1238 z m 481 1092 l 625 1092 l 625 1238 l 481 1238 z m 108 0 l 725 0 l 725 138 l 489 138 l 489 849 l 725 849 l 725 986 l 108 986 l 108 849 l 344 849 l 344 138 l 108 138 z "},"İ":{"ha":833,"x_min":0,"x_max":0,"o":"m 343 1093 l 488 1093 l 488 1239 l 343 1239 z m 108 0 l 725 0 l 725 138 l 489 138 l 489 849 l 725 849 l 725 986 l 108 986 l 108 849 l 344 849 l 344 138 l 108 138 z "},"Ì":{"ha":833,"x_min":0,"x_max":0,"o":"m 364 1078 l 483 1078 l 393 1264 l 239 1264 z m 108 0 l 725 0 l 725 138 l 489 138 l 489 849 l 725 849 l 725 986 l 108 986 l 108 849 l 344 849 l 344 138 l 108 138 z "},"Ī":{"ha":833,"x_min":0,"x_max":0,"o":"m 225 1108 l 606 1108 l 606 1221 l 225 1221 z m 108 0 l 725 0 l 725 138 l 489 138 l 489 849 l 725 849 l 725 986 l 108 986 l 108 849 l 344 849 l 344 138 l 108 138 z "},"Į":{"ha":833,"x_min":0,"x_max":0,"o":"m 108 0 l 601 0 l 569 -40 b 513 -181 531 -89 513 -132 b 643 -294 513 -251 563 -294 b 772 -257 700 -294 749 -279 l 739 -171 b 675 -190 722 -183 696 -190 b 635 -151 650 -190 635 -178 b 678 -61 635 -129 643 -107 l 725 0 l 725 138 l 489 138 l 489 849 l 725 849 l 725 986 l 108 986 l 108 849 l 344 849 l 344 138 l 108 138 z "},"Ĩ":{"ha":833,"x_min":0,"x_max":0,"o":"m 500 1090 b 639 1267 583 1090 635 1151 l 560 1267 b 504 1178 554 1200 538 1178 b 438 1210 483 1178 465 1188 b 329 1253 404 1236 375 1253 b 194 1081 251 1253 197 1197 l 274 1081 b 332 1165 276 1144 300 1165 b 401 1132 357 1165 371 1156 b 500 1090 432 1107 463 1090 z m 108 0 l 725 0 l 725 138 l 489 138 l 489 849 l 725 849 l 725 986 l 108 986 l 108 849 l 344 849 l 344 138 l 108 138 z "},"J":{"ha":833,"x_min":0,"x_max":0,"o":"m 382 -22 b 711 335 588 -22 711 113 l 711 986 l 565 986 l 565 335 b 383 114 565 186 506 114 b 197 340 260 114 201 186 l 53 329 b 382 -22 58 113 183 -22 z "},"Ĵ":{"ha":833,"x_min":0,"x_max":0,"o":"m 436 1075 l 547 1075 l 639 1199 l 732 1075 l 842 1075 l 711 1268 l 568 1268 z m 382 -22 b 711 335 588 -22 711 113 l 711 986 l 565 986 l 565 335 b 383 114 565 186 506 114 b 197 340 260 114 201 186 l 53 329 b 382 -22 58 113 183 -22 z "},"K":{"ha":833,"x_min":0,"x_max":0,"o":"m 78 0 l 224 0 l 224 315 l 325 440 l 610 0 l 781 0 l 417 553 l 769 986 l 593 986 l 224 522 l 224 986 l 78 986 z "},"Ǩ":{"ha":833,"x_min":0,"x_max":0,"o":"m 181 1268 l 313 1075 l 456 1075 l 586 1268 l 476 1268 l 383 1144 l 292 1268 z m 78 0 l 224 0 l 224 315 l 325 440 l 610 0 l 781 0 l 417 553 l 769 986 l 593 986 l 224 522 l 224 986 l 78 986 z "},"Ķ":{"ha":833,"x_min":0,"x_max":0,"o":"m 78 0 l 224 0 l 224 315 l 325 440 l 610 0 l 781 0 l 417 553 l 769 986 l 593 986 l 224 522 l 224 986 l 78 986 z m 290 -339 l 376 -339 l 469 -200 l 469 -72 l 318 -72 l 318 -208 l 368 -208 z "},"L":{"ha":833,"x_min":0,"x_max":0,"o":"m 136 0 l 753 0 l 753 138 l 282 138 l 282 986 l 136 986 z "},"Ĺ":{"ha":833,"x_min":0,"x_max":0,"o":"m 143 1078 l 263 1078 l 388 1264 l 233 1264 z m 136 0 l 753 0 l 753 138 l 282 138 l 282 986 l 136 986 z "},"Ľ":{"ha":833,"x_min":0,"x_max":0,"o":"m 136 0 l 753 0 l 753 138 l 282 138 l 282 986 l 136 986 z m 499 618 l 599 618 l 676 986 l 542 986 z "},"Ļ":{"ha":833,"x_min":0,"x_max":0,"o":"m 136 0 l 753 0 l 753 138 l 282 138 l 282 986 l 136 986 z m 343 -339 l 429 -339 l 521 -200 l 521 -72 l 369 -72 l 369 -208 l 421 -208 z "},"Ł":{"ha":833,"x_min":0,"x_max":0,"o":"m 136 0 l 753 0 l 753 138 l 282 138 l 282 479 l 486 583 l 486 700 l 282 597 l 282 986 l 136 986 l 136 524 l 36 472 l 36 354 l 136 406 z "},"M":{"ha":833,"x_min":0,"x_max":0,"o":"m 361 119 l 472 119 l 626 761 l 626 0 l 767 0 l 767 986 l 572 986 l 417 349 l 261 986 l 67 986 l 67 0 l 207 0 l 207 761 z "},"N":{"ha":833,"x_min":0,"x_max":0,"o":"m 94 0 l 238 0 l 238 779 l 561 0 l 739 0 l 739 986 l 596 986 l 596 207 l 272 986 l 94 986 z "},"Ń":{"ha":833,"x_min":0,"x_max":0,"o":"m 354 1078 l 474 1078 l 599 1264 l 443 1264 z m 94 0 l 238 0 l 238 779 l 561 0 l 739 0 l 739 986 l 596 986 l 596 207 l 272 986 l 94 986 z "},"Ň":{"ha":833,"x_min":0,"x_max":0,"o":"m 214 1268 l 344 1075 l 489 1075 l 619 1268 l 508 1268 l 417 1144 l 325 1268 z m 94 0 l 238 0 l 238 779 l 561 0 l 739 0 l 739 986 l 596 986 l 596 207 l 272 986 l 94 986 z "},"Ņ":{"ha":833,"x_min":0,"x_max":0,"o":"m 94 0 l 238 0 l 238 779 l 561 0 l 739 0 l 739 986 l 596 986 l 596 207 l 272 986 l 94 986 z m 314 -339 l 400 -339 l 493 -200 l 493 -72 l 340 -72 l 340 -208 l 392 -208 z "},"Ñ":{"ha":833,"x_min":0,"x_max":0,"o":"m 500 1090 b 639 1267 583 1090 635 1151 l 560 1267 b 504 1178 554 1200 538 1178 b 438 1210 483 1178 465 1188 b 329 1253 404 1236 375 1253 b 194 1081 251 1253 197 1197 l 274 1081 b 332 1165 276 1144 300 1165 b 401 1132 357 1165 371 1156 b 500 1090 432 1107 463 1090 z m 94 0 l 238 0 l 238 779 l 561 0 l 739 0 l 739 986 l 596 986 l 596 207 l 272 986 l 94 986 z "},"Ŋ":{"ha":833,"x_min":0,"x_max":0,"o":"m 94 0 l 238 0 l 238 779 l 561 0 l 601 0 l 601 -8 b 524 -79 601 -56 575 -79 l 386 -79 l 386 -208 l 531 -208 b 739 -10 657 -208 739 -131 l 739 986 l 596 986 l 596 207 l 272 986 l 94 986 z "},"O":{"ha":833,"x_min":0,"x_max":0,"o":"m 417 -22 b 783 492 651 -22 783 163 b 417 1008 783 824 651 1008 b 50 492 182 1008 50 824 b 417 -22 50 163 182 -22 z m 417 114 b 201 492 278 114 201 242 b 417 872 201 742 278 872 b 632 492 556 872 632 742 b 417 114 632 242 556 114 z "},"Ó":{"ha":833,"x_min":0,"x_max":0,"o":"m 354 1078 l 474 1078 l 599 1264 l 443 1264 z m 417 -22 b 783 492 651 -22 783 163 b 417 1008 783 824 651 1008 b 50 492 182 1008 50 824 b 417 -22 50 163 182 -22 z m 417 114 b 201 492 278 114 201 242 b 417 872 201 742 278 872 b 632 492 556 872 632 742 b 417 114 632 242 556 114 z "},"Ô":{"ha":833,"x_min":0,"x_max":0,"o":"m 213 1075 l 324 1075 l 415 1199 l 508 1075 l 618 1075 l 488 1268 l 344 1268 z m 417 -22 b 783 492 651 -22 783 163 b 417 1008 783 824 651 1008 b 50 492 182 1008 50 824 b 417 -22 50 163 182 -22 z m 417 114 b 201 492 278 114 201 242 b 417 872 201 742 278 872 b 632 492 556 872 632 742 b 417 114 632 242 556 114 z "},"Ö":{"ha":833,"x_min":0,"x_max":0,"o":"m 208 1092 l 353 1092 l 353 1238 l 208 1238 z m 481 1092 l 625 1092 l 625 1238 l 481 1238 z m 417 -22 b 783 492 651 -22 783 163 b 417 1008 783 824 651 1008 b 50 492 182 1008 50 824 b 417 -22 50 163 182 -22 z m 417 114 b 201 492 278 114 201 242 b 417 872 201 742 278 872 b 632 492 556 872 632 742 b 417 114 632 242 556 114 z "},"Ò":{"ha":833,"x_min":0,"x_max":0,"o":"m 364 1078 l 483 1078 l 393 1264 l 239 1264 z m 417 -22 b 783 492 651 -22 783 163 b 417 1008 783 824 651 1008 b 50 492 182 1008 50 824 b 417 -22 50 163 182 -22 z m 417 114 b 201 492 278 114 201 242 b 417 872 201 742 278 872 b 632 492 556 872 632 742 b 417 114 632 242 556 114 z "},"Ő":{"ha":833,"x_min":0,"x_max":0,"o":"m 244 1075 l 364 1075 l 489 1261 l 335 1261 z m 456 1075 l 575 1075 l 700 1261 l 546 1261 z m 417 -22 b 783 492 651 -22 783 163 b 417 1008 783 824 651 1008 b 50 492 182 1008 50 824 b 417 -22 50 163 182 -22 z m 417 114 b 201 492 278 114 201 242 b 417 872 201 742 278 872 b 632 492 556 872 632 742 b 417 114 632 242 556 114 z "},"Ō":{"ha":833,"x_min":0,"x_max":0,"o":"m 225 1108 l 606 1108 l 606 1221 l 225 1221 z m 417 -22 b 783 492 651 -22 783 163 b 417 1008 783 824 651 1008 b 50 492 182 1008 50 824 b 417 -22 50 163 182 -22 z m 417 114 b 201 492 278 114 201 242 b 417 872 201 742 278 872 b 632 492 556 872 632 742 b 417 114 632 242 556 114 z "},"Ø":{"ha":833,"x_min":0,"x_max":0,"o":"m 50 -22 l 179 -22 l 215 39 b 417 -22 269 -1 338 -22 b 783 492 651 -22 783 163 b 697 861 783 650 754 774 l 783 1008 l 654 1008 l 618 947 b 417 1008 564 988 496 1008 b 50 492 182 1008 50 824 b 136 125 50 335 79 211 z m 201 492 b 417 872 201 742 278 872 b 543 819 468 872 510 854 l 226 279 b 201 492 210 336 201 407 z m 417 114 b 289 165 365 114 324 131 l 606 706 b 632 492 624 649 632 578 b 417 114 632 242 556 114 z "},"Õ":{"ha":833,"x_min":0,"x_max":0,"o":"m 500 1090 b 639 1267 583 1090 635 1151 l 560 1267 b 504 1178 554 1200 538 1178 b 438 1210 483 1178 465 1188 b 329 1253 404 1236 375 1253 b 194 1081 251 1253 197 1197 l 274 1081 b 332 1165 276 1144 300 1165 b 401 1132 357 1165 371 1156 b 500 1090 432 1107 463 1090 z m 417 -22 b 783 492 651 -22 783 163 b 417 1008 783 824 651 1008 b 50 492 182 1008 50 824 b 417 -22 50 163 182 -22 z m 417 114 b 201 492 278 114 201 242 b 417 872 201 742 278 872 b 632 492 556 872 632 742 b 417 114 632 242 556 114 z "},"Œ":{"ha":833,"x_min":0,"x_max":0,"o":"m 294 -22 b 451 57 358 -22 411 6 l 451 0 l 819 0 l 819 138 l 586 138 l 586 428 l 792 428 l 792 561 l 586 561 l 586 849 l 808 849 l 808 986 l 451 986 l 451 929 b 294 1008 411 979 358 1008 b 14 492 115 1008 14 829 b 294 -22 14 154 115 -22 z m 297 114 b 160 492 194 114 160 238 b 297 872 160 749 194 872 b 436 492 401 872 436 749 b 297 114 436 238 401 114 z "},"P":{"ha":833,"x_min":0,"x_max":0,"o":"m 119 0 l 265 0 l 265 374 l 425 374 b 767 679 631 374 767 490 b 425 986 767 869 631 986 l 119 986 z m 265 511 l 265 849 l 410 849 b 615 679 550 849 615 789 b 410 511 615 569 550 511 z "},"Þ":{"ha":833,"x_min":0,"x_max":0,"o":"m 119 0 l 265 0 l 265 204 l 429 204 b 781 511 653 204 781 321 b 429 811 781 697 653 811 l 265 811 l 265 986 l 119 986 z m 428 675 b 629 511 561 675 629 621 b 428 340 629 399 561 340 l 265 340 l 265 675 z "},"Q":{"ha":833,"x_min":0,"x_max":0,"o":"m 417 -22 b 460 -19 432 -22 446 -21 l 510 -165 l 632 -165 l 572 11 b 783 492 710 79 783 244 b 417 1008 783 824 651 1008 b 50 492 182 1008 50 824 b 417 -22 50 163 182 -22 z m 201 492 b 417 872 201 742 278 872 b 632 492 556 872 632 742 b 528 147 632 310 597 197 l 471 314 l 347 314 l 415 114 b 201 492 278 114 201 236 z "},"R":{"ha":833,"x_min":0,"x_max":0,"o":"m 93 0 l 239 0 l 239 385 l 411 385 b 579 253 532 385 571 351 l 601 0 l 747 0 l 722 281 b 569 458 714 386 667 440 b 736 692 661 488 736 574 b 400 986 736 874 608 986 l 93 986 z m 239 521 l 239 849 l 397 849 b 586 685 518 849 586 790 b 397 521 586 581 518 521 z "},"Ŕ":{"ha":833,"x_min":0,"x_max":0,"o":"m 335 1078 l 454 1078 l 579 1264 l 425 1264 z m 93 0 l 239 0 l 239 385 l 411 385 b 579 253 532 385 571 351 l 601 0 l 747 0 l 722 281 b 569 458 714 386 667 440 b 736 692 661 488 736 574 b 400 986 736 874 608 986 l 93 986 z m 239 521 l 239 849 l 397 849 b 586 685 518 849 586 790 b 397 521 586 581 518 521 z "},"Ř":{"ha":833,"x_min":0,"x_max":0,"o":"m 196 1268 l 326 1075 l 469 1075 l 601 1268 l 490 1268 l 399 1144 l 306 1268 z m 93 0 l 239 0 l 239 385 l 411 385 b 579 253 532 385 571 351 l 601 0 l 747 0 l 722 281 b 569 458 714 386 667 440 b 736 692 661 488 736 574 b 400 986 736 874 608 986 l 93 986 z m 239 521 l 239 849 l 397 849 b 586 685 518 849 586 790 b 397 521 586 581 518 521 z "},"Ŗ":{"ha":833,"x_min":0,"x_max":0,"o":"m 93 0 l 239 0 l 239 385 l 411 385 b 579 253 532 385 571 351 l 601 0 l 747 0 l 722 281 b 569 458 714 386 667 440 b 736 692 661 488 736 574 b 400 986 736 874 608 986 l 93 986 z m 239 521 l 239 849 l 397 849 b 586 685 518 849 586 790 b 397 521 586 581 518 521 z m 317 -339 l 403 -339 l 496 -200 l 496 -72 l 344 -72 l 344 -208 l 396 -208 z "},"S":{"ha":833,"x_min":0,"x_max":0,"o":"m 429 -22 b 774 250 636 -22 774 88 b 456 563 774 411 692 499 b 232 729 281 611 232 643 b 410 872 232 815 301 872 b 607 681 528 872 592 794 l 757 689 b 414 1008 738 879 619 1008 b 82 722 207 1008 82 892 b 369 446 82 569 167 501 b 624 250 576 388 624 338 b 435 114 624 163 556 114 b 210 331 310 114 229 189 l 60 321 b 429 -22 76 114 215 -22 z "},"Ś":{"ha":833,"x_min":0,"x_max":0,"o":"m 354 1078 l 474 1078 l 599 1264 l 444 1264 z m 429 -22 b 774 250 636 -22 774 88 b 456 563 774 411 692 499 b 232 729 281 611 232 643 b 410 872 232 815 301 872 b 607 681 528 872 592 794 l 757 689 b 414 1008 738 879 619 1008 b 82 722 207 1008 82 892 b 369 446 82 569 167 501 b 624 250 576 388 624 338 b 435 114 624 163 556 114 b 210 331 310 114 229 189 l 60 321 b 429 -22 76 114 215 -22 z "},"Š":{"ha":833,"x_min":0,"x_max":0,"o":"m 214 1268 l 346 1075 l 489 1075 l 619 1268 l 510 1268 l 417 1144 l 325 1268 z m 429 -22 b 774 250 636 -22 774 88 b 456 563 774 411 692 499 b 232 729 281 611 232 643 b 410 872 232 815 301 872 b 607 681 528 872 592 794 l 757 689 b 414 1008 738 879 619 1008 b 82 722 207 1008 82 892 b 369 446 82 569 167 501 b 624 250 576 388 624 338 b 435 114 624 163 556 114 b 210 331 310 114 229 189 l 60 321 b 429 -22 76 114 215 -22 z "},"Ş":{"ha":833,"x_min":0,"x_max":0,"o":"m 407 -311 b 569 -175 500 -311 569 -260 b 436 -47 569 -104 528 -53 l 456 -22 b 774 250 647 -12 774 94 b 456 563 774 411 692 499 b 232 729 281 611 232 643 b 410 872 232 815 301 872 b 607 681 528 872 592 794 l 757 689 b 414 1008 738 879 619 1008 b 82 722 207 1008 82 892 b 369 446 82 569 167 501 b 624 250 576 388 624 338 b 435 114 624 163 556 114 b 210 331 310 114 229 189 l 60 321 b 363 -18 75 138 186 8 l 331 -67 l 376 -112 b 476 -172 460 -112 476 -137 b 404 -225 476 -206 449 -225 b 318 -169 360 -225 333 -208 l 240 -200 b 407 -311 261 -264 317 -311 z "},"Ŝ":{"ha":833,"x_min":0,"x_max":0,"o":"m 213 1075 l 324 1075 l 415 1199 l 508 1075 l 618 1075 l 488 1268 l 344 1268 z m 429 -22 b 774 250 636 -22 774 88 b 456 563 774 411 692 499 b 232 729 281 611 232 643 b 410 872 232 815 301 872 b 607 681 528 872 592 794 l 757 689 b 414 1008 738 879 619 1008 b 82 722 207 1008 82 892 b 369 446 82 569 167 501 b 624 250 576 388 624 338 b 435 114 624 163 556 114 b 210 331 310 114 229 189 l 60 321 b 429 -22 76 114 215 -22 z "},"Ș":{"ha":833,"x_min":0,"x_max":0,"o":"m 429 -22 b 774 250 636 -22 774 88 b 456 563 774 411 692 499 b 232 729 281 611 232 643 b 410 872 232 815 301 872 b 607 681 528 872 592 794 l 757 689 b 414 1008 738 879 619 1008 b 82 722 207 1008 82 892 b 369 446 82 569 167 501 b 624 250 576 388 624 338 b 435 114 624 163 556 114 b 210 331 310 114 229 189 l 60 321 b 429 -22 76 114 215 -22 z m 315 -339 l 401 -339 l 494 -200 l 494 -72 l 343 -72 l 343 -208 l 394 -208 z "},"ẞ":{"ha":833,"x_min":0,"x_max":0,"o":"m 43 0 l 189 0 l 189 681 b 342 849 189 790 243 849 l 569 849 l 313 596 l 313 474 l 422 474 b 653 304 576 474 653 413 b 447 138 653 199 578 138 l 272 138 l 272 0 l 451 0 b 803 306 669 0 803 121 b 458 589 803 475 667 588 l 742 839 l 742 986 l 333 986 b 43 683 153 986 43 872 z "},"T":{"ha":833,"x_min":0,"x_max":0,"o":"m 344 0 l 489 0 l 489 849 l 778 849 l 778 986 l 56 986 l 56 849 l 344 849 z "},"Ŧ":{"ha":833,"x_min":0,"x_max":0,"o":"m 344 0 l 489 0 l 489 411 l 644 411 l 644 536 l 489 536 l 489 849 l 778 849 l 778 986 l 56 986 l 56 849 l 344 849 l 344 536 l 189 536 l 189 411 l 344 411 z "},"Ť":{"ha":833,"x_min":0,"x_max":0,"o":"m 214 1268 l 344 1075 l 489 1075 l 619 1268 l 508 1268 l 417 1144 l 325 1268 z m 344 0 l 489 0 l 489 849 l 778 849 l 778 986 l 56 986 l 56 849 l 344 849 z "},"Ţ":{"ha":833,"x_min":0,"x_max":0,"o":"m 344 0 l 371 0 l 329 -67 l 374 -112 b 475 -172 458 -112 475 -137 b 403 -225 475 -206 447 -225 b 315 -169 357 -225 332 -208 l 238 -200 b 406 -311 258 -264 315 -311 b 568 -175 499 -311 568 -260 b 435 -47 568 -104 525 -53 l 468 0 l 489 0 l 489 849 l 778 849 l 778 986 l 56 986 l 56 849 l 344 849 z "},"Ț":{"ha":833,"x_min":0,"x_max":0,"o":"m 344 0 l 489 0 l 489 849 l 778 849 l 778 986 l 56 986 l 56 849 l 344 849 z m 314 -339 l 400 -339 l 493 -200 l 493 -72 l 340 -72 l 340 -208 l 392 -208 z "},"U":{"ha":833,"x_min":0,"x_max":0,"o":"m 417 -22 b 753 343 626 -22 753 114 l 753 986 l 607 986 l 607 338 b 417 114 607 193 540 114 b 226 338 293 114 226 193 l 226 986 l 81 986 l 81 343 b 417 -22 81 114 207 -22 z "},"Ú":{"ha":833,"x_min":0,"x_max":0,"o":"m 354 1078 l 474 1078 l 599 1264 l 443 1264 z m 417 -22 b 753 343 626 -22 753 114 l 753 986 l 607 986 l 607 338 b 417 114 607 193 540 114 b 226 338 293 114 226 193 l 226 986 l 81 986 l 81 343 b 417 -22 81 114 207 -22 z "},"Ŭ":{"ha":833,"x_min":0,"x_max":0,"o":"m 417 1079 b 617 1267 533 1079 611 1153 l 525 1267 b 417 1175 517 1201 476 1175 b 308 1267 357 1175 317 1201 l 217 1267 b 417 1079 222 1153 300 1079 z m 417 -22 b 753 343 626 -22 753 114 l 753 986 l 607 986 l 607 338 b 417 114 607 193 540 114 b 226 338 293 114 226 193 l 226 986 l 81 986 l 81 343 b 417 -22 81 114 207 -22 z "},"Û":{"ha":833,"x_min":0,"x_max":0,"o":"m 213 1075 l 324 1075 l 415 1199 l 508 1075 l 618 1075 l 488 1268 l 344 1268 z m 417 -22 b 753 343 626 -22 753 114 l 753 986 l 607 986 l 607 338 b 417 114 607 193 540 114 b 226 338 293 114 226 193 l 226 986 l 81 986 l 81 343 b 417 -22 81 114 207 -22 z "},"Ü":{"ha":833,"x_min":0,"x_max":0,"o":"m 208 1092 l 353 1092 l 353 1238 l 208 1238 z m 481 1092 l 625 1092 l 625 1238 l 481 1238 z m 417 -22 b 753 343 626 -22 753 114 l 753 986 l 607 986 l 607 338 b 417 114 607 193 540 114 b 226 338 293 114 226 193 l 226 986 l 81 986 l 81 343 b 417 -22 81 114 207 -22 z "},"Ù":{"ha":833,"x_min":0,"x_max":0,"o":"m 364 1078 l 483 1078 l 393 1264 l 239 1264 z m 417 -22 b 753 343 626 -22 753 114 l 753 986 l 607 986 l 607 338 b 417 114 607 193 540 114 b 226 338 293 114 226 193 l 226 986 l 81 986 l 81 343 b 417 -22 81 114 207 -22 z "},"Ű":{"ha":833,"x_min":0,"x_max":0,"o":"m 244 1075 l 364 1075 l 489 1261 l 335 1261 z m 456 1075 l 575 1075 l 700 1261 l 546 1261 z m 417 -22 b 753 343 626 -22 753 114 l 753 986 l 607 986 l 607 338 b 417 114 607 193 540 114 b 226 338 293 114 226 193 l 226 986 l 81 986 l 81 343 b 417 -22 81 114 207 -22 z "},"Ū":{"ha":833,"x_min":0,"x_max":0,"o":"m 225 1108 l 606 1108 l 606 1221 l 225 1221 z m 417 -22 b 753 343 626 -22 753 114 l 753 986 l 607 986 l 607 338 b 417 114 607 193 540 114 b 226 338 293 114 226 193 l 226 986 l 81 986 l 81 343 b 417 -22 81 114 207 -22 z "},"Ų":{"ha":833,"x_min":0,"x_max":0,"o":"m 467 -294 b 596 -257 522 -294 572 -279 l 561 -171 b 499 -190 546 -183 518 -190 b 458 -151 474 -190 458 -178 b 500 -61 458 -129 465 -107 l 547 -1 b 753 343 678 44 753 167 l 753 986 l 607 986 l 607 338 b 417 114 607 193 540 114 b 226 338 293 114 226 193 l 226 986 l 81 986 l 81 343 b 407 -22 81 118 203 -18 l 392 -40 b 335 -181 354 -89 335 -132 b 467 -294 335 -251 385 -294 z "},"Ů":{"ha":833,"x_min":0,"x_max":0,"o":"m 417 1047 b 550 1179 492 1047 550 1104 b 417 1311 550 1254 492 1311 b 283 1179 340 1311 283 1254 b 417 1047 283 1104 340 1047 z m 417 1121 b 360 1179 383 1121 360 1146 b 417 1236 360 1213 383 1236 b 474 1179 450 1236 474 1213 b 417 1121 474 1146 450 1121 z m 417 -22 b 753 343 626 -22 753 114 l 753 986 l 607 986 l 607 338 b 417 114 607 193 540 114 b 226 338 293 114 226 193 l 226 986 l 81 986 l 81 343 b 417 -22 81 114 207 -22 z "},"Ũ":{"ha":833,"x_min":0,"x_max":0,"o":"m 500 1090 b 639 1267 583 1090 635 1151 l 560 1267 b 504 1178 554 1200 538 1178 b 438 1210 483 1178 465 1188 b 329 1253 404 1236 375 1253 b 194 1081 251 1253 197 1197 l 274 1081 b 332 1165 276 1144 300 1165 b 401 1132 357 1165 371 1156 b 500 1090 432 1107 463 1090 z m 417 -22 b 753 343 626 -22 753 114 l 753 986 l 607 986 l 607 338 b 417 114 607 193 540 114 b 226 338 293 114 226 193 l 226 986 l 81 986 l 81 343 b 417 -22 81 114 207 -22 z "},"V":{"ha":833,"x_min":0,"x_max":0,"o":"m 331 0 l 503 0 l 796 986 l 642 986 l 417 194 l 192 986 l 38 986 z "},"W":{"ha":833,"x_min":0,"x_max":0,"o":"m 144 0 l 335 0 l 417 600 l 499 0 l 689 0 l 794 986 l 649 986 l 574 188 l 481 875 l 353 875 l 260 188 l 185 986 l 39 986 z "},"Ẃ":{"ha":833,"x_min":0,"x_max":0,"o":"m 354 1078 l 474 1078 l 599 1264 l 443 1264 z m 144 0 l 335 0 l 417 600 l 499 0 l 689 0 l 794 986 l 649 986 l 574 188 l 481 875 l 353 875 l 260 188 l 185 986 l 39 986 z "},"Ŵ":{"ha":833,"x_min":0,"x_max":0,"o":"m 213 1075 l 324 1075 l 415 1199 l 508 1075 l 618 1075 l 488 1268 l 344 1268 z m 144 0 l 335 0 l 417 600 l 499 0 l 689 0 l 794 986 l 649 986 l 574 188 l 481 875 l 353 875 l 260 188 l 185 986 l 39 986 z "},"Ẅ":{"ha":833,"x_min":0,"x_max":0,"o":"m 208 1092 l 353 1092 l 353 1238 l 208 1238 z m 481 1092 l 625 1092 l 625 1238 l 481 1238 z m 144 0 l 335 0 l 417 600 l 499 0 l 689 0 l 794 986 l 649 986 l 574 188 l 481 875 l 353 875 l 260 188 l 185 986 l 39 986 z "},"Ẁ":{"ha":833,"x_min":0,"x_max":0,"o":"m 364 1078 l 483 1078 l 393 1264 l 239 1264 z m 144 0 l 335 0 l 417 600 l 499 0 l 689 0 l 794 986 l 649 986 l 574 188 l 481 875 l 353 875 l 260 188 l 185 986 l 39 986 z "},"X":{"ha":833,"x_min":0,"x_max":0,"o":"m 63 0 l 224 0 l 415 385 l 606 0 l 771 0 l 511 494 l 767 986 l 604 986 l 418 607 l 232 986 l 67 986 l 322 496 z "},"Y":{"ha":833,"x_min":0,"x_max":0,"o":"m 344 0 l 490 0 l 490 406 l 782 986 l 621 986 l 417 556 l 213 986 l 51 986 l 344 406 z "},"Ý":{"ha":833,"x_min":0,"x_max":0,"o":"m 354 1078 l 474 1078 l 599 1264 l 443 1264 z m 344 0 l 490 0 l 490 406 l 782 986 l 621 986 l 417 556 l 213 986 l 51 986 l 344 406 z "},"Ŷ":{"ha":833,"x_min":0,"x_max":0,"o":"m 213 1075 l 324 1075 l 415 1199 l 508 1075 l 618 1075 l 488 1268 l 344 1268 z m 344 0 l 490 0 l 490 406 l 782 986 l 621 986 l 417 556 l 213 986 l 51 986 l 344 406 z "},"Ÿ":{"ha":833,"x_min":0,"x_max":0,"o":"m 208 1092 l 353 1092 l 353 1238 l 208 1238 z m 481 1092 l 625 1092 l 625 1238 l 481 1238 z m 344 0 l 490 0 l 490 406 l 782 986 l 621 986 l 417 556 l 213 986 l 51 986 l 344 406 z "},"Ỳ":{"ha":833,"x_min":0,"x_max":0,"o":"m 364 1078 l 483 1078 l 393 1264 l 239 1264 z m 344 0 l 490 0 l 490 406 l 782 986 l 621 986 l 417 556 l 213 986 l 51 986 l 344 406 z "},"Ỹ":{"ha":833,"x_min":0,"x_max":0,"o":"m 500 1090 b 639 1267 583 1090 635 1151 l 560 1267 b 504 1178 554 1200 538 1178 b 438 1210 483 1178 465 1188 b 329 1253 404 1236 375 1253 b 194 1081 251 1253 197 1197 l 274 1081 b 332 1165 276 1144 300 1165 b 401 1132 357 1165 371 1156 b 500 1090 432 1107 463 1090 z m 344 0 l 490 0 l 490 406 l 782 986 l 621 986 l 417 556 l 213 986 l 51 986 l 344 406 z "},"Z":{"ha":833,"x_min":0,"x_max":0,"o":"m 67 0 l 767 0 l 767 138 l 235 138 l 756 847 l 756 986 l 92 986 l 92 849 l 589 849 l 67 139 z "},"Ź":{"ha":833,"x_min":0,"x_max":0,"o":"m 354 1078 l 474 1078 l 599 1264 l 443 1264 z m 67 0 l 767 0 l 767 138 l 235 138 l 756 847 l 756 986 l 92 986 l 92 849 l 589 849 l 67 139 z "},"Ž":{"ha":833,"x_min":0,"x_max":0,"o":"m 214 1268 l 344 1075 l 489 1075 l 619 1268 l 508 1268 l 417 1144 l 325 1268 z m 67 0 l 767 0 l 767 138 l 235 138 l 756 847 l 756 986 l 92 986 l 92 849 l 589 849 l 67 139 z "},"Ż":{"ha":833,"x_min":0,"x_max":0,"o":"m 343 1093 l 488 1093 l 488 1239 l 343 1239 z m 67 0 l 767 0 l 767 138 l 235 138 l 756 847 l 756 986 l 92 986 l 92 849 l 589 849 l 67 139 z "},"Ꞌ":{"ha":833,"x_min":0,"x_max":0,"o":"m 363 511 l 472 511 l 490 790 l 490 986 l 343 986 l 343 790 z "},"a":{"ha":833,"x_min":0,"x_max":0,"o":"m 317 -17 b 551 106 424 -17 514 33 b 703 -4 568 31 618 -4 b 767 0 728 -4 756 -1 l 767 115 l 725 115 b 682 161 696 115 682 126 l 682 453 b 392 756 682 642 581 756 b 83 519 222 756 111 661 l 231 510 b 392 631 250 586 299 631 b 542 458 492 631 542 572 l 303 408 b 71 186 147 378 71 311 b 317 -17 71 64 178 -17 z m 338 99 b 217 197 261 99 217 135 b 336 306 217 256 247 288 l 542 347 l 542 290 b 338 99 542 175 472 99 z "},"á":{"ha":833,"x_min":0,"x_max":0,"o":"m 332 831 l 451 831 l 576 1017 l 421 1017 z m 317 -17 b 551 106 424 -17 514 33 b 703 -4 568 31 618 -4 b 767 0 728 -4 756 -1 l 767 115 l 725 115 b 682 161 696 115 682 126 l 682 453 b 392 756 682 642 581 756 b 83 519 222 756 111 661 l 231 510 b 392 631 250 586 299 631 b 542 458 492 631 542 572 l 303 408 b 71 186 147 378 71 311 b 317 -17 71 64 178 -17 z m 338 99 b 217 197 261 99 217 135 b 336 306 217 256 247 288 l 542 347 l 542 290 b 338 99 542 175 472 99 z "},"ă":{"ha":833,"x_min":0,"x_max":0,"o":"m 394 832 b 594 1019 511 832 589 906 l 503 1019 b 394 928 494 954 454 928 b 286 1019 335 928 294 954 l 194 1019 b 394 832 200 906 278 832 z m 317 -17 b 551 106 424 -17 514 33 b 703 -4 568 31 618 -4 b 767 0 728 -4 756 -1 l 767 115 l 725 115 b 682 161 696 115 682 126 l 682 453 b 392 756 682 642 581 756 b 83 519 222 756 111 661 l 231 510 b 392 631 250 586 299 631 b 542 458 492 631 542 572 l 303 408 b 71 186 147 378 71 311 b 317 -17 71 64 178 -17 z m 338 99 b 217 197 261 99 217 135 b 336 306 217 256 247 288 l 542 347 l 542 290 b 338 99 542 175 472 99 z "},"ǎ":{"ha":833,"x_min":0,"x_max":0,"o":"m 192 1021 l 322 828 l 467 828 l 597 1021 l 486 1021 l 394 897 l 303 1021 z m 317 -17 b 551 106 424 -17 514 33 b 703 -4 568 31 618 -4 b 767 0 728 -4 756 -1 l 767 115 l 725 115 b 682 161 696 115 682 126 l 682 453 b 392 756 682 642 581 756 b 83 519 222 756 111 661 l 231 510 b 392 631 250 586 299 631 b 542 458 492 631 542 572 l 303 408 b 71 186 147 378 71 311 b 317 -17 71 64 178 -17 z m 338 99 b 217 197 261 99 217 135 b 336 306 217 256 247 288 l 542 347 l 542 290 b 338 99 542 175 472 99 z "},"â":{"ha":833,"x_min":0,"x_max":0,"o":"m 190 828 l 301 828 l 393 951 l 486 828 l 596 828 l 465 1021 l 322 1021 z m 317 -17 b 551 106 424 -17 514 33 b 703 -4 568 31 618 -4 b 767 0 728 -4 756 -1 l 767 115 l 725 115 b 682 161 696 115 682 126 l 682 453 b 392 756 682 642 581 756 b 83 519 222 756 111 661 l 231 510 b 392 631 250 586 299 631 b 542 458 492 631 542 572 l 303 408 b 71 186 147 378 71 311 b 317 -17 71 64 178 -17 z m 338 99 b 217 197 261 99 217 135 b 336 306 217 256 247 288 l 542 347 l 542 290 b 338 99 542 175 472 99 z "},"ä":{"ha":833,"x_min":0,"x_max":0,"o":"m 186 844 l 331 844 l 331 990 l 186 990 z m 458 844 l 603 844 l 603 990 l 458 990 z m 317 -17 b 551 106 424 -17 514 33 b 703 -4 568 31 618 -4 b 767 0 728 -4 756 -1 l 767 115 l 725 115 b 682 161 696 115 682 126 l 682 453 b 392 756 682 642 581 756 b 83 519 222 756 111 661 l 231 510 b 392 631 250 586 299 631 b 542 458 492 631 542 572 l 303 408 b 71 186 147 378 71 311 b 317 -17 71 64 178 -17 z m 338 99 b 217 197 261 99 217 135 b 336 306 217 256 247 288 l 542 347 l 542 290 b 338 99 542 175 472 99 z "},"à":{"ha":833,"x_min":0,"x_max":0,"o":"m 342 831 l 461 831 l 371 1017 l 217 1017 z m 317 -17 b 551 106 424 -17 514 33 b 703 -4 568 31 618 -4 b 767 0 728 -4 756 -1 l 767 115 l 725 115 b 682 161 696 115 682 126 l 682 453 b 392 756 682 642 581 756 b 83 519 222 756 111 661 l 231 510 b 392 631 250 586 299 631 b 542 458 492 631 542 572 l 303 408 b 71 186 147 378 71 311 b 317 -17 71 64 178 -17 z m 338 99 b 217 197 261 99 217 135 b 336 306 217 256 247 288 l 542 347 l 542 290 b 338 99 542 175 472 99 z "},"ā":{"ha":833,"x_min":0,"x_max":0,"o":"m 203 861 l 583 861 l 583 974 l 203 974 z m 317 -17 b 551 106 424 -17 514 33 b 703 -4 568 31 618 -4 b 767 0 728 -4 756 -1 l 767 115 l 725 115 b 682 161 696 115 682 126 l 682 453 b 392 756 682 642 581 756 b 83 519 222 756 111 661 l 231 510 b 392 631 250 586 299 631 b 542 458 492 631 542 572 l 303 408 b 71 186 147 378 71 311 b 317 -17 71 64 178 -17 z m 338 99 b 217 197 261 99 217 135 b 336 306 217 256 247 288 l 542 347 l 542 290 b 338 99 542 175 472 99 z "},"ą":{"ha":833,"x_min":0,"x_max":0,"o":"m 317 -17 b 551 106 424 -17 514 33 b 646 3 564 50 596 17 l 611 -40 b 554 -181 572 -89 554 -132 b 685 -294 554 -251 604 -294 b 814 -257 742 -294 790 -279 l 781 -171 b 717 -190 764 -183 738 -190 b 676 -151 692 -190 676 -178 b 719 -61 676 -129 685 -107 l 767 0 l 767 115 l 725 115 b 682 161 696 115 682 126 l 682 453 b 392 756 682 642 581 756 b 83 519 222 756 111 661 l 231 510 b 392 631 250 586 299 631 b 542 458 492 631 542 572 l 303 408 b 71 186 147 378 71 311 b 317 -17 71 64 178 -17 z m 338 99 b 217 197 261 99 217 135 b 336 306 217 256 247 288 l 542 347 l 542 290 b 338 99 542 175 472 99 z "},"å":{"ha":833,"x_min":0,"x_max":0,"o":"m 394 800 b 528 932 469 800 528 857 b 394 1064 528 1007 469 1064 b 261 932 318 1064 261 1007 b 394 800 261 857 318 800 z m 394 874 b 338 932 361 874 338 899 b 394 989 338 965 361 989 b 451 932 428 989 451 965 b 394 874 451 899 428 874 z m 317 -17 b 551 106 424 -17 514 33 b 703 -4 568 31 618 -4 b 767 0 728 -4 756 -1 l 767 115 l 725 115 b 682 161 696 115 682 126 l 682 453 b 392 756 682 642 581 756 b 83 519 222 756 111 661 l 231 510 b 392 631 250 586 299 631 b 542 458 492 631 542 572 l 303 408 b 71 186 147 378 71 311 b 317 -17 71 64 178 -17 z m 338 99 b 217 197 261 99 217 135 b 336 306 217 256 247 288 l 542 347 l 542 290 b 338 99 542 175 472 99 z "},"ã":{"ha":833,"x_min":0,"x_max":0,"o":"m 478 843 b 617 1019 561 843 613 904 l 538 1019 b 482 931 532 953 515 931 b 415 963 461 931 443 940 b 307 1006 382 989 353 1006 b 172 833 229 1006 175 950 l 251 833 b 310 918 254 897 278 918 b 379 885 335 918 349 908 b 478 843 410 860 440 843 z m 317 -17 b 551 106 424 -17 514 33 b 703 -4 568 31 618 -4 b 767 0 728 -4 756 -1 l 767 115 l 725 115 b 682 161 696 115 682 126 l 682 453 b 392 756 682 642 581 756 b 83 519 222 756 111 661 l 231 510 b 392 631 250 586 299 631 b 542 458 492 631 542 572 l 303 408 b 71 186 147 378 71 311 b 317 -17 71 64 178 -17 z m 338 99 b 217 197 261 99 217 135 b 336 306 217 256 247 288 l 542 347 l 542 290 b 338 99 542 175 472 99 z "},"æ":{"ha":833,"x_min":0,"x_max":0,"o":"m 200 -17 b 383 121 290 -17 354 33 b 581 -17 424 32 490 -17 b 803 214 704 -17 769 49 l 667 225 b 579 113 653 142 628 113 b 474 326 518 113 479 186 l 811 326 l 811 388 b 581 756 811 638 722 756 b 411 667 508 756 451 725 b 247 756 376 726 321 756 b 31 518 126 756 54 676 l 161 510 b 247 631 172 582 190 631 b 333 439 307 631 333 575 l 221 421 b 22 196 96 400 22 317 b 200 -17 22 46 100 -17 z m 475 438 b 579 628 488 575 518 628 b 672 438 632 628 667 575 z m 226 99 b 151 200 183 99 151 132 b 246 308 151 260 178 297 l 333 324 l 333 296 b 226 99 333 167 304 99 z "},"b":{"ha":833,"x_min":0,"x_max":0,"o":"m 475 -17 b 783 369 664 -17 783 131 b 475 756 783 608 664 756 b 254 635 371 756 290 700 l 254 986 l 114 986 l 114 0 l 244 0 l 249 113 b 475 -17 290 33 371 -17 z m 451 113 b 254 369 331 113 254 210 b 454 626 254 531 329 626 b 636 369 568 626 636 532 b 451 113 636 210 568 113 z "},"c":{"ha":833,"x_min":0,"x_max":0,"o":"m 433 -17 b 756 261 603 -17 728 93 l 613 269 b 435 113 592 165 522 113 b 235 369 310 113 235 210 b 435 626 235 529 310 626 b 608 481 522 626 586 574 l 751 490 b 433 756 724 657 601 756 b 89 369 226 756 89 603 b 433 -17 89 136 226 -17 z "},"ć":{"ha":833,"x_min":0,"x_max":0,"o":"m 369 831 l 489 831 l 614 1017 l 460 1017 z m 433 -17 b 756 261 603 -17 728 93 l 613 269 b 435 113 592 165 522 113 b 235 369 310 113 235 210 b 435 626 235 529 310 626 b 608 481 522 626 586 574 l 751 490 b 433 756 724 657 601 756 b 89 369 226 756 89 603 b 433 -17 89 136 226 -17 z "},"č":{"ha":833,"x_min":0,"x_max":0,"o":"m 231 1021 l 361 828 l 504 828 l 636 1021 l 525 1021 l 433 897 l 340 1021 z m 433 -17 b 756 261 603 -17 728 93 l 613 269 b 435 113 592 165 522 113 b 235 369 310 113 235 210 b 435 626 235 529 310 626 b 608 481 522 626 586 574 l 751 490 b 433 756 724 657 601 756 b 89 369 226 756 89 603 b 433 -17 89 136 226 -17 z "},"ç":{"ha":833,"x_min":0,"x_max":0,"o":"m 422 -311 b 585 -175 514 -311 585 -260 b 451 -47 585 -104 542 -53 l 475 -14 b 756 261 622 1 731 107 l 613 269 b 435 113 592 165 522 113 b 235 369 310 113 235 210 b 435 626 235 529 310 626 b 608 481 522 626 586 574 l 751 490 b 433 756 724 657 601 756 b 89 369 226 756 89 603 b 379 -12 89 158 201 11 l 346 -67 l 390 -112 b 490 -172 474 -112 490 -137 b 418 -225 490 -206 464 -225 b 332 -169 374 -225 349 -208 l 254 -200 b 422 -311 275 -264 332 -311 z "},"ĉ":{"ha":833,"x_min":0,"x_max":0,"o":"m 229 828 l 340 828 l 432 951 l 524 828 l 635 828 l 504 1021 l 360 1021 z m 433 -17 b 756 261 603 -17 728 93 l 613 269 b 435 113 592 165 522 113 b 235 369 310 113 235 210 b 435 626 235 529 310 626 b 608 481 522 626 586 574 l 751 490 b 433 756 724 657 601 756 b 89 369 226 756 89 603 b 433 -17 89 136 226 -17 z "},"ċ":{"ha":833,"x_min":0,"x_max":0,"o":"m 360 846 l 504 846 l 504 992 l 360 992 z m 433 -17 b 756 261 603 -17 728 93 l 613 269 b 435 113 592 165 522 113 b 235 369 310 113 235 210 b 435 626 235 529 310 626 b 608 481 522 626 586 574 l 751 490 b 433 756 724 657 601 756 b 89 369 226 756 89 603 b 433 -17 89 136 226 -17 z "},"d":{"ha":833,"x_min":0,"x_max":0,"o":"m 358 -17 b 585 113 463 -17 543 33 l 589 0 l 719 0 l 719 986 l 579 986 l 579 635 b 358 756 543 700 463 756 b 50 369 169 756 50 608 b 358 -17 50 131 169 -17 z m 382 113 b 197 369 265 113 197 210 b 379 626 197 532 265 626 b 579 369 504 626 579 531 b 382 113 579 210 503 113 z "},"ď":{"ha":833,"x_min":0,"x_max":0,"o":"m 299 -17 b 494 115 393 -17 457 35 l 500 0 l 631 0 l 631 986 l 490 986 l 490 633 b 300 756 456 700 393 756 b 22 369 128 756 22 608 b 299 -17 22 131 128 -17 z m 663 618 l 761 618 l 833 986 l 701 986 z m 324 113 b 169 369 229 113 169 210 b 321 626 169 532 229 626 b 490 369 422 626 490 531 b 324 113 490 210 422 113 z "},"đ":{"ha":833,"x_min":0,"x_max":0,"o":"m 358 -17 b 585 113 463 -17 543 33 l 589 0 l 719 0 l 719 806 l 808 806 l 808 908 l 719 908 l 719 986 l 579 986 l 579 908 l 375 908 l 375 806 l 579 806 l 579 635 b 358 756 543 700 463 756 b 50 369 169 756 50 608 b 358 -17 50 131 169 -17 z m 382 113 b 197 369 265 113 197 210 b 379 626 197 532 265 626 b 579 369 504 626 579 531 b 382 113 579 210 503 113 z "},"ð":{"ha":833,"x_min":0,"x_max":0,"o":"m 419 -17 b 757 357 622 -17 757 121 b 626 828 757 546 719 711 l 768 882 l 733 974 l 550 904 b 283 1003 482 957 393 992 l 247 886 b 406 849 308 881 361 868 l 310 813 l 343 721 l 504 782 b 586 642 539 746 567 699 b 418 692 538 672 481 692 b 81 338 214 692 81 556 b 419 -17 81 119 214 -17 z m 419 111 b 226 338 297 111 226 193 b 419 564 226 482 297 564 b 611 350 539 564 611 482 b 419 111 611 189 539 111 z "},"e":{"ha":833,"x_min":0,"x_max":0,"o":"m 426 -17 b 743 215 586 -17 700 75 l 596 225 b 428 113 574 157 515 113 b 231 328 313 113 239 186 l 756 328 l 756 367 b 422 756 756 611 618 756 b 83 369 217 756 83 603 b 426 -17 83 135 218 -17 z m 231 440 b 422 626 249 563 318 626 b 604 440 521 626 593 567 z "},"é":{"ha":833,"x_min":0,"x_max":0,"o":"m 360 828 l 479 828 l 604 1015 l 450 1015 z m 426 -17 b 743 215 586 -17 700 75 l 596 225 b 428 113 574 157 515 113 b 231 328 313 113 239 186 l 756 328 l 756 367 b 422 756 756 611 618 756 b 83 369 217 756 83 603 b 426 -17 83 135 218 -17 z m 231 440 b 422 626 249 563 318 626 b 604 440 521 626 593 567 z "},"ě":{"ha":833,"x_min":0,"x_max":0,"o":"m 221 1019 l 351 825 l 494 825 l 626 1019 l 515 1019 l 424 896 l 331 1019 z m 426 -17 b 743 215 586 -17 700 75 l 596 225 b 428 113 574 157 515 113 b 231 328 313 113 239 186 l 756 328 l 756 367 b 422 756 756 611 618 756 b 83 369 217 756 83 603 b 426 -17 83 135 218 -17 z m 231 440 b 422 626 249 563 318 626 b 604 440 521 626 593 567 z "},"ê":{"ha":833,"x_min":0,"x_max":0,"o":"m 219 825 l 331 825 l 422 949 l 514 825 l 625 825 l 494 1019 l 350 1019 z m 426 -17 b 743 215 586 -17 700 75 l 596 225 b 428 113 574 157 515 113 b 231 328 313 113 239 186 l 756 328 l 756 367 b 422 756 756 611 618 756 b 83 369 217 756 83 603 b 426 -17 83 135 218 -17 z m 231 440 b 422 626 249 563 318 626 b 604 440 521 626 593 567 z "},"ë":{"ha":833,"x_min":0,"x_max":0,"o":"m 214 843 l 360 843 l 360 988 l 214 988 z m 488 843 l 632 843 l 632 988 l 488 988 z m 426 -17 b 743 215 586 -17 700 75 l 596 225 b 428 113 574 157 515 113 b 231 328 313 113 239 186 l 756 328 l 756 367 b 422 756 756 611 618 756 b 83 369 217 756 83 603 b 426 -17 83 135 218 -17 z m 231 440 b 422 626 249 563 318 626 b 604 440 521 626 593 567 z "},"ė":{"ha":833,"x_min":0,"x_max":0,"o":"m 350 843 l 494 843 l 494 989 l 350 989 z m 426 -17 b 743 215 586 -17 700 75 l 596 225 b 428 113 574 157 515 113 b 231 328 313 113 239 186 l 756 328 l 756 367 b 422 756 756 611 618 756 b 83 369 217 756 83 603 b 426 -17 83 135 218 -17 z m 231 440 b 422 626 249 563 318 626 b 604 440 521 626 593 567 z "},"è":{"ha":833,"x_min":0,"x_max":0,"o":"m 371 828 l 490 828 l 400 1015 l 246 1015 z m 426 -17 b 743 215 586 -17 700 75 l 596 225 b 428 113 574 157 515 113 b 231 328 313 113 239 186 l 756 328 l 756 367 b 422 756 756 611 618 756 b 83 369 217 756 83 603 b 426 -17 83 135 218 -17 z m 231 440 b 422 626 249 563 318 626 b 604 440 521 626 593 567 z "},"ē":{"ha":833,"x_min":0,"x_max":0,"o":"m 232 858 l 613 858 l 613 971 l 232 971 z m 426 -17 b 743 215 586 -17 700 75 l 596 225 b 428 113 574 157 515 113 b 231 328 313 113 239 186 l 756 328 l 756 367 b 422 756 756 611 618 756 b 83 369 217 756 83 603 b 426 -17 83 135 218 -17 z m 231 440 b 422 626 249 563 318 626 b 604 440 521 626 593 567 z "},"ę":{"ha":833,"x_min":0,"x_max":0,"o":"m 426 -17 b 443 -17 432 -17 438 -17 b 392 -149 410 -61 392 -101 b 524 -262 392 -219 442 -262 b 653 -225 581 -262 629 -247 l 618 -139 b 556 -158 603 -151 575 -158 b 515 -119 531 -158 515 -146 b 558 -29 515 -97 524 -75 l 603 29 b 743 215 669 69 718 135 l 596 225 b 428 113 574 157 515 113 b 231 328 313 113 239 186 l 756 328 l 756 367 b 422 756 756 611 618 756 b 83 369 217 756 83 603 b 426 -17 83 135 218 -17 z m 231 440 b 422 626 249 563 318 626 b 604 440 521 626 593 567 z "},"ẽ":{"ha":833,"x_min":0,"x_max":0,"o":"m 507 840 b 646 1017 590 840 642 901 l 567 1017 b 511 928 561 950 543 928 b 444 960 490 928 472 938 b 336 1004 411 986 381 1004 b 200 831 258 1004 203 947 l 281 831 b 339 915 283 896 307 915 b 408 882 364 915 378 907 b 507 840 439 857 469 840 z m 426 -17 b 743 215 586 -17 700 75 l 596 225 b 428 113 574 157 515 113 b 231 328 313 113 239 186 l 756 328 l 756 367 b 422 756 756 611 618 756 b 83 369 217 756 83 603 b 426 -17 83 135 218 -17 z m 231 440 b 422 626 249 563 318 626 b 604 440 521 626 593 567 z "},"ə":{"ha":833,"x_min":0,"x_max":0,"o":"m 407 756 b 90 524 247 756 133 664 l 238 514 b 406 626 260 582 318 626 b 603 411 521 626 594 553 l 78 411 l 78 372 b 411 -17 78 128 215 -17 b 750 369 617 -17 750 136 b 407 756 750 604 615 756 z m 603 299 b 411 113 585 176 515 113 b 229 299 313 113 240 172 z "},"f":{"ha":833,"x_min":0,"x_max":0,"o":"m 289 0 l 429 0 l 429 621 l 728 621 l 728 739 l 429 739 l 429 776 b 514 868 429 833 457 868 l 739 868 l 739 986 l 500 986 b 289 778 356 986 289 914 l 289 739 l 94 739 l 94 621 l 289 621 z "},"g":{"ha":833,"x_min":0,"x_max":0,"o":"m 413 -225 b 744 64 618 -225 744 -121 l 744 739 l 610 739 l 608 624 b 386 756 574 706 489 756 b 75 394 204 756 75 610 b 392 39 75 185 207 39 b 604 163 490 39 568 88 l 604 54 b 413 -100 604 -49 536 -100 b 244 -1 311 -100 265 -64 l 97 -11 b 413 -225 129 -140 246 -225 z m 411 164 b 222 396 293 164 222 250 b 411 631 222 543 292 631 b 604 396 528 631 606 543 b 411 164 603 250 526 164 z "},"ğ":{"ha":833,"x_min":0,"x_max":0,"o":"m 418 832 b 618 1019 535 832 613 906 l 526 1019 b 418 928 518 954 478 928 b 310 1019 357 928 317 954 l 218 1019 b 418 832 224 906 301 832 z m 413 -225 b 744 64 618 -225 744 -121 l 744 739 l 610 739 l 608 624 b 386 756 574 706 489 756 b 75 394 204 756 75 610 b 392 39 75 185 207 39 b 604 163 490 39 568 88 l 604 54 b 413 -100 604 -49 536 -100 b 244 -1 311 -100 265 -64 l 97 -11 b 413 -225 129 -140 246 -225 z m 411 164 b 222 396 293 164 222 250 b 411 631 222 543 292 631 b 604 396 528 631 606 543 b 411 164 603 250 526 164 z "},"ǧ":{"ha":833,"x_min":0,"x_max":0,"o":"m 215 1021 l 346 828 l 489 828 l 621 1021 l 510 1021 l 418 897 l 325 1021 z m 413 -225 b 744 64 618 -225 744 -121 l 744 739 l 610 739 l 608 624 b 386 756 574 706 489 756 b 75 394 204 756 75 610 b 392 39 75 185 207 39 b 604 163 490 39 568 88 l 604 54 b 413 -100 604 -49 536 -100 b 244 -1 311 -100 265 -64 l 97 -11 b 413 -225 129 -140 246 -225 z m 411 164 b 222 396 293 164 222 250 b 411 631 222 543 292 631 b 604 396 528 631 606 543 b 411 164 603 250 526 164 z "},"ĝ":{"ha":833,"x_min":0,"x_max":0,"o":"m 214 828 l 324 828 l 417 951 l 508 828 l 619 828 l 488 1021 l 344 1021 z m 413 -225 b 744 64 618 -225 744 -121 l 744 739 l 610 739 l 608 624 b 386 756 574 706 489 756 b 75 394 204 756 75 610 b 392 39 75 185 207 39 b 604 163 490 39 568 88 l 604 54 b 413 -100 604 -49 536 -100 b 244 -1 311 -100 265 -64 l 97 -11 b 413 -225 129 -140 246 -225 z m 411 164 b 222 396 293 164 222 250 b 411 631 222 543 292 631 b 604 396 528 631 606 543 b 411 164 603 250 526 164 z "},"ģ":{"ha":833,"x_min":0,"x_max":0,"o":"m 524 1099 l 438 1099 l 344 958 l 344 832 l 496 832 l 496 967 l 446 967 z m 413 -225 b 744 64 618 -225 744 -121 l 744 739 l 610 739 l 608 624 b 386 756 574 706 489 756 b 75 394 204 756 75 610 b 392 39 75 185 207 39 b 604 163 490 39 568 88 l 604 54 b 413 -100 604 -49 536 -100 b 244 -1 311 -100 265 -64 l 97 -11 b 413 -225 129 -140 246 -225 z m 411 164 b 222 396 293 164 222 250 b 411 631 222 543 292 631 b 604 396 528 631 606 543 b 411 164 603 250 526 164 z "},"ġ":{"ha":833,"x_min":0,"x_max":0,"o":"m 344 846 l 489 846 l 489 992 l 344 992 z m 413 -225 b 744 64 618 -225 744 -121 l 744 739 l 610 739 l 608 624 b 386 756 574 706 489 756 b 75 394 204 756 75 610 b 392 39 75 185 207 39 b 604 163 490 39 568 88 l 604 54 b 413 -100 604 -49 536 -100 b 244 -1 311 -100 265 -64 l 97 -11 b 413 -225 129 -140 246 -225 z m 411 164 b 222 396 293 164 222 250 b 411 631 222 543 292 631 b 604 396 528 631 606 543 b 411 164 603 250 526 164 z "},"ḡ":{"ha":833,"x_min":0,"x_max":0,"o":"m 226 861 l 607 861 l 607 974 l 226 974 z m 413 -225 b 744 64 618 -225 744 -121 l 744 739 l 610 739 l 608 624 b 386 756 574 706 489 756 b 75 394 204 756 75 610 b 392 39 75 185 207 39 b 604 163 490 39 568 88 l 604 54 b 413 -100 604 -49 536 -100 b 244 -1 311 -100 265 -64 l 97 -11 b 413 -225 129 -140 246 -225 z m 411 164 b 222 396 293 164 222 250 b 411 631 222 543 292 631 b 604 396 528 631 606 543 b 411 164 603 250 526 164 z "},"ǥ":{"ha":833,"x_min":0,"x_max":0,"o":"m 410 -225 b 742 64 615 -225 742 -121 l 742 338 l 808 338 l 808 443 l 742 443 l 742 739 l 607 739 l 606 624 b 383 756 571 706 486 756 b 72 394 201 756 72 610 b 389 39 72 185 204 39 b 601 163 488 39 565 88 l 601 54 b 410 -100 601 -49 533 -100 b 242 -1 308 -100 263 -64 l 94 -11 b 410 -225 126 -140 243 -225 z m 408 164 b 219 396 290 164 219 250 b 408 631 219 543 289 631 b 599 443 513 631 585 561 l 410 443 l 410 338 l 596 338 b 408 164 578 226 507 164 z "},"h":{"ha":833,"x_min":0,"x_max":0,"o":"m 129 0 l 269 0 l 269 436 b 446 633 269 564 340 633 b 586 440 539 633 586 574 l 586 0 l 726 0 l 726 476 b 488 756 726 642 644 756 b 269 626 388 756 308 715 l 269 986 l 129 986 z "},"ħ":{"ha":833,"x_min":0,"x_max":0,"o":"m 129 0 l 269 0 l 269 436 b 446 633 269 564 340 633 b 586 440 539 633 586 574 l 586 0 l 726 0 l 726 476 b 488 756 726 642 644 756 b 269 626 388 756 308 715 l 269 806 l 479 806 l 479 908 l 269 908 l 269 986 l 129 986 l 129 908 l 46 908 l 46 806 l 129 806 z "},"ĥ":{"ha":833,"x_min":0,"x_max":0,"o":"m 0 1075 l 110 1075 l 203 1199 l 294 1075 l 406 1075 l 274 1268 l 131 1268 z m 129 0 l 269 0 l 269 436 b 446 633 269 564 340 633 b 586 440 539 633 586 574 l 586 0 l 726 0 l 726 476 b 488 756 726 642 644 756 b 269 626 388 756 308 715 l 269 986 l 129 986 z "},"i":{"ha":833,"x_min":0,"x_max":0,"o":"m 386 846 l 531 846 l 531 992 l 386 992 z m 106 0 l 783 0 l 783 118 l 536 118 l 536 739 l 119 739 l 119 621 l 394 621 l 394 118 l 106 118 z "},"ı":{"ha":833,"x_min":0,"x_max":0,"o":"m 106 0 l 783 0 l 783 118 l 536 118 l 536 739 l 119 739 l 119 621 l 394 621 l 394 118 l 106 118 z "},"í":{"ha":833,"x_min":0,"x_max":0,"o":"m 396 831 l 515 831 l 640 1017 l 486 1017 z m 106 0 l 783 0 l 783 118 l 536 118 l 536 739 l 119 739 l 119 621 l 394 621 l 394 118 l 106 118 z "},"î":{"ha":833,"x_min":0,"x_max":0,"o":"m 256 828 l 367 828 l 458 951 l 550 828 l 661 828 l 531 1021 l 386 1021 z m 106 0 l 783 0 l 783 118 l 536 118 l 536 739 l 119 739 l 119 621 l 394 621 l 394 118 l 106 118 z "},"ï":{"ha":833,"x_min":0,"x_max":0,"o":"m 250 844 l 396 844 l 396 990 l 250 990 z m 524 844 l 668 844 l 668 990 l 524 990 z m 106 0 l 783 0 l 783 118 l 536 118 l 536 739 l 119 739 l 119 621 l 394 621 l 394 118 l 106 118 z "},"ì":{"ha":833,"x_min":0,"x_max":0,"o":"m 407 831 l 526 831 l 436 1017 l 282 1017 z m 106 0 l 783 0 l 783 118 l 536 118 l 536 739 l 119 739 l 119 621 l 394 621 l 394 118 l 106 118 z "},"ī":{"ha":833,"x_min":0,"x_max":0,"o":"m 268 861 l 649 861 l 649 974 l 268 974 z m 106 0 l 783 0 l 783 118 l 536 118 l 536 739 l 119 739 l 119 621 l 394 621 l 394 118 l 106 118 z "},"į":{"ha":833,"x_min":0,"x_max":0,"o":"m 386 846 l 531 846 l 531 992 l 386 992 z m 106 0 l 660 0 l 628 -40 b 571 -181 589 -89 571 -132 b 701 -294 571 -251 621 -294 b 831 -257 758 -294 807 -279 l 797 -171 b 733 -190 781 -183 754 -190 b 693 -151 708 -190 693 -178 b 736 -61 693 -129 701 -107 l 783 0 l 783 118 l 536 118 l 536 739 l 119 739 l 119 621 l 394 621 l 394 118 l 106 118 z "},"ĩ":{"ha":833,"x_min":0,"x_max":0,"o":"m 543 843 b 682 1019 626 843 678 904 l 603 1019 b 547 931 597 953 579 931 b 481 963 526 931 508 940 b 372 1006 447 989 417 1006 b 236 833 294 1006 239 950 l 317 833 b 375 918 319 897 343 918 b 444 885 400 918 414 908 b 543 843 475 860 506 843 z m 106 0 l 783 0 l 783 118 l 536 118 l 536 739 l 119 739 l 119 621 l 394 621 l 394 118 l 106 118 z "},"j":{"ha":833,"x_min":0,"x_max":0,"o":"m 478 846 l 624 846 l 624 992 l 478 992 z m 147 -208 l 388 -208 b 625 18 550 -208 625 -128 l 625 739 l 158 739 l 158 621 l 483 621 l 483 26 b 372 -90 483 -62 447 -90 l 147 -90 z "},"ȷ":{"ha":833,"x_min":0,"x_max":0,"o":"m 147 -208 l 388 -208 b 625 18 550 -208 625 -128 l 625 739 l 158 739 l 158 621 l 483 621 l 483 26 b 372 -90 483 -62 447 -90 l 147 -90 z "},"ĵ":{"ha":833,"x_min":0,"x_max":0,"o":"m 349 828 l 458 828 l 551 951 l 643 828 l 754 828 l 622 1021 l 479 1021 z m 147 -208 l 388 -208 b 625 18 550 -208 625 -128 l 625 739 l 158 739 l 158 621 l 483 621 l 483 26 b 372 -90 483 -62 447 -90 l 147 -90 z "},"k":{"ha":833,"x_min":0,"x_max":0,"o":"m 111 0 l 251 0 l 251 193 l 382 331 l 611 0 l 776 0 l 475 425 l 764 739 l 585 739 l 251 367 l 251 986 l 111 986 z "},"ǩ":{"ha":833,"x_min":0,"x_max":0,"o":"m -18 1268 l 114 1075 l 257 1075 l 388 1268 l 278 1268 l 185 1144 l 93 1268 z m 111 0 l 251 0 l 251 193 l 382 331 l 611 0 l 776 0 l 475 425 l 764 739 l 585 739 l 251 367 l 251 986 l 111 986 z "},"ķ":{"ha":833,"x_min":0,"x_max":0,"o":"m 111 0 l 251 0 l 251 193 l 382 331 l 611 0 l 776 0 l 475 425 l 764 739 l 585 739 l 251 367 l 251 986 l 111 986 z m 324 -339 l 410 -339 l 501 -200 l 501 -72 l 350 -72 l 350 -208 l 401 -208 z "},"l":{"ha":833,"x_min":0,"x_max":0,"o":"m 78 0 l 756 0 l 756 118 l 507 118 l 507 769 b 290 986 507 913 433 986 l 106 986 l 106 868 l 275 868 b 367 776 333 868 367 835 l 367 118 l 78 118 z "},"ĺ":{"ha":833,"x_min":0,"x_max":0,"o":"m 326 1078 l 446 1078 l 571 1264 l 415 1264 z m 78 0 l 756 0 l 756 118 l 507 118 l 507 769 b 290 986 507 913 433 986 l 106 986 l 106 868 l 275 868 b 367 776 333 868 367 835 l 367 118 l 78 118 z "},"ľ":{"ha":833,"x_min":0,"x_max":0,"o":"m 78 0 l 756 0 l 756 118 l 507 118 l 507 769 b 290 986 507 913 433 986 l 106 986 l 106 868 l 275 868 b 367 776 333 868 367 835 l 367 118 l 78 118 z m 582 618 l 682 618 l 758 986 l 624 986 z "},"ļ":{"ha":833,"x_min":0,"x_max":0,"o":"m 78 0 l 756 0 l 756 118 l 507 118 l 507 769 b 290 986 507 913 433 986 l 106 986 l 106 868 l 275 868 b 367 776 333 868 367 835 l 367 118 l 78 118 z m 332 -339 l 418 -339 l 511 -200 l 511 -72 l 360 -72 l 360 -208 l 411 -208 z "},"ł":{"ha":833,"x_min":0,"x_max":0,"o":"m 78 0 l 756 0 l 756 118 l 507 118 l 507 513 l 664 571 l 664 678 l 507 619 l 507 769 b 290 986 507 913 433 986 l 106 986 l 106 868 l 275 868 b 367 776 333 868 367 835 l 367 567 l 219 511 l 219 404 l 367 460 l 367 118 l 78 118 z "},"m":{"ha":833,"x_min":0,"x_max":0,"o":"m 50 0 l 186 0 l 186 472 b 275 633 186 585 222 633 b 350 475 329 633 350 589 l 350 0 l 483 0 l 483 472 b 571 633 483 585 519 633 b 647 475 622 633 647 593 l 647 0 l 783 0 l 783 499 b 617 756 783 681 732 756 b 458 614 540 756 483 703 b 321 756 440 707 397 756 b 176 629 251 756 201 710 l 172 739 l 50 739 z "},"n":{"ha":833,"x_min":0,"x_max":0,"o":"m 111 0 l 251 0 l 251 438 b 435 633 251 565 332 633 b 582 440 533 633 582 568 l 582 0 l 722 0 l 722 476 b 475 756 722 635 640 756 b 243 606 372 756 282 708 l 240 739 l 111 739 z "},"ń":{"ha":833,"x_min":0,"x_max":0,"o":"m 353 831 l 472 831 l 597 1017 l 443 1017 z m 111 0 l 251 0 l 251 438 b 435 633 251 565 332 633 b 582 440 533 633 582 568 l 582 0 l 722 0 l 722 476 b 475 756 722 635 640 756 b 243 606 372 756 282 708 l 240 739 l 111 739 z "},"ň":{"ha":833,"x_min":0,"x_max":0,"o":"m 213 1021 l 344 828 l 488 828 l 618 1021 l 508 1021 l 415 897 l 324 1021 z m 111 0 l 251 0 l 251 438 b 435 633 251 565 332 633 b 582 440 533 633 582 568 l 582 0 l 722 0 l 722 476 b 475 756 722 635 640 756 b 243 606 372 756 282 708 l 240 739 l 111 739 z "},"ņ":{"ha":833,"x_min":0,"x_max":0,"o":"m 111 0 l 251 0 l 251 438 b 435 633 251 565 332 633 b 582 440 533 633 582 568 l 582 0 l 722 0 l 722 476 b 475 756 722 635 640 756 b 243 606 372 756 282 708 l 240 739 l 111 739 z m 313 -339 l 399 -339 l 492 -200 l 492 -72 l 340 -72 l 340 -208 l 392 -208 z "},"ñ":{"ha":833,"x_min":0,"x_max":0,"o":"m 500 843 b 639 1019 582 843 633 904 l 560 1019 b 503 931 554 953 536 931 b 436 963 482 931 464 940 b 329 1006 403 989 374 1006 b 193 833 250 1006 196 950 l 272 833 b 331 918 275 897 299 918 b 400 885 357 918 371 908 b 500 843 432 860 463 843 z m 111 0 l 251 0 l 251 438 b 435 633 251 565 332 633 b 582 440 533 633 582 568 l 582 0 l 722 0 l 722 476 b 475 756 722 635 640 756 b 243 606 372 756 282 708 l 240 739 l 111 739 z "},"ŋ":{"ha":833,"x_min":0,"x_max":0,"o":"m 111 0 l 251 0 l 251 438 b 435 633 251 565 332 633 b 582 440 533 633 582 568 l 582 -6 b 501 -90 582 -57 551 -90 l 394 -90 l 394 -208 l 514 -208 b 722 -8 642 -208 722 -129 l 722 476 b 475 756 722 635 640 756 b 243 606 372 756 282 708 l 240 739 l 111 739 z "},"o":{"ha":833,"x_min":0,"x_max":0,"o":"m 417 -17 b 758 369 622 -17 758 133 b 417 756 758 606 622 756 b 75 369 210 756 75 606 b 417 -17 75 133 210 -17 z m 417 113 b 222 369 292 113 222 208 b 417 626 222 531 292 626 b 611 369 540 626 611 531 b 417 113 611 208 540 113 z "},"ó":{"ha":833,"x_min":0,"x_max":0,"o":"m 354 831 l 474 831 l 599 1017 l 443 1017 z m 417 -17 b 758 369 622 -17 758 133 b 417 756 758 606 622 756 b 75 369 210 756 75 606 b 417 -17 75 133 210 -17 z m 417 113 b 222 369 292 113 222 208 b 417 626 222 531 292 626 b 611 369 540 626 611 531 b 417 113 611 208 540 113 z "},"ô":{"ha":833,"x_min":0,"x_max":0,"o":"m 213 828 l 324 828 l 415 951 l 508 828 l 618 828 l 488 1021 l 344 1021 z m 417 -17 b 758 369 622 -17 758 133 b 417 756 758 606 622 756 b 75 369 210 756 75 606 b 417 -17 75 133 210 -17 z m 417 113 b 222 369 292 113 222 208 b 417 626 222 531 292 626 b 611 369 540 626 611 531 b 417 113 611 208 540 113 z "},"ö":{"ha":833,"x_min":0,"x_max":0,"o":"m 208 844 l 353 844 l 353 990 l 208 990 z m 481 844 l 625 844 l 625 990 l 481 990 z m 417 -17 b 758 369 622 -17 758 133 b 417 756 758 606 622 756 b 75 369 210 756 75 606 b 417 -17 75 133 210 -17 z m 417 113 b 222 369 292 113 222 208 b 417 626 222 531 292 626 b 611 369 540 626 611 531 b 417 113 611 208 540 113 z "},"ò":{"ha":833,"x_min":0,"x_max":0,"o":"m 364 831 l 483 831 l 393 1017 l 239 1017 z m 417 -17 b 758 369 622 -17 758 133 b 417 756 758 606 622 756 b 75 369 210 756 75 606 b 417 -17 75 133 210 -17 z m 417 113 b 222 369 292 113 222 208 b 417 626 222 531 292 626 b 611 369 540 626 611 531 b 417 113 611 208 540 113 z "},"ő":{"ha":833,"x_min":0,"x_max":0,"o":"m 244 828 l 364 828 l 489 1014 l 335 1014 z m 456 828 l 575 828 l 700 1014 l 546 1014 z m 417 -17 b 758 369 622 -17 758 133 b 417 756 758 606 622 756 b 75 369 210 756 75 606 b 417 -17 75 133 210 -17 z m 417 113 b 222 369 292 113 222 208 b 417 626 222 531 292 626 b 611 369 540 626 611 531 b 417 113 611 208 540 113 z "},"ō":{"ha":833,"x_min":0,"x_max":0,"o":"m 225 861 l 606 861 l 606 974 l 225 974 z m 417 -17 b 758 369 622 -17 758 133 b 417 756 758 606 622 756 b 75 369 210 756 75 606 b 417 -17 75 133 210 -17 z m 417 113 b 222 369 292 113 222 208 b 417 626 222 531 292 626 b 611 369 540 626 611 531 b 417 113 611 208 540 113 z "},"ø":{"ha":833,"x_min":0,"x_max":0,"o":"m 106 -19 l 217 -19 l 246 25 b 417 -17 294 -1 351 -17 b 758 369 622 -17 758 133 b 660 656 758 490 722 589 l 728 758 l 617 758 l 588 713 b 417 756 539 740 481 756 b 75 369 210 756 75 606 b 174 83 75 249 111 150 z m 222 369 b 417 626 222 531 292 626 b 514 601 454 626 486 618 l 256 208 b 222 369 233 250 222 304 z m 417 113 b 319 138 379 113 347 121 l 578 531 b 611 369 600 489 611 435 b 417 113 611 208 540 113 z "},"õ":{"ha":833,"x_min":0,"x_max":0,"o":"m 500 843 b 639 1019 583 843 635 904 l 560 1019 b 504 931 554 953 538 931 b 438 963 483 931 465 940 b 329 1006 404 989 375 1006 b 194 833 251 1006 197 950 l 274 833 b 332 918 276 897 300 918 b 401 885 357 918 371 908 b 500 843 432 860 463 843 z m 417 -17 b 758 369 622 -17 758 133 b 417 756 758 606 622 756 b 75 369 210 756 75 606 b 417 -17 75 133 210 -17 z m 417 113 b 222 369 292 113 222 208 b 417 626 222 531 292 626 b 611 369 540 626 611 531 b 417 113 611 208 540 113 z "},"œ":{"ha":833,"x_min":0,"x_max":0,"o":"m 247 -17 b 414 86 315 -17 372 21 b 590 -17 454 21 514 -17 b 813 214 714 -17 779 49 l 678 225 b 589 113 663 142 638 113 b 483 326 528 113 489 186 l 821 326 l 821 386 b 590 756 821 631 735 756 b 414 656 515 756 456 719 b 247 756 374 719 315 756 b 14 369 101 756 14 614 b 247 -17 14 125 101 -17 z m 249 113 b 151 369 188 113 151 200 b 249 628 151 538 188 628 b 344 369 310 628 344 539 b 249 113 344 199 310 113 z m 485 438 b 583 628 496 567 526 628 b 682 438 640 628 674 567 z "},"p":{"ha":833,"x_min":0,"x_max":0,"o":"m 100 -208 l 240 -208 l 240 99 b 460 -17 281 25 363 -17 b 769 369 672 -17 769 161 b 460 756 769 578 672 756 b 235 619 358 756 278 708 l 233 739 l 100 739 z m 433 113 b 240 369 315 113 240 199 b 433 626 240 540 317 626 b 622 369 551 626 622 535 b 433 113 622 204 551 113 z "},"þ":{"ha":833,"x_min":0,"x_max":0,"o":"m 101 -208 l 244 -208 l 244 100 b 467 -17 286 26 364 -17 b 771 369 675 -17 771 161 b 464 756 771 575 679 756 b 244 638 361 756 282 707 l 244 986 l 101 986 z m 431 113 b 233 369 294 113 233 233 b 431 631 233 507 292 631 b 624 369 568 631 624 514 b 431 113 624 231 568 113 z "},"q":{"ha":833,"x_min":0,"x_max":0,"o":"m 733 -208 l 733 739 l 600 739 l 599 619 b 374 756 556 708 475 756 b 64 369 161 756 64 578 b 374 -17 64 161 161 -17 b 593 99 471 -17 553 25 l 593 -208 z m 400 113 b 211 369 282 113 211 204 b 400 626 211 535 282 626 b 593 369 517 626 593 540 b 400 113 593 199 518 113 z "},"r":{"ha":833,"x_min":0,"x_max":0,"o":"m 117 0 l 675 0 l 675 118 l 444 118 l 444 439 b 607 617 444 556 500 617 l 758 617 l 758 739 l 601 739 b 424 594 507 739 447 692 l 415 739 l 117 739 l 117 621 l 304 621 l 304 118 l 117 118 z "},"ŕ":{"ha":833,"x_min":0,"x_max":0,"o":"m 408 831 l 528 831 l 653 1017 l 499 1017 z m 117 0 l 675 0 l 675 118 l 444 118 l 444 439 b 607 617 444 556 500 617 l 758 617 l 758 739 l 601 739 b 424 594 507 739 447 692 l 415 739 l 117 739 l 117 621 l 304 621 l 304 118 l 117 118 z "},"ř":{"ha":833,"x_min":0,"x_max":0,"o":"m 268 1021 l 400 828 l 543 828 l 674 1021 l 564 1021 l 471 897 l 379 1021 z m 117 0 l 675 0 l 675 118 l 444 118 l 444 439 b 607 617 444 556 500 617 l 758 617 l 758 739 l 601 739 b 424 594 507 739 447 692 l 415 739 l 117 739 l 117 621 l 304 621 l 304 118 l 117 118 z "},"ŗ":{"ha":833,"x_min":0,"x_max":0,"o":"m 117 0 l 675 0 l 675 118 l 444 118 l 444 439 b 607 617 444 556 500 617 l 758 617 l 758 739 l 601 739 b 424 594 507 739 447 692 l 415 739 l 117 739 l 117 621 l 304 621 l 304 118 l 117 118 z m 272 -339 l 358 -339 l 451 -200 l 451 -72 l 300 -72 l 300 -208 l 351 -208 z "},"s":{"ha":833,"x_min":0,"x_max":0,"o":"m 428 -17 b 729 197 607 -17 729 64 b 444 417 729 319 668 378 b 267 529 311 442 267 463 b 410 629 267 585 310 629 b 575 507 503 629 560 578 l 718 515 b 410 756 697 643 606 756 b 122 529 221 756 122 658 b 408 301 122 404 190 342 b 586 196 556 275 586 251 b 429 110 586 138 529 110 b 247 240 321 110 261 158 l 104 232 b 428 -17 115 93 229 -17 z "},"ś":{"ha":833,"x_min":0,"x_max":0,"o":"m 357 831 l 476 831 l 601 1017 l 446 1017 z m 428 -17 b 729 197 607 -17 729 64 b 444 417 729 319 668 378 b 267 529 311 442 267 463 b 410 629 267 585 310 629 b 575 507 503 629 560 578 l 718 515 b 410 756 697 643 606 756 b 122 529 221 756 122 658 b 408 301 122 404 190 342 b 586 196 556 275 586 251 b 429 110 586 138 529 110 b 247 240 321 110 261 158 l 104 232 b 428 -17 115 93 229 -17 z "},"š":{"ha":833,"x_min":0,"x_max":0,"o":"m 217 1021 l 347 828 l 492 828 l 622 1021 l 511 1021 l 419 897 l 328 1021 z m 428 -17 b 729 197 607 -17 729 64 b 444 417 729 319 668 378 b 267 529 311 442 267 463 b 410 629 267 585 310 629 b 575 507 503 629 560 578 l 718 515 b 410 756 697 643 606 756 b 122 529 221 756 122 658 b 408 301 122 404 190 342 b 586 196 556 275 586 251 b 429 110 586 138 529 110 b 247 240 321 110 261 158 l 104 232 b 428 -17 115 93 229 -17 z "},"ş":{"ha":833,"x_min":0,"x_max":0,"o":"m 408 -311 b 571 -175 501 -311 571 -260 b 438 -47 571 -104 528 -53 l 460 -15 b 729 197 622 -7 729 71 b 444 417 729 319 668 378 b 267 529 311 442 267 463 b 410 629 267 585 310 629 b 575 507 503 629 560 578 l 718 515 b 410 756 697 643 606 756 b 122 529 221 756 122 658 b 408 301 122 404 190 342 b 586 196 556 275 586 251 b 429 110 586 138 529 110 b 247 240 321 110 261 158 l 104 232 b 365 -12 114 108 206 8 l 332 -67 l 376 -112 b 478 -172 461 -112 478 -137 b 406 -225 478 -206 450 -225 b 318 -169 360 -225 335 -208 l 240 -200 b 408 -311 261 -264 318 -311 z "},"ŝ":{"ha":833,"x_min":0,"x_max":0,"o":"m 215 828 l 326 828 l 418 951 l 511 828 l 621 828 l 490 1021 l 347 1021 z m 428 -17 b 729 197 607 -17 729 64 b 444 417 729 319 668 378 b 267 529 311 442 267 463 b 410 629 267 585 310 629 b 575 507 503 629 560 578 l 718 515 b 410 756 697 643 606 756 b 122 529 221 756 122 658 b 408 301 122 404 190 342 b 586 196 556 275 586 251 b 429 110 586 138 529 110 b 247 240 321 110 261 158 l 104 232 b 428 -17 115 93 229 -17 z "},"ș":{"ha":833,"x_min":0,"x_max":0,"o":"m 428 -17 b 729 197 607 -17 729 64 b 444 417 729 319 668 378 b 267 529 311 442 267 463 b 410 629 267 585 310 629 b 575 507 503 629 560 578 l 718 515 b 410 756 697 643 606 756 b 122 529 221 756 122 658 b 408 301 122 404 190 342 b 586 196 556 275 586 251 b 429 110 586 138 529 110 b 247 240 321 110 261 158 l 104 232 b 428 -17 115 93 229 -17 z m 317 -339 l 403 -339 l 496 -200 l 496 -72 l 343 -72 l 343 -208 l 394 -208 z "},"ß":{"ha":833,"x_min":0,"x_max":0,"o":"m 97 0 l 238 0 l 238 682 b 408 867 238 799 304 867 b 564 732 513 867 564 813 b 400 586 564 642 504 586 l 340 586 l 340 456 l 403 456 b 622 290 547 456 622 397 b 415 132 622 182 547 132 l 326 132 l 326 0 l 415 0 b 767 278 639 0 767 104 b 558 531 767 406 685 500 b 708 740 651 561 708 639 b 411 1000 708 897 599 1000 b 97 679 218 1000 97 876 z "},"t":{"ha":833,"x_min":0,"x_max":0,"o":"m 522 0 l 728 0 l 728 118 l 538 118 b 440 219 472 118 440 150 l 440 621 l 728 621 l 728 739 l 440 739 l 440 913 l 300 913 l 300 739 l 67 739 l 67 621 l 300 621 l 300 213 b 522 0 300 68 372 0 z "},"ŧ":{"ha":833,"x_min":0,"x_max":0,"o":"m 140 347 l 300 347 l 300 213 b 522 0 300 68 372 0 l 728 0 l 728 118 l 538 118 b 440 219 472 118 440 150 l 440 347 l 661 347 l 661 451 l 440 451 l 440 621 l 728 621 l 728 739 l 440 739 l 440 913 l 300 913 l 300 739 l 67 739 l 67 621 l 300 621 l 300 451 l 140 451 z "},"ť":{"ha":833,"x_min":0,"x_max":0,"o":"m 526 794 l 626 794 l 701 1147 l 568 1147 z m 522 0 l 728 0 l 728 118 l 538 118 b 440 219 472 118 440 150 l 440 621 l 728 621 l 728 739 l 440 739 l 440 913 l 300 913 l 300 739 l 67 739 l 67 621 l 300 621 l 300 213 b 522 0 300 68 372 0 z "},"ţ":{"ha":833,"x_min":0,"x_max":0,"o":"m 483 -311 b 646 -175 576 -311 646 -260 b 513 -47 646 -104 603 -53 l 546 0 l 728 0 l 728 118 l 538 118 b 440 219 472 118 440 150 l 440 621 l 728 621 l 728 739 l 440 739 l 440 913 l 300 913 l 300 739 l 67 739 l 67 621 l 300 621 l 300 213 b 453 6 300 93 349 25 l 407 -67 l 451 -112 b 553 -172 536 -112 553 -137 b 481 -225 553 -206 525 -225 b 393 -169 435 -225 410 -208 l 315 -200 b 483 -311 336 -264 393 -311 z "},"ț":{"ha":833,"x_min":0,"x_max":0,"o":"m 522 0 l 728 0 l 728 118 l 538 118 b 440 219 472 118 440 150 l 440 621 l 728 621 l 728 739 l 440 739 l 440 913 l 300 913 l 300 739 l 67 739 l 67 621 l 300 621 l 300 213 b 522 0 300 68 372 0 z m 392 -339 l 478 -339 l 571 -200 l 571 -72 l 418 -72 l 418 -208 l 469 -208 z "},"u":{"ha":833,"x_min":0,"x_max":0,"o":"m 353 -17 b 576 124 460 -17 538 33 l 576 0 l 708 0 l 708 739 l 568 739 l 568 303 b 399 106 568 178 501 106 b 258 297 304 106 258 164 l 258 739 l 118 739 l 118 261 b 353 -17 118 85 210 -17 z "},"ú":{"ha":833,"x_min":0,"x_max":0,"o":"m 344 831 l 464 831 l 589 1017 l 435 1017 z m 353 -17 b 576 124 460 -17 538 33 l 576 0 l 708 0 l 708 739 l 568 739 l 568 303 b 399 106 568 178 501 106 b 258 297 304 106 258 164 l 258 739 l 118 739 l 118 261 b 353 -17 118 85 210 -17 z "},"ŭ":{"ha":833,"x_min":0,"x_max":0,"o":"m 408 832 b 608 1019 525 832 603 906 l 517 1019 b 408 928 508 954 468 928 b 300 1019 349 928 307 954 l 208 1019 b 408 832 214 906 292 832 z m 353 -17 b 576 124 460 -17 538 33 l 576 0 l 708 0 l 708 739 l 568 739 l 568 303 b 399 106 568 178 501 106 b 258 297 304 106 258 164 l 258 739 l 118 739 l 118 261 b 353 -17 118 85 210 -17 z "},"û":{"ha":833,"x_min":0,"x_max":0,"o":"m 204 828 l 315 828 l 407 951 l 499 828 l 610 828 l 479 1021 l 335 1021 z m 353 -17 b 576 124 460 -17 538 33 l 576 0 l 708 0 l 708 739 l 568 739 l 568 303 b 399 106 568 178 501 106 b 258 297 304 106 258 164 l 258 739 l 118 739 l 118 261 b 353 -17 118 85 210 -17 z "},"ü":{"ha":833,"x_min":0,"x_max":0,"o":"m 199 844 l 344 844 l 344 990 l 199 990 z m 472 844 l 617 844 l 617 990 l 472 990 z m 353 -17 b 576 124 460 -17 538 33 l 576 0 l 708 0 l 708 739 l 568 739 l 568 303 b 399 106 568 178 501 106 b 258 297 304 106 258 164 l 258 739 l 118 739 l 118 261 b 353 -17 118 85 210 -17 z "},"ù":{"ha":833,"x_min":0,"x_max":0,"o":"m 356 831 l 475 831 l 385 1017 l 231 1017 z m 353 -17 b 576 124 460 -17 538 33 l 576 0 l 708 0 l 708 739 l 568 739 l 568 303 b 399 106 568 178 501 106 b 258 297 304 106 258 164 l 258 739 l 118 739 l 118 261 b 353 -17 118 85 210 -17 z "},"ű":{"ha":833,"x_min":0,"x_max":0,"o":"m 236 828 l 356 828 l 481 1014 l 326 1014 z m 447 828 l 567 828 l 692 1014 l 538 1014 z m 353 -17 b 576 124 460 -17 538 33 l 576 0 l 708 0 l 708 739 l 568 739 l 568 303 b 399 106 568 178 501 106 b 258 297 304 106 258 164 l 258 739 l 118 739 l 118 261 b 353 -17 118 85 210 -17 z "},"ū":{"ha":833,"x_min":0,"x_max":0,"o":"m 217 861 l 597 861 l 597 974 l 217 974 z m 353 -17 b 576 124 460 -17 538 33 l 576 0 l 708 0 l 708 739 l 568 739 l 568 303 b 399 106 568 178 501 106 b 258 297 304 106 258 164 l 258 739 l 118 739 l 118 261 b 353 -17 118 85 210 -17 z "},"ų":{"ha":833,"x_min":0,"x_max":0,"o":"m 353 -17 b 576 124 460 -17 538 33 l 576 0 l 586 0 l 553 -40 b 496 -181 515 -89 496 -132 b 628 -294 496 -251 546 -294 b 757 -257 683 -294 733 -279 l 722 -171 b 660 -190 707 -183 679 -190 b 619 -151 635 -190 619 -178 b 661 -61 619 -129 626 -107 l 708 0 l 708 739 l 568 739 l 568 303 b 399 106 568 178 501 106 b 258 297 304 106 258 164 l 258 739 l 118 739 l 118 261 b 353 -17 118 85 210 -17 z "},"ů":{"ha":833,"x_min":0,"x_max":0,"o":"m 408 800 b 542 932 483 800 542 857 b 408 1064 542 1007 483 1064 b 275 932 332 1064 275 1007 b 408 800 275 857 332 800 z m 408 874 b 350 932 375 874 350 899 b 408 989 350 965 375 989 b 465 932 442 989 465 965 b 408 874 465 899 442 874 z m 353 -17 b 576 124 460 -17 538 33 l 576 0 l 708 0 l 708 739 l 568 739 l 568 303 b 399 106 568 178 501 106 b 258 297 304 106 258 164 l 258 739 l 118 739 l 118 261 b 353 -17 118 85 210 -17 z "},"ũ":{"ha":833,"x_min":0,"x_max":0,"o":"m 492 843 b 631 1019 575 843 626 904 l 551 1019 b 496 931 546 953 528 931 b 429 963 475 931 457 940 b 321 1006 396 989 365 1006 b 185 833 243 1006 188 950 l 265 833 b 324 918 268 897 292 918 b 393 885 349 918 363 908 b 492 843 424 860 454 843 z m 353 -17 b 576 124 460 -17 538 33 l 576 0 l 708 0 l 708 739 l 568 739 l 568 303 b 399 106 568 178 501 106 b 258 297 304 106 258 164 l 258 739 l 118 739 l 118 261 b 353 -17 118 85 210 -17 z "},"v":{"ha":833,"x_min":0,"x_max":0,"o":"m 329 0 l 504 0 l 771 739 l 619 739 l 417 149 l 214 739 l 63 739 z "},"w":{"ha":833,"x_min":0,"x_max":0,"o":"m 168 0 l 325 0 l 417 432 l 508 0 l 667 0 l 808 739 l 661 739 l 574 168 l 476 635 l 357 635 l 260 168 l 172 739 l 25 739 z "},"ẃ":{"ha":833,"x_min":0,"x_max":0,"o":"m 354 831 l 474 831 l 599 1017 l 443 1017 z m 168 0 l 325 0 l 417 432 l 508 0 l 667 0 l 808 739 l 661 739 l 574 168 l 476 635 l 357 635 l 260 168 l 172 739 l 25 739 z "},"ŵ":{"ha":833,"x_min":0,"x_max":0,"o":"m 213 828 l 324 828 l 415 951 l 508 828 l 618 828 l 488 1021 l 344 1021 z m 168 0 l 325 0 l 417 432 l 508 0 l 667 0 l 808 739 l 661 739 l 574 168 l 476 635 l 357 635 l 260 168 l 172 739 l 25 739 z "},"ẅ":{"ha":833,"x_min":0,"x_max":0,"o":"m 208 844 l 353 844 l 353 990 l 208 990 z m 481 844 l 625 844 l 625 990 l 481 990 z m 168 0 l 325 0 l 417 432 l 508 0 l 667 0 l 808 739 l 661 739 l 574 168 l 476 635 l 357 635 l 260 168 l 172 739 l 25 739 z "},"ẁ":{"ha":833,"x_min":0,"x_max":0,"o":"m 364 831 l 483 831 l 393 1017 l 239 1017 z m 168 0 l 325 0 l 417 432 l 508 0 l 667 0 l 808 739 l 661 739 l 574 168 l 476 635 l 357 635 l 260 168 l 172 739 l 25 739 z "},"x":{"ha":833,"x_min":0,"x_max":0,"o":"m 65 0 l 226 0 l 418 283 l 608 0 l 768 0 l 501 376 l 756 739 l 594 739 l 418 475 l 238 739 l 79 739 l 335 379 z "},"y":{"ha":833,"x_min":0,"x_max":0,"o":"m 181 -208 l 285 -208 b 478 -83 389 -208 447 -171 l 772 739 l 622 739 l 426 157 l 217 739 l 65 739 l 335 25 l 382 25 l 357 -40 b 271 -90 343 -76 321 -90 l 181 -90 z "},"ý":{"ha":833,"x_min":0,"x_max":0,"o":"m 358 831 l 478 831 l 603 1017 l 449 1017 z m 181 -208 l 285 -208 b 478 -83 389 -208 447 -171 l 772 739 l 622 739 l 426 157 l 217 739 l 65 739 l 335 25 l 382 25 l 357 -40 b 271 -90 343 -76 321 -90 l 181 -90 z "},"ŷ":{"ha":833,"x_min":0,"x_max":0,"o":"m 217 828 l 328 828 l 419 951 l 513 828 l 622 828 l 492 1021 l 349 1021 z m 181 -208 l 285 -208 b 478 -83 389 -208 447 -171 l 772 739 l 622 739 l 426 157 l 217 739 l 65 739 l 335 25 l 382 25 l 357 -40 b 271 -90 343 -76 321 -90 l 181 -90 z "},"ÿ":{"ha":833,"x_min":0,"x_max":0,"o":"m 213 844 l 357 844 l 357 990 l 213 990 z m 485 844 l 631 844 l 631 990 l 485 990 z m 181 -208 l 285 -208 b 478 -83 389 -208 447 -171 l 772 739 l 622 739 l 426 157 l 217 739 l 65 739 l 335 25 l 382 25 l 357 -40 b 271 -90 343 -76 321 -90 l 181 -90 z "},"ỳ":{"ha":833,"x_min":0,"x_max":0,"o":"m 368 831 l 488 831 l 397 1017 l 243 1017 z m 181 -208 l 285 -208 b 478 -83 389 -208 447 -171 l 772 739 l 622 739 l 426 157 l 217 739 l 65 739 l 335 25 l 382 25 l 357 -40 b 271 -90 343 -76 321 -90 l 181 -90 z "},"ỹ":{"ha":833,"x_min":0,"x_max":0,"o":"m 506 843 b 644 1019 588 843 639 904 l 564 1019 b 508 931 560 953 542 931 b 442 963 488 931 469 940 b 333 1006 408 989 379 1006 b 199 833 256 1006 201 950 l 278 833 b 336 918 281 897 304 918 b 406 885 363 918 375 908 b 506 843 438 860 467 843 z m 181 -208 l 285 -208 b 478 -83 389 -208 447 -171 l 772 739 l 622 739 l 426 157 l 217 739 l 65 739 l 335 25 l 382 25 l 357 -40 b 271 -90 343 -76 321 -90 l 181 -90 z "},"z":{"ha":833,"x_min":0,"x_max":0,"o":"m 108 0 l 725 0 l 725 118 l 265 118 l 714 607 l 714 739 l 122 739 l 122 621 l 556 621 l 108 132 z "},"ź":{"ha":833,"x_min":0,"x_max":0,"o":"m 356 831 l 475 831 l 600 1017 l 446 1017 z m 108 0 l 725 0 l 725 118 l 265 118 l 714 607 l 714 739 l 122 739 l 122 621 l 556 621 l 108 132 z "},"ž":{"ha":833,"x_min":0,"x_max":0,"o":"m 215 1021 l 347 828 l 490 828 l 621 1021 l 511 1021 l 418 897 l 326 1021 z m 108 0 l 725 0 l 725 118 l 265 118 l 714 607 l 714 739 l 122 739 l 122 621 l 556 621 l 108 132 z "},"ż":{"ha":833,"x_min":0,"x_max":0,"o":"m 344 846 l 490 846 l 490 992 l 344 992 z m 108 0 l 725 0 l 725 118 l 265 118 l 714 607 l 714 739 l 122 739 l 122 621 l 556 621 l 108 132 z "},"ꞌ":{"ha":833,"x_min":0,"x_max":0,"o":"m 363 511 l 472 511 l 490 790 l 490 986 l 343 986 l 343 790 z "},"ª":{"ha":833,"x_min":0,"x_max":0,"o":"m 335 522 b 493 604 415 522 471 557 b 596 522 503 540 547 522 b 644 526 618 522 638 525 l 644 615 l 631 615 b 606 650 614 615 606 624 l 606 815 b 394 1008 606 940 535 1008 b 178 854 272 1008 194 956 l 310 849 b 394 915 318 892 346 915 b 475 825 444 915 475 885 l 324 794 b 169 647 225 774 169 732 b 335 522 169 568 235 522 z m 360 608 b 303 658 322 608 303 628 b 368 719 303 688 324 710 l 475 743 l 475 715 b 360 608 475 649 426 608 z "},"º":{"ha":833,"x_min":0,"x_max":0,"o":"m 417 522 b 658 765 564 522 658 617 b 417 1008 658 911 564 1008 b 175 765 268 1008 175 913 b 417 522 175 617 268 522 z m 417 619 b 306 765 344 619 306 674 b 417 911 306 854 344 911 b 528 765 486 911 528 857 b 417 619 528 672 486 619 z "},"А":{"ha":833,"x_min":0,"x_max":0,"o":"m 33 0 l 185 0 l 256 257 l 578 257 l 649 0 l 800 0 l 511 986 l 322 986 z m 417 835 l 540 392 l 293 392 z "},"Б":{"ha":833,"x_min":0,"x_max":0,"o":"m 108 0 l 414 0 b 756 307 619 0 756 117 b 414 613 756 496 619 613 l 254 613 l 254 857 l 728 857 l 728 986 l 108 986 z m 254 138 l 254 475 l 399 475 b 604 307 539 475 604 417 b 399 138 604 197 539 138 z "},"В":{"ha":833,"x_min":0,"x_max":0,"o":"m 115 0 l 435 0 b 775 274 649 0 775 100 b 550 508 775 401 696 490 b 733 718 665 529 733 611 b 401 986 733 888 619 986 l 115 986 z m 261 568 l 261 850 l 404 850 b 582 708 526 850 582 800 b 404 568 582 619 526 568 z m 261 136 l 261 433 l 436 433 b 624 281 558 433 624 376 b 436 136 624 190 563 136 z "},"Г":{"ha":833,"x_min":0,"x_max":0,"o":"m 135 0 l 271 0 l 271 857 l 768 857 l 768 986 l 135 986 z "},"Ѓ":{"ha":833,"x_min":0,"x_max":0,"o":"m 389 1078 l 508 1078 l 633 1264 l 478 1264 z m 135 0 l 271 0 l 271 857 l 768 857 l 768 986 l 135 986 z "},"Ґ":{"ha":833,"x_min":0,"x_max":0,"o":"m 135 0 l 271 0 l 271 857 l 782 857 l 782 1201 l 646 1201 l 646 986 l 135 986 z "},"Ғ":{"ha":833,"x_min":0,"x_max":0,"o":"m 135 0 l 271 0 l 271 390 l 601 390 l 601 521 l 271 521 l 271 857 l 768 857 l 768 986 l 135 986 l 135 521 l 26 521 l 26 390 l 135 390 z "},"Д":{"ha":833,"x_min":0,"x_max":0,"o":"m 17 -208 l 153 -208 l 153 0 l 671 0 l 671 -208 l 807 -208 l 807 129 l 688 129 l 688 986 l 257 986 l 185 313 b 63 129 171 189 133 129 l 17 129 z m 265 129 b 321 299 294 169 313 225 l 381 857 l 551 857 l 551 129 z "},"Е":{"ha":833,"x_min":0,"x_max":0,"o":"m 122 0 l 739 0 l 739 138 l 268 138 l 268 428 l 711 428 l 711 561 l 268 561 l 268 849 l 728 849 l 728 986 l 122 986 z "},"Ѐ":{"ha":833,"x_min":0,"x_max":0,"o":"m 386 1079 l 506 1079 l 415 1265 l 261 1265 z m 122 0 l 739 0 l 739 138 l 268 138 l 268 428 l 711 428 l 711 561 l 268 561 l 268 849 l 728 849 l 728 986 l 122 986 z "},"Ё":{"ha":833,"x_min":0,"x_max":0,"o":"m 231 1093 l 375 1093 l 375 1239 l 231 1239 z m 503 1093 l 647 1093 l 647 1239 l 503 1239 z m 122 0 l 739 0 l 739 138 l 268 138 l 268 428 l 711 428 l 711 561 l 268 561 l 268 849 l 728 849 l 728 986 l 122 986 z "},"Ж":{"ha":833,"x_min":0,"x_max":0,"o":"m 8 0 l 153 0 l 349 460 l 349 0 l 485 0 l 485 460 l 681 0 l 825 0 l 615 493 l 813 986 l 668 986 l 485 528 l 485 986 l 349 986 l 349 528 l 165 986 l 21 986 l 218 493 z "},"З":{"ha":833,"x_min":0,"x_max":0,"o":"m 419 -22 b 786 272 632 -22 786 100 b 572 533 786 397 711 494 b 753 750 690 567 753 640 b 419 1008 753 903 613 1008 b 78 765 238 1008 96 908 l 221 757 b 417 879 232 831 310 879 b 611 746 532 879 611 826 b 432 588 611 628 510 586 l 333 589 l 333 460 l 432 461 b 644 282 535 463 644 407 b 417 107 644 176 553 107 b 186 268 290 107 194 169 l 44 260 b 419 -22 53 90 213 -22 z "},"И":{"ha":833,"x_min":0,"x_max":0,"o":"m 739 0 l 739 986 l 561 986 l 238 207 l 238 986 l 94 986 l 94 0 l 272 0 l 596 779 l 596 0 z "},"Й":{"ha":833,"x_min":0,"x_max":0,"o":"m 417 1079 b 617 1267 533 1079 611 1153 l 525 1267 b 417 1175 517 1201 476 1175 b 308 1267 357 1175 317 1201 l 217 1267 b 417 1079 222 1153 300 1079 z m 739 0 l 739 986 l 561 986 l 238 207 l 238 986 l 94 986 l 94 0 l 272 0 l 596 779 l 596 0 z "},"Ѝ":{"ha":833,"x_min":0,"x_max":0,"o":"m 364 1078 l 483 1078 l 393 1264 l 239 1264 z m 739 0 l 739 986 l 561 986 l 238 207 l 238 986 l 94 986 l 94 0 l 272 0 l 596 779 l 596 0 z "},"К":{"ha":833,"x_min":0,"x_max":0,"o":"m 75 0 l 211 0 l 211 482 l 617 0 l 790 0 l 372 493 l 776 986 l 604 986 l 211 506 l 211 986 l 75 986 z "},"Ќ":{"ha":833,"x_min":0,"x_max":0,"o":"m 347 1078 l 467 1078 l 592 1264 l 438 1264 z m 75 0 l 211 0 l 211 482 l 617 0 l 790 0 l 372 493 l 776 986 l 604 986 l 211 506 l 211 986 l 75 986 z "},"Л":{"ha":833,"x_min":0,"x_max":0,"o":"m 26 0 l 122 0 b 322 217 250 0 311 85 l 376 858 l 628 858 l 628 0 l 764 0 l 764 986 l 250 986 l 186 238 b 103 138 181 176 154 138 l 26 138 z "},"М":{"ha":833,"x_min":0,"x_max":0,"o":"m 361 119 l 472 119 l 626 761 l 626 0 l 767 0 l 767 986 l 572 986 l 417 349 l 261 986 l 67 986 l 67 0 l 207 0 l 207 761 z "},"Н":{"ha":833,"x_min":0,"x_max":0,"o":"m 78 0 l 224 0 l 224 428 l 610 428 l 610 0 l 756 0 l 756 986 l 610 986 l 610 564 l 224 564 l 224 986 l 78 986 z "},"О":{"ha":833,"x_min":0,"x_max":0,"o":"m 417 -22 b 783 492 651 -22 783 163 b 417 1008 783 824 651 1008 b 50 492 182 1008 50 824 b 417 -22 50 163 182 -22 z m 417 114 b 201 492 278 114 201 242 b 417 872 201 742 278 872 b 632 492 556 872 632 742 b 417 114 632 242 556 114 z "},"П":{"ha":833,"x_min":0,"x_max":0,"o":"m 90 0 l 226 0 l 226 857 l 607 857 l 607 0 l 743 0 l 743 986 l 90 986 z "},"Р":{"ha":833,"x_min":0,"x_max":0,"o":"m 119 0 l 265 0 l 265 374 l 425 374 b 767 679 631 374 767 490 b 425 986 767 869 631 986 l 119 986 z m 265 511 l 265 849 l 410 849 b 615 679 550 849 615 789 b 410 511 615 569 550 511 z "},"С":{"ha":833,"x_min":0,"x_max":0,"o":"m 421 -22 b 775 336 610 -22 740 111 l 624 343 b 421 114 599 193 522 114 b 201 492 278 114 201 250 b 421 872 201 735 278 872 b 617 663 514 872 589 800 l 769 671 b 421 1008 729 885 600 1008 b 50 492 183 1008 50 810 b 421 -22 50 175 183 -22 z "},"Т":{"ha":833,"x_min":0,"x_max":0,"o":"m 344 0 l 489 0 l 489 849 l 778 849 l 778 986 l 56 986 l 56 849 l 344 849 z "},"У":{"ha":833,"x_min":0,"x_max":0,"o":"m 188 0 l 292 0 b 468 122 382 0 439 39 l 776 986 l 628 986 l 425 400 l 214 986 l 64 986 l 331 272 l 381 272 l 349 182 b 274 129 333 143 311 129 l 188 129 z "},"Ў":{"ha":833,"x_min":0,"x_max":0,"o":"m 422 1079 b 622 1267 539 1079 617 1153 l 531 1267 b 422 1175 524 1201 482 1175 b 314 1267 363 1175 322 1201 l 222 1267 b 422 1079 228 1153 306 1079 z m 188 0 l 292 0 b 468 122 382 0 439 39 l 776 986 l 628 986 l 425 400 l 214 986 l 64 986 l 331 272 l 381 272 l 349 182 b 274 129 333 143 311 129 l 188 129 z "},"Ф":{"ha":833,"x_min":0,"x_max":0,"o":"m 347 0 l 483 0 l 483 106 b 800 493 681 132 800 276 b 483 881 800 710 681 854 l 483 986 l 347 986 l 347 881 b 33 493 153 853 33 710 b 347 106 33 276 153 133 z m 657 493 b 483 239 657 357 592 265 l 483 747 b 657 493 592 721 657 629 z m 176 493 b 347 747 176 628 240 719 l 347 239 b 176 493 240 267 176 358 z "},"Х":{"ha":833,"x_min":0,"x_max":0,"o":"m 63 0 l 224 0 l 415 385 l 606 0 l 771 0 l 511 494 l 767 986 l 604 986 l 418 607 l 232 986 l 67 986 l 322 496 z "},"Ц":{"ha":833,"x_min":0,"x_max":0,"o":"m 678 -208 l 814 -208 l 814 129 l 725 129 l 725 986 l 589 986 l 589 129 l 207 129 l 207 986 l 71 986 l 71 0 l 678 0 z "},"Ч":{"ha":833,"x_min":0,"x_max":0,"o":"m 600 0 l 736 0 l 736 986 l 600 986 l 600 663 b 361 461 600 543 499 461 b 206 661 272 461 206 538 l 206 986 l 69 986 l 69 644 b 351 331 69 451 185 331 b 600 461 461 331 556 382 z "},"Ш":{"ha":833,"x_min":0,"x_max":0,"o":"m 69 0 l 764 0 l 764 986 l 628 986 l 628 129 l 482 129 l 482 986 l 351 986 l 351 129 l 206 129 l 206 986 l 69 986 z "},"Щ":{"ha":833,"x_min":0,"x_max":0,"o":"m 44 0 l 678 0 l 678 -208 l 814 -208 l 814 129 l 733 129 l 733 986 l 597 986 l 597 129 l 453 129 l 453 986 l 324 986 l 324 129 l 179 129 l 179 986 l 44 986 z "},"Џ":{"ha":833,"x_min":0,"x_max":0,"o":"m 349 -208 l 485 -208 l 485 0 l 743 0 l 743 986 l 607 986 l 607 129 l 226 129 l 226 986 l 90 986 l 90 0 l 349 0 z "},"Ь":{"ha":833,"x_min":0,"x_max":0,"o":"m 119 986 l 119 0 l 425 0 b 767 307 631 0 767 117 b 425 613 767 496 631 613 l 265 613 l 265 986 z m 265 475 l 410 475 b 615 307 550 475 615 417 b 410 138 615 197 550 138 l 265 138 z "},"Ы":{"ha":833,"x_min":0,"x_max":0,"o":"m 43 0 l 238 0 b 579 304 456 0 579 111 b 238 613 579 500 456 613 l 181 613 l 181 986 l 43 986 z m 654 0 l 790 0 l 790 986 l 654 986 z m 181 129 l 181 483 l 238 483 b 436 304 371 483 436 422 b 238 129 436 189 371 129 z "},"Ъ":{"ha":833,"x_min":0,"x_max":0,"o":"m 38 857 l 143 857 l 143 0 l 450 0 b 790 307 654 0 790 117 b 450 613 790 496 654 613 l 289 613 l 289 986 l 38 986 z m 289 475 l 433 475 b 639 307 574 475 639 417 b 433 138 639 197 574 138 l 289 138 z "},"Љ":{"ha":833,"x_min":0,"x_max":0,"o":"m 6 0 l 58 0 b 258 217 186 0 253 85 l 282 858 l 383 858 l 383 0 l 557 0 b 828 304 732 0 828 113 b 557 613 828 499 732 613 l 521 613 l 519 986 l 154 986 l 122 238 b 39 138 119 176 89 138 l 6 138 z m 521 129 l 521 483 l 544 483 b 678 304 638 483 678 424 b 544 129 678 188 638 129 z "},"Њ":{"ha":833,"x_min":0,"x_max":0,"o":"m 25 0 l 158 0 l 158 483 l 311 483 l 311 0 l 494 0 b 808 304 707 0 808 113 b 494 613 808 499 707 613 l 446 613 l 446 986 l 311 986 l 311 613 l 158 613 l 158 986 l 25 986 z m 446 129 l 446 483 l 479 483 b 657 304 614 483 657 424 b 479 129 657 188 614 129 z "},"Ѕ":{"ha":833,"x_min":0,"x_max":0,"o":"m 429 -22 b 774 250 636 -22 774 88 b 456 563 774 411 692 499 b 232 729 281 611 232 643 b 410 872 232 815 301 872 b 607 681 528 872 592 794 l 757 689 b 414 1008 738 879 619 1008 b 82 722 207 1008 82 892 b 369 446 82 569 167 501 b 624 250 576 388 624 338 b 435 114 624 163 556 114 b 210 331 310 114 229 189 l 60 321 b 429 -22 76 114 215 -22 z "},"Є":{"ha":833,"x_min":0,"x_max":0,"o":"m 417 -22 b 774 346 614 -22 739 111 l 629 346 b 417 107 603 192 529 107 b 194 426 286 107 208 221 l 475 426 l 475 557 l 194 557 b 417 879 208 764 286 879 b 629 639 529 879 603 793 l 774 639 b 417 1008 738 875 614 1008 b 50 492 182 1008 50 819 b 417 -22 50 167 182 -22 z "},"Э":{"ha":833,"x_min":0,"x_max":0,"o":"m 417 -22 b 783 492 651 -22 783 167 b 417 1008 783 819 651 1008 b 60 639 219 1008 96 875 l 204 639 b 417 879 231 793 304 879 b 639 557 547 879 625 764 l 358 557 l 358 426 l 639 426 b 417 107 625 221 547 107 b 204 346 304 107 231 192 l 60 346 b 417 -22 94 111 219 -22 z "},"І":{"ha":833,"x_min":0,"x_max":0,"o":"m 108 0 l 725 0 l 725 138 l 489 138 l 489 849 l 725 849 l 725 986 l 108 986 l 108 849 l 344 849 l 344 138 l 108 138 z "},"Ї":{"ha":833,"x_min":0,"x_max":0,"o":"m 208 1092 l 353 1092 l 353 1238 l 208 1238 z m 481 1092 l 625 1092 l 625 1238 l 481 1238 z m 108 0 l 725 0 l 725 138 l 489 138 l 489 849 l 725 849 l 725 986 l 108 986 l 108 849 l 344 849 l 344 138 l 108 138 z "},"Ј":{"ha":833,"x_min":0,"x_max":0,"o":"m 382 -22 b 711 335 588 -22 711 113 l 711 986 l 565 986 l 565 335 b 383 114 565 186 506 114 b 197 340 260 114 201 186 l 53 329 b 382 -22 58 113 183 -22 z "},"Ћ":{"ha":833,"x_min":0,"x_max":0,"o":"m 164 0 l 300 0 l 300 324 b 489 525 300 443 379 525 b 656 325 586 525 656 444 l 656 0 l 792 0 l 792 342 b 510 656 792 535 676 656 b 300 533 418 656 339 607 l 300 857 l 503 857 l 503 986 l 7 986 l 7 857 l 164 857 z "},"Ю":{"ha":833,"x_min":0,"x_max":0,"o":"m 26 0 l 163 0 l 163 428 l 272 428 b 538 -22 282 117 364 -22 b 807 492 725 -22 807 135 b 538 1008 807 851 725 1008 b 272 558 364 1008 282 871 l 163 558 l 163 986 l 26 986 z m 538 107 b 413 492 447 107 413 215 b 538 879 413 769 447 879 b 667 492 631 879 667 769 b 538 107 667 215 631 107 z "},"Я":{"ha":833,"x_min":0,"x_max":0,"o":"m 739 0 l 739 986 l 424 986 b 86 685 213 986 86 876 b 286 414 86 544 161 460 l 57 0 l 217 0 l 418 385 l 593 385 l 593 0 z m 593 521 l 425 521 b 238 685 294 521 238 578 b 425 849 238 790 296 849 l 593 849 z "},"Ђ":{"ha":833,"x_min":0,"x_max":0,"o":"m 164 0 l 300 0 l 300 321 b 493 525 300 442 379 525 b 676 332 606 525 676 451 b 431 129 676 208 585 129 l 431 0 b 819 333 669 0 819 128 b 504 656 819 525 690 656 b 300 535 413 656 338 610 l 300 857 l 503 857 l 503 986 l 7 986 l 7 857 l 164 857 z "},"Ѣ":{"ha":833,"x_min":0,"x_max":0,"o":"m 22 735 l 151 735 l 151 0 l 458 0 b 799 307 663 0 799 117 b 458 613 799 496 663 613 l 297 613 l 297 735 l 517 735 l 517 857 l 297 857 l 297 986 l 151 986 l 151 857 l 22 857 z m 297 475 l 442 475 b 649 307 582 475 649 417 b 442 138 649 197 582 138 l 297 138 z "},"Ѫ":{"ha":833,"x_min":0,"x_max":0,"o":"m 1 0 l 144 0 l 251 325 b 329 408 271 389 293 408 l 349 408 l 349 0 l 485 0 l 485 408 l 504 408 b 581 325 539 408 560 389 l 689 0 l 832 0 l 700 388 b 564 538 668 483 622 529 l 746 857 l 746 986 l 88 986 l 88 857 l 269 538 b 132 388 211 531 164 483 z m 244 857 l 589 857 l 417 554 z "},"Ѳ":{"ha":833,"x_min":0,"x_max":0,"o":"m 417 -22 b 783 492 651 -22 783 163 b 417 1008 783 824 651 1008 b 50 492 182 1008 50 824 b 417 -22 50 163 182 -22 z m 393 575 b 207 604 336 597 263 610 b 417 872 228 781 300 872 b 632 518 550 872 626 751 b 393 575 574 510 543 517 z m 417 114 b 201 468 282 114 206 233 b 215 471 206 469 211 471 b 401 440 265 476 336 464 b 626 382 531 392 579 381 b 417 114 607 204 533 114 z "},"Ѵ":{"ha":833,"x_min":0,"x_max":0,"o":"m 324 0 l 467 0 l 693 733 b 808 857 721 825 751 857 l 826 857 l 826 986 l 765 986 b 568 796 676 986 603 915 l 394 219 l 163 986 l 18 986 z "},"Җ":{"ha":833,"x_min":0,"x_max":0,"o":"m 8 0 l 146 0 l 333 460 l 333 0 l 464 0 l 464 460 l 650 0 l 688 0 l 688 -208 l 822 -208 l 822 108 l 744 108 l 588 493 l 778 986 l 639 986 l 464 528 l 464 986 l 333 986 l 333 528 l 157 986 l 19 986 l 208 493 z "},"Қ":{"ha":833,"x_min":0,"x_max":0,"o":"m 58 0 l 194 0 l 194 482 l 600 0 l 664 0 l 664 -208 l 800 -208 l 800 108 l 681 108 l 356 493 l 760 986 l 588 986 l 194 506 l 194 986 l 58 986 z "},"Ң":{"ha":833,"x_min":0,"x_max":0,"o":"m 54 0 l 200 0 l 200 428 l 588 428 l 588 0 l 679 0 l 679 -208 l 815 -208 l 815 108 l 732 108 l 732 986 l 588 986 l 588 564 l 200 564 l 200 986 l 54 986 z "},"Ү":{"ha":833,"x_min":0,"x_max":0,"o":"m 344 0 l 490 0 l 490 406 l 782 986 l 621 986 l 417 556 l 213 986 l 51 986 l 344 406 z "},"Ұ":{"ha":833,"x_min":0,"x_max":0,"o":"m 113 306 l 343 306 l 343 0 l 489 0 l 489 306 l 718 306 l 718 435 l 504 435 l 781 986 l 619 986 l 415 556 l 211 986 l 50 986 l 329 435 l 113 435 z "},"Ҳ":{"ha":833,"x_min":0,"x_max":0,"o":"m 60 0 l 221 0 l 413 385 l 603 0 l 672 0 l 672 -208 l 808 -208 l 808 108 l 711 108 l 508 494 l 764 986 l 601 986 l 415 607 l 229 986 l 64 986 l 319 496 z "},"Ҷ":{"ha":833,"x_min":0,"x_max":0,"o":"m 578 0 l 676 0 l 676 -208 l 813 -208 l 813 108 l 714 108 l 714 986 l 578 986 l 578 663 b 339 461 578 543 476 461 b 183 661 250 461 183 538 l 183 986 l 47 986 l 47 644 b 329 331 47 451 163 331 b 578 461 439 331 533 382 z "},"Һ":{"ha":833,"x_min":0,"x_max":0,"o":"m 233 986 l 97 986 l 97 0 l 233 0 l 233 324 b 472 525 233 443 335 525 b 628 325 561 525 628 449 l 628 0 l 764 0 l 764 342 b 482 656 764 535 649 656 b 233 525 372 656 278 604 z "},"Ӏ":{"ha":833,"x_min":0,"x_max":0,"o":"m 108 0 l 725 0 l 725 138 l 489 138 l 489 849 l 725 849 l 725 986 l 108 986 l 108 849 l 344 849 l 344 138 l 108 138 z "},"Ә":{"ha":833,"x_min":0,"x_max":0,"o":"m 426 -22 b 794 493 643 -22 794 175 b 413 1008 794 822 654 1008 b 67 693 244 1008 121 889 l 222 678 b 418 872 250 794 314 872 b 643 549 560 872 643 738 l 50 549 l 50 475 b 426 -22 50 175 188 -22 z m 426 114 b 206 415 290 114 206 225 l 642 415 b 426 114 642 228 558 114 z "},"Ӣ":{"ha":833,"x_min":0,"x_max":0,"o":"m 225 1108 l 606 1108 l 606 1221 l 225 1221 z m 739 0 l 739 986 l 561 986 l 238 207 l 238 986 l 94 986 l 94 0 l 272 0 l 596 779 l 596 0 z "},"Ө":{"ha":833,"x_min":0,"x_max":0,"o":"m 417 -22 b 783 492 651 -22 783 163 b 417 1008 783 824 651 1008 b 50 492 182 1008 50 824 b 417 -22 50 163 182 -22 z m 417 872 b 631 554 543 872 618 764 l 203 554 b 417 872 215 764 290 872 z m 417 114 b 203 425 292 114 217 218 l 631 425 b 417 114 617 218 542 114 z "},"Ӯ":{"ha":833,"x_min":0,"x_max":0,"o":"m 231 1108 l 613 1108 l 613 1221 l 231 1221 z m 188 0 l 292 0 b 468 122 382 0 439 39 l 776 986 l 628 986 l 425 400 l 214 986 l 64 986 l 331 272 l 381 272 l 349 182 b 274 129 333 143 311 129 l 188 129 z "},"а":{"ha":833,"x_min":0,"x_max":0,"o":"m 317 -17 b 551 106 424 -17 514 33 b 703 -4 568 31 618 -4 b 767 0 728 -4 756 -1 l 767 115 l 725 115 b 682 161 696 115 682 126 l 682 453 b 392 756 682 642 581 756 b 83 519 222 756 111 661 l 231 510 b 392 631 250 586 299 631 b 542 458 492 631 542 572 l 303 408 b 71 186 147 378 71 311 b 317 -17 71 64 178 -17 z m 338 99 b 217 197 261 99 217 135 b 336 306 217 256 247 288 l 542 347 l 542 290 b 338 99 542 175 472 99 z "},"б":{"ha":833,"x_min":0,"x_max":0,"o":"m 418 -22 b 757 329 613 -22 757 113 b 438 675 757 535 625 675 b 217 550 339 675 264 631 b 411 808 231 719 311 756 b 568 1061 528 869 568 943 l 435 1060 b 317 907 435 981 407 949 b 76 436 151 829 76 699 b 179 90 76 286 111 161 b 418 -22 250 11 328 -22 z m 417 101 b 221 329 299 101 218 194 b 422 551 222 461 304 551 b 618 329 538 551 618 461 b 417 101 618 194 536 101 z "},"в":{"ha":833,"x_min":0,"x_max":0,"o":"m 126 0 l 456 0 b 736 210 631 0 736 79 b 543 382 736 307 664 371 b 706 533 644 393 706 449 b 424 739 706 661 599 739 l 126 739 z m 258 431 l 258 622 l 426 622 b 565 528 513 622 565 588 b 426 431 565 468 513 431 z m 258 117 l 258 321 l 464 321 b 596 215 546 321 596 281 b 464 117 596 156 546 117 z "},"г":{"ha":833,"x_min":0,"x_max":0,"o":"m 200 0 l 335 0 l 335 622 l 725 622 l 725 739 l 200 739 z "},"ѓ":{"ha":833,"x_min":0,"x_max":0,"o":"m 400 831 l 519 831 l 644 1017 l 490 1017 z m 200 0 l 335 0 l 335 622 l 725 622 l 725 739 l 200 739 z "},"ґ":{"ha":833,"x_min":0,"x_max":0,"o":"m 200 0 l 335 0 l 335 622 l 725 622 l 725 954 l 588 954 l 588 739 l 200 739 z "},"ғ":{"ha":833,"x_min":0,"x_max":0,"o":"m 200 0 l 335 0 l 335 310 l 489 310 l 489 426 l 335 426 l 335 622 l 725 622 l 725 739 l 200 739 l 200 426 l 56 426 l 56 310 l 200 310 z "},"д":{"ha":833,"x_min":0,"x_max":0,"o":"m 26 -210 l 158 -210 l 161 0 l 675 0 l 675 -210 l 807 -210 l 807 117 l 689 117 l 689 739 l 256 739 l 190 253 b 88 117 178 161 146 117 l 26 117 z m 321 243 l 374 622 l 557 622 l 557 117 l 276 117 b 321 243 299 150 314 192 z "},"е":{"ha":833,"x_min":0,"x_max":0,"o":"m 426 -17 b 743 215 586 -17 700 75 l 596 225 b 428 113 574 157 515 113 b 231 328 313 113 239 186 l 756 328 l 756 367 b 422 756 756 611 618 756 b 83 369 217 756 83 603 b 426 -17 83 135 218 -17 z m 231 440 b 422 626 249 563 318 626 b 604 440 521 626 593 567 z "},"ѐ":{"ha":833,"x_min":0,"x_max":0,"o":"m 371 828 l 490 828 l 400 1015 l 246 1015 z m 426 -17 b 743 215 586 -17 700 75 l 596 225 b 428 113 574 157 515 113 b 231 328 313 113 239 186 l 756 328 l 756 367 b 422 756 756 611 618 756 b 83 369 217 756 83 603 b 426 -17 83 135 218 -17 z m 231 440 b 422 626 249 563 318 626 b 604 440 521 626 593 567 z "},"ё":{"ha":833,"x_min":0,"x_max":0,"o":"m 214 843 l 360 843 l 360 988 l 214 988 z m 488 843 l 632 843 l 632 988 l 488 988 z m 426 -17 b 743 215 586 -17 700 75 l 596 225 b 428 113 574 157 515 113 b 231 328 313 113 239 186 l 756 328 l 756 367 b 422 756 756 611 618 756 b 83 369 217 756 83 603 b 426 -17 83 135 218 -17 z m 231 440 b 422 626 249 563 318 626 b 604 440 521 626 593 567 z "},"ж":{"ha":833,"x_min":0,"x_max":0,"o":"m 13 0 l 161 0 l 350 350 l 350 0 l 483 0 l 483 349 l 672 0 l 821 0 l 617 369 l 811 739 l 663 739 l 483 392 l 483 739 l 350 739 l 350 390 l 171 739 l 22 739 l 217 369 z "},"з":{"ha":833,"x_min":0,"x_max":0,"o":"m 415 -17 b 724 203 604 -17 724 68 b 550 397 724 296 657 367 b 699 549 643 422 699 478 b 415 756 699 676 589 756 b 129 560 253 756 143 681 l 272 553 b 414 635 278 601 332 635 b 560 544 503 635 560 600 b 424 447 560 485 506 446 l 351 449 l 351 332 l 424 333 b 585 214 521 335 585 289 b 415 107 585 147 518 107 b 243 219 314 107 249 151 l 104 214 b 415 -17 111 72 231 -17 z "},"и":{"ha":833,"x_min":0,"x_max":0,"o":"m 125 0 l 282 0 l 578 522 l 578 0 l 710 0 l 710 739 l 560 739 l 257 206 l 257 739 l 125 739 z "},"й":{"ha":833,"x_min":0,"x_max":0,"o":"m 418 832 b 618 1019 535 832 613 906 l 526 1019 b 418 928 518 954 478 928 b 310 1019 358 928 318 954 l 218 1019 b 418 832 224 906 301 832 z m 125 0 l 282 0 l 578 522 l 578 0 l 710 0 l 710 739 l 560 739 l 257 206 l 257 739 l 125 739 z "},"ѝ":{"ha":833,"x_min":0,"x_max":0,"o":"m 365 831 l 485 831 l 394 1017 l 240 1017 z m 125 0 l 282 0 l 578 522 l 578 0 l 710 0 l 710 739 l 560 739 l 257 206 l 257 739 l 125 739 z "},"к":{"ha":833,"x_min":0,"x_max":0,"o":"m 117 0 l 251 0 l 251 358 l 594 0 l 776 0 l 415 369 l 760 739 l 581 739 l 251 381 l 251 739 l 117 739 z "},"ќ":{"ha":833,"x_min":0,"x_max":0,"o":"m 351 831 l 471 831 l 596 1017 l 442 1017 z m 117 0 l 251 0 l 251 358 l 594 0 l 776 0 l 415 369 l 760 739 l 581 739 l 251 381 l 251 739 l 117 739 z "},"л":{"ha":833,"x_min":0,"x_max":0,"o":"m 35 0 l 122 0 b 307 206 233 0 293 71 l 350 622 l 608 622 l 608 0 l 740 0 l 740 739 l 231 739 l 175 228 b 94 128 168 163 142 128 l 35 128 z "},"м":{"ha":833,"x_min":0,"x_max":0,"o":"m 47 0 l 179 0 l 188 456 l 350 0 l 496 0 l 654 450 l 654 0 l 786 0 l 786 739 l 622 739 l 424 161 l 224 739 l 58 739 z "},"н":{"ha":833,"x_min":0,"x_max":0,"o":"m 117 0 l 251 0 l 251 310 l 582 310 l 582 0 l 717 0 l 717 739 l 582 739 l 582 426 l 251 426 l 251 739 l 117 739 z "},"о":{"ha":833,"x_min":0,"x_max":0,"o":"m 417 -17 b 758 369 622 -17 758 133 b 417 756 758 606 622 756 b 75 369 210 756 75 606 b 417 -17 75 133 210 -17 z m 417 113 b 222 369 292 113 222 208 b 417 626 222 531 292 626 b 611 369 540 626 611 531 b 417 113 611 208 540 113 z "},"п":{"ha":833,"x_min":0,"x_max":0,"o":"m 115 0 l 249 0 l 249 622 l 585 622 l 585 0 l 718 0 l 718 739 l 115 739 z "},"р":{"ha":833,"x_min":0,"x_max":0,"o":"m 100 -208 l 240 -208 l 240 99 b 460 -17 281 25 363 -17 b 769 369 672 -17 769 161 b 460 756 769 578 672 756 b 235 619 358 756 278 708 l 233 739 l 100 739 z m 433 113 b 240 369 315 113 240 199 b 433 626 240 540 317 626 b 622 369 551 626 622 535 b 433 113 622 204 551 113 z "},"с":{"ha":833,"x_min":0,"x_max":0,"o":"m 433 -17 b 756 261 603 -17 728 93 l 613 269 b 435 113 592 165 522 113 b 235 369 310 113 235 210 b 435 626 235 529 310 626 b 608 481 522 626 586 574 l 751 490 b 433 756 724 657 601 756 b 89 369 226 756 89 603 b 433 -17 89 136 226 -17 z "},"т":{"ha":833,"x_min":0,"x_max":0,"o":"m 350 0 l 485 0 l 485 619 l 744 619 l 744 739 l 90 739 l 90 619 l 350 619 z "},"у":{"ha":833,"x_min":0,"x_max":0,"o":"m 181 -208 l 285 -208 b 478 -83 389 -208 447 -171 l 772 739 l 622 739 l 426 157 l 217 739 l 65 739 l 335 25 l 382 25 l 357 -40 b 271 -90 343 -76 321 -90 l 181 -90 z "},"ў":{"ha":833,"x_min":0,"x_max":0,"o":"m 421 832 b 621 1019 538 832 615 906 l 529 1019 b 421 928 522 954 481 928 b 313 1019 361 928 321 954 l 221 1019 b 421 832 226 906 304 832 z m 181 -208 l 285 -208 b 478 -83 389 -208 447 -171 l 772 739 l 622 739 l 426 157 l 217 739 l 65 739 l 335 25 l 382 25 l 357 -40 b 271 -90 343 -76 321 -90 l 181 -90 z "},"ф":{"ha":833,"x_min":0,"x_max":0,"o":"m 350 -208 l 483 -208 l 483 38 b 806 374 679 61 806 190 b 483 710 806 557 679 686 l 483 986 l 350 986 l 350 711 b 28 374 154 688 28 558 b 350 36 28 189 154 60 z m 168 374 b 350 581 168 485 236 561 l 350 167 b 168 374 236 186 168 263 z m 664 374 b 483 167 664 264 597 188 l 483 581 b 664 374 597 560 664 483 z "},"х":{"ha":833,"x_min":0,"x_max":0,"o":"m 65 0 l 226 0 l 418 283 l 608 0 l 768 0 l 501 376 l 756 739 l 594 739 l 418 475 l 238 739 l 79 739 l 335 379 z "},"ц":{"ha":833,"x_min":0,"x_max":0,"o":"m 681 -208 l 813 -208 l 813 117 l 713 117 l 713 739 l 579 739 l 579 117 l 243 117 l 243 739 l 110 739 l 110 0 l 681 0 z "},"ч":{"ha":833,"x_min":0,"x_max":0,"o":"m 581 0 l 713 0 l 713 739 l 581 739 l 581 547 b 381 343 581 422 501 343 b 225 546 285 343 225 422 l 225 739 l 92 739 l 92 535 b 367 221 92 342 197 221 b 581 347 463 221 542 271 z "},"ш":{"ha":833,"x_min":0,"x_max":0,"o":"m 71 0 l 763 0 l 763 739 l 629 739 l 629 117 l 482 117 l 482 739 l 351 739 l 351 117 l 203 117 l 203 739 l 71 739 z "},"щ":{"ha":833,"x_min":0,"x_max":0,"o":"m 68 0 l 688 0 l 688 -210 l 819 -210 l 819 117 l 753 117 l 753 739 l 621 739 l 621 117 l 475 117 l 475 739 l 344 739 l 344 117 l 199 117 l 199 739 l 68 739 z "},"џ":{"ha":833,"x_min":0,"x_max":0,"o":"m 350 -208 l 483 -208 l 483 0 l 718 0 l 718 739 l 585 739 l 585 117 l 249 117 l 249 739 l 115 739 l 115 0 l 350 0 z "},"ь":{"ha":833,"x_min":0,"x_max":0,"o":"m 108 0 l 435 0 b 751 233 636 0 751 85 b 435 469 751 383 636 469 l 240 469 l 240 739 l 108 739 z m 240 118 l 240 353 l 428 353 b 611 235 550 353 611 314 b 428 118 611 156 550 118 z "},"ы":{"ha":833,"x_min":0,"x_max":0,"o":"m 44 0 l 272 0 b 589 233 476 0 589 82 b 272 469 589 386 478 469 l 176 469 l 176 739 l 44 739 z m 657 0 l 789 0 l 789 739 l 657 739 z m 176 118 l 176 353 l 267 353 b 450 235 390 353 450 314 b 267 118 450 156 390 118 z "},"ъ":{"ha":833,"x_min":0,"x_max":0,"o":"m 132 0 l 458 0 b 775 233 660 0 775 85 b 458 469 775 383 660 469 l 264 469 l 264 739 l 14 739 l 14 622 l 132 622 z m 264 118 l 264 353 l 453 353 b 636 235 574 353 636 314 b 453 118 636 156 574 118 z "},"љ":{"ha":833,"x_min":0,"x_max":0,"o":"m 6 0 l 44 0 b 229 206 154 0 215 69 l 269 622 l 372 622 l 372 0 l 574 0 b 829 233 738 0 829 83 b 574 469 829 385 738 469 l 506 469 l 506 739 l 149 739 l 97 228 b 17 128 90 161 63 128 l 6 128 z m 506 118 l 506 353 l 575 353 b 692 235 650 353 692 310 b 575 118 692 160 650 118 z "},"њ":{"ha":833,"x_min":0,"x_max":0,"o":"m 26 0 l 158 0 l 158 353 l 358 353 l 358 0 l 560 0 b 815 233 724 0 815 83 b 560 469 815 385 724 469 l 492 469 l 492 739 l 358 739 l 358 469 l 158 469 l 158 739 l 26 739 z m 492 118 l 492 353 l 561 353 b 678 235 636 353 678 310 b 561 118 678 160 636 118 z "},"ѕ":{"ha":833,"x_min":0,"x_max":0,"o":"m 428 -17 b 729 197 607 -17 729 64 b 444 417 729 319 668 378 b 267 529 311 442 267 463 b 410 629 267 585 310 629 b 575 507 503 629 560 578 l 718 515 b 410 756 697 643 606 756 b 122 529 221 756 122 658 b 408 301 122 404 190 342 b 586 196 556 275 586 251 b 429 110 586 138 529 110 b 247 240 321 110 261 158 l 104 232 b 428 -17 115 93 229 -17 z "},"є":{"ha":833,"x_min":0,"x_max":0,"o":"m 422 -17 b 750 258 590 -17 715 88 l 608 258 b 422 107 582 163 515 107 b 224 310 311 107 240 182 l 457 310 l 457 429 l 224 429 b 422 632 240 557 311 632 b 610 476 517 632 583 576 l 751 476 b 422 756 717 649 592 756 b 81 369 218 756 81 604 b 422 -17 81 135 218 -17 z "},"э":{"ha":833,"x_min":0,"x_max":0,"o":"m 411 -17 b 753 369 615 -17 753 135 b 411 756 753 604 615 756 b 82 476 242 756 117 649 l 224 476 b 411 632 250 576 317 632 b 610 429 522 632 593 557 l 376 429 l 376 310 l 610 310 b 411 107 593 182 522 107 b 225 258 318 107 251 163 l 83 258 b 411 -17 118 88 243 -17 z "},"і":{"ha":833,"x_min":0,"x_max":0,"o":"m 386 846 l 531 846 l 531 992 l 386 992 z m 106 0 l 783 0 l 783 118 l 536 118 l 536 739 l 119 739 l 119 621 l 394 621 l 394 118 l 106 118 z "},"ї":{"ha":833,"x_min":0,"x_max":0,"o":"m 250 844 l 396 844 l 396 990 l 250 990 z m 524 844 l 668 844 l 668 990 l 524 990 z m 106 0 l 783 0 l 783 118 l 536 118 l 536 739 l 119 739 l 119 621 l 394 621 l 394 118 l 106 118 z "},"ј":{"ha":833,"x_min":0,"x_max":0,"o":"m 478 846 l 624 846 l 624 992 l 478 992 z m 147 -208 l 388 -208 b 625 18 550 -208 625 -128 l 625 739 l 158 739 l 158 621 l 483 621 l 483 26 b 372 -90 483 -62 447 -90 l 147 -90 z "},"ћ":{"ha":833,"x_min":0,"x_max":0,"o":"m 129 0 l 269 0 l 269 436 b 446 633 269 564 340 633 b 586 440 539 633 586 574 l 586 0 l 726 0 l 726 476 b 488 756 726 642 644 756 b 269 626 388 756 308 715 l 269 806 l 479 806 l 479 908 l 269 908 l 269 986 l 129 986 l 129 908 l 46 908 l 46 806 l 129 806 z "},"ю":{"ha":833,"x_min":0,"x_max":0,"o":"m 25 0 l 157 0 l 157 311 l 238 311 b 517 -17 253 100 351 -17 b 797 369 697 -17 797 121 b 517 756 797 618 697 756 b 238 428 351 756 253 639 l 157 428 l 157 739 l 25 739 z m 517 107 b 374 369 424 107 374 200 b 517 632 374 539 424 632 b 660 369 608 632 660 539 b 517 107 660 200 608 107 z "},"я":{"ha":833,"x_min":0,"x_max":0,"o":"m 108 0 l 261 0 l 424 279 l 576 279 l 576 0 l 708 0 l 708 739 l 424 739 b 126 513 233 739 126 658 b 286 304 126 419 183 344 z m 421 396 b 267 510 322 396 267 438 b 421 624 267 582 322 624 l 576 624 l 576 396 z "},"ђ":{"ha":833,"x_min":0,"x_max":0,"o":"m 136 0 l 268 0 l 268 424 b 446 625 268 553 339 625 b 589 424 542 625 589 557 l 589 10 b 507 -92 589 -53 557 -92 l 453 -92 l 453 -210 l 529 -210 b 721 10 654 -210 721 -125 l 721 475 b 483 756 721 647 629 756 b 268 632 392 756 308 715 l 268 810 l 414 810 l 414 918 l 268 918 l 268 990 l 136 990 l 136 918 l 29 918 l 29 810 l 136 810 z "},"ѣ":{"ha":833,"x_min":0,"x_max":0,"o":"m 176 0 l 486 0 b 811 247 693 0 811 89 b 486 497 811 406 693 497 l 308 497 l 308 738 l 472 738 l 472 857 l 308 857 l 308 990 l 176 990 l 176 857 l 13 857 l 13 738 l 176 738 z m 308 118 l 308 381 l 489 381 b 672 247 606 381 672 332 b 489 118 672 164 606 118 z "},"ѫ":{"ha":833,"x_min":0,"x_max":0,"o":"m 18 0 l 167 0 l 242 235 b 328 294 257 283 285 294 l 349 294 l 349 0 l 483 0 l 483 294 l 504 294 b 592 235 549 294 575 283 l 667 0 l 814 0 l 708 290 b 568 401 686 356 629 393 l 775 622 l 775 739 l 60 739 l 60 622 l 267 401 b 125 290 206 393 147 356 z m 213 622 l 621 622 l 417 404 z "},"ѳ":{"ha":833,"x_min":0,"x_max":0,"o":"m 417 -17 b 758 369 622 -17 758 133 b 417 756 758 606 622 756 b 75 369 210 756 75 606 b 417 -17 75 133 210 -17 z m 388 436 b 231 463 338 458 278 467 b 417 626 254 567 318 626 b 611 386 536 626 607 538 b 583 381 603 383 593 381 b 388 436 533 376 513 379 z m 417 113 b 222 343 300 113 231 197 b 243 346 229 344 236 344 b 396 315 283 349 342 340 b 599 263 519 261 553 258 b 417 113 574 167 510 113 z "},"ѵ":{"ha":833,"x_min":0,"x_max":0,"o":"m 318 0 l 475 0 l 664 518 b 793 619 689 585 732 619 l 807 619 l 807 739 l 776 739 b 538 558 661 739 576 674 l 396 151 l 192 739 l 50 739 z "},"җ":{"ha":833,"x_min":0,"x_max":0,"o":"m 13 0 l 160 0 l 347 350 l 347 0 l 479 0 l 479 349 l 667 0 l 689 0 l 689 -208 l 821 -208 l 821 103 l 757 103 l 611 369 l 804 739 l 657 739 l 479 392 l 479 739 l 347 739 l 347 390 l 169 739 l 22 739 l 215 369 z "},"қ":{"ha":833,"x_min":0,"x_max":0,"o":"m 115 0 l 250 0 l 250 358 l 593 0 l 649 0 l 649 -208 l 782 -208 l 782 103 l 675 103 l 414 369 l 760 739 l 579 739 l 250 381 l 250 739 l 115 739 z "},"ң":{"ha":833,"x_min":0,"x_max":0,"o":"m 114 0 l 249 0 l 249 310 l 579 310 l 579 0 l 674 0 l 674 -208 l 806 -208 l 806 103 l 714 103 l 714 739 l 579 739 l 579 426 l 249 426 l 249 739 l 114 739 z "},"ү":{"ha":833,"x_min":0,"x_max":0,"o":"m 350 -208 l 483 -208 l 483 3 l 764 739 l 621 739 l 417 165 l 213 739 l 69 739 l 350 3 z "},"ұ":{"ha":833,"x_min":0,"x_max":0,"o":"m 179 -57 l 350 -57 l 350 -208 l 483 -208 l 483 -57 l 653 -57 l 653 60 l 506 60 l 764 739 l 621 739 l 417 165 l 213 739 l 69 739 l 328 60 l 179 60 z "},"ҳ":{"ha":833,"x_min":0,"x_max":0,"o":"m 65 0 l 226 0 l 418 283 l 608 0 l 664 0 l 664 -208 l 796 -208 l 796 103 l 694 103 l 501 376 l 756 739 l 594 739 l 418 475 l 238 739 l 79 739 l 335 379 z "},"ҷ":{"ha":833,"x_min":0,"x_max":0,"o":"m 575 0 l 675 0 l 675 -210 l 807 -210 l 807 103 l 707 103 l 707 739 l 575 739 l 575 547 b 376 343 575 422 499 343 b 222 546 282 343 222 422 l 222 739 l 92 739 l 92 535 b 364 221 92 342 196 221 b 575 347 460 221 538 271 z "},"һ":{"ha":833,"x_min":0,"x_max":0,"o":"m 129 0 l 269 0 l 269 436 b 446 633 269 564 340 633 b 586 440 539 633 586 574 l 586 0 l 726 0 l 726 476 b 488 756 726 642 644 756 b 269 626 388 756 308 715 l 269 986 l 129 986 z "},"ӏ":{"ha":833,"x_min":0,"x_max":0,"o":"m 108 0 l 725 0 l 725 138 l 489 138 l 489 849 l 725 849 l 725 986 l 108 986 l 108 849 l 344 849 l 344 138 l 108 138 z "},"ә":{"ha":833,"x_min":0,"x_max":0,"o":"m 407 756 b 90 524 247 756 133 664 l 238 514 b 406 626 260 582 318 626 b 603 411 521 626 594 553 l 78 411 l 78 372 b 411 -17 78 128 215 -17 b 750 369 617 -17 750 136 b 407 756 750 604 615 756 z m 603 299 b 411 113 585 176 515 113 b 229 299 313 113 240 172 z "},"ӣ":{"ha":833,"x_min":0,"x_max":0,"o":"m 226 861 l 607 861 l 607 974 l 226 974 z m 125 0 l 282 0 l 578 522 l 578 0 l 710 0 l 710 739 l 560 739 l 257 206 l 257 739 l 125 739 z "},"ө":{"ha":833,"x_min":0,"x_max":0,"o":"m 417 -17 b 758 369 622 -17 758 133 b 417 756 758 606 622 756 b 75 369 210 756 75 606 b 417 -17 75 133 210 -17 z m 417 626 b 608 428 524 626 593 554 l 225 428 b 417 626 240 554 308 626 z m 417 113 b 225 311 308 113 240 185 l 608 311 b 417 113 593 185 524 113 z "},"ӯ":{"ha":833,"x_min":0,"x_max":0,"o":"m 229 861 l 611 861 l 611 974 l 229 974 z m 181 -208 l 285 -208 b 478 -83 389 -208 447 -171 l 772 739 l 622 739 l 426 157 l 217 739 l 65 739 l 335 25 l 382 25 l 357 -40 b 271 -90 343 -76 321 -90 l 181 -90 z "},"Λ":{"ha":833,"x_min":0,"x_max":0,"o":"m 33 0 l 174 0 l 417 836 l 660 0 l 800 0 l 501 986 l 332 986 z "},"Ω":{"ha":833,"x_min":0,"x_max":0,"o":"m 14 0 l 364 0 l 364 131 b 156 508 246 136 156 301 b 417 879 156 726 263 879 b 678 508 571 879 678 726 b 469 131 678 301 586 136 l 469 0 l 818 0 l 818 129 l 629 129 b 821 519 744 204 821 364 b 417 1008 821 806 653 1008 b 13 519 181 1008 13 806 b 204 129 13 364 89 204 l 14 129 z "},"λ":{"ha":833,"x_min":0,"x_max":0,"o":"m 74 0 l 214 0 l 404 500 l 501 188 b 717 0 543 53 601 0 l 769 0 l 769 117 l 719 117 b 635 194 671 117 651 144 l 444 804 b 228 990 403 939 344 990 l 142 990 l 142 875 l 225 875 b 311 797 275 875 296 847 l 343 693 z "},"π":{"ha":833,"x_min":0,"x_max":0,"o":"m 167 0 l 299 0 l 299 625 l 539 625 l 539 218 b 764 0 539 83 606 0 l 807 0 l 807 118 l 763 118 b 671 215 703 118 671 154 l 671 625 l 808 625 l 808 742 l 22 742 l 22 625 l 167 625 z "},"ℇ":{"ha":833,"x_min":0,"x_max":0,"o":"m 425 -22 b 785 126 567 -22 713 39 l 700 238 b 428 103 632 156 519 103 b 208 283 294 103 208 176 b 428 463 208 394 294 465 l 499 461 l 499 583 l 428 582 b 242 744 339 581 242 628 b 428 883 242 829 313 883 b 665 763 510 883 608 833 l 754 871 b 425 1008 681 953 550 1008 b 100 750 232 1008 100 903 b 276 532 100 640 161 565 b 67 272 140 493 67 400 b 425 -22 67 100 211 -22 z "},"⓿":{"ha":833,"x_min":0,"x_max":0,"o":"m 417 -22 b 814 493 660 -22 814 176 b 417 1008 814 810 660 1008 b 19 493 172 1008 19 810 b 417 -22 19 176 172 -22 z m 418 211 b 193 492 281 211 193 318 b 418 771 193 667 281 771 b 643 492 556 771 643 667 b 418 211 643 318 556 211 z m 314 393 l 478 663 b 418 679 461 674 442 679 b 300 492 340 679 300 618 b 314 393 300 454 304 421 z m 418 303 b 536 492 496 303 536 367 b 524 593 536 532 532 565 l 358 324 b 418 303 375 310 396 303 z "},"❶":{"ha":833,"x_min":0,"x_max":0,"o":"m 417 -22 b 814 493 660 -22 814 176 b 417 1008 814 810 660 1008 b 19 493 172 1008 19 810 b 417 -22 19 176 172 -22 z m 392 222 l 392 561 l 254 560 l 254 640 l 290 640 b 415 761 372 640 415 686 l 499 761 l 499 222 z "},"❷":{"ha":833,"x_min":0,"x_max":0,"o":"m 417 -22 b 814 493 660 -22 814 176 b 417 1008 814 810 660 1008 b 19 493 172 1008 19 810 b 417 -22 19 176 172 -22 z m 229 222 b 369 479 229 349 247 414 l 439 517 b 506 611 489 544 506 563 b 428 682 506 656 472 682 b 329 590 367 682 338 653 l 229 594 b 428 771 240 703 308 771 b 608 613 543 771 608 706 b 478 439 608 525 558 481 l 419 408 b 344 314 365 379 344 344 l 600 314 l 600 222 z "},"❸":{"ha":833,"x_min":0,"x_max":0,"o":"m 417 -22 b 814 493 660 -22 814 176 b 417 1008 814 810 660 1008 b 19 493 172 1008 19 810 b 417 -22 19 176 172 -22 z m 417 211 b 218 365 271 211 225 271 l 321 369 b 417 300 325 328 353 300 b 513 379 478 300 513 331 b 411 460 513 428 481 460 l 375 460 l 375 544 l 411 544 b 488 611 457 544 488 567 b 411 681 488 653 463 681 b 329 615 361 681 332 653 l 225 622 b 410 771 236 710 299 771 b 593 625 533 771 593 711 b 497 508 593 560 560 525 b 618 375 588 488 618 439 b 417 211 618 275 538 211 z "},"❹":{"ha":833,"x_min":0,"x_max":0,"o":"m 417 -22 b 814 493 660 -22 814 176 b 417 1008 814 810 660 1008 b 19 493 172 1008 19 810 b 417 -22 19 176 172 -22 z m 454 222 l 454 340 l 203 340 l 203 421 l 453 760 l 561 760 l 561 431 l 633 431 l 633 340 l 561 340 l 561 222 z m 311 431 l 454 431 l 454 617 z "},"❺":{"ha":833,"x_min":0,"x_max":0,"o":"m 417 -22 b 814 493 660 -22 814 176 b 417 1008 814 810 660 1008 b 19 493 172 1008 19 810 b 417 -22 19 176 172 -22 z m 411 211 b 222 356 299 211 231 264 l 325 361 b 414 300 335 321 364 300 b 510 399 472 300 510 333 b 424 497 510 456 482 497 b 329 446 376 497 350 478 l 231 446 l 264 760 l 581 760 l 581 671 l 357 671 l 340 543 b 443 579 361 565 400 579 b 614 397 557 579 614 503 b 411 211 614 281 535 211 z "},"❻":{"ha":833,"x_min":0,"x_max":0,"o":"m 417 -22 b 814 493 660 -22 814 176 b 417 1008 814 810 660 1008 b 19 493 172 1008 19 810 b 417 -22 19 176 172 -22 z m 417 211 b 210 464 290 211 210 297 b 436 771 210 636 276 771 b 621 636 549 771 601 725 l 524 626 b 435 683 514 664 486 683 b 315 535 365 683 321 629 b 435 589 335 565 376 589 b 626 401 546 589 626 528 b 417 211 626 281 540 211 z m 419 300 b 525 404 486 300 525 342 b 421 504 525 468 489 504 b 317 404 360 504 318 467 b 419 300 315 342 356 300 z "},"❼":{"ha":833,"x_min":0,"x_max":0,"o":"m 417 -22 b 814 493 660 -22 814 176 b 417 1008 814 810 660 1008 b 19 493 172 1008 19 810 b 417 -22 19 176 172 -22 z m 329 222 b 486 669 329 385 386 540 l 233 669 l 233 761 l 603 761 l 603 686 b 433 222 494 550 433 410 z "},"❽":{"ha":833,"x_min":0,"x_max":0,"o":"m 417 -22 b 814 493 660 -22 814 176 b 417 1008 814 810 660 1008 b 19 493 172 1008 19 810 b 417 -22 19 176 172 -22 z m 418 211 b 210 367 279 211 210 269 b 324 513 210 435 251 486 b 235 632 268 531 235 564 b 418 771 235 718 296 771 b 601 632 542 771 601 718 b 513 513 601 564 568 531 b 626 367 583 485 626 433 b 418 211 626 269 557 211 z m 418 550 b 496 619 467 550 496 574 b 418 682 496 658 468 682 b 340 619 368 682 340 658 b 418 550 340 574 369 550 z m 418 300 b 519 376 482 300 519 325 b 418 465 519 426 482 465 b 317 376 354 465 317 426 b 418 300 317 325 354 300 z "},"❾":{"ha":833,"x_min":0,"x_max":0,"o":"m 417 -22 b 814 493 660 -22 814 176 b 417 1008 814 810 660 1008 b 19 493 172 1008 19 810 b 417 -22 19 176 172 -22 z m 400 211 b 215 346 288 211 235 257 l 313 356 b 401 299 322 318 350 299 b 521 447 471 299 515 353 b 401 393 501 417 460 393 b 210 581 290 393 210 454 b 419 771 210 701 296 771 b 626 518 546 771 626 685 b 400 211 626 346 560 211 z m 415 478 b 519 578 476 478 518 515 b 417 682 521 640 481 682 b 311 578 350 682 311 640 b 415 478 311 514 347 478 z "},"⓪":{"ha":833,"x_min":0,"x_max":0,"o":"m 417 -22 b 817 493 665 -22 817 165 b 417 1008 817 821 665 1008 b 17 493 168 1008 17 821 b 417 -22 17 165 168 -22 z m 417 74 b 114 493 229 74 114 222 b 417 913 114 764 229 913 b 719 493 603 913 719 764 b 417 74 719 222 603 74 z m 418 211 b 643 492 554 211 643 318 b 418 771 643 667 556 771 b 193 492 279 771 193 667 b 418 211 193 318 281 211 z m 300 492 b 418 679 300 618 339 679 b 478 663 440 679 461 674 l 314 393 b 300 492 304 421 300 454 z m 418 303 b 358 322 396 303 375 310 l 522 594 b 536 492 532 567 536 532 b 418 303 536 367 494 303 z "},"①":{"ha":833,"x_min":0,"x_max":0,"o":"m 417 -22 b 817 493 665 -22 817 165 b 417 1008 817 821 665 1008 b 17 493 168 1008 17 821 b 417 -22 17 165 168 -22 z m 417 74 b 114 493 229 74 114 222 b 417 913 114 764 229 913 b 719 493 603 913 719 764 b 417 74 719 222 603 74 z m 328 222 l 433 222 l 433 761 l 351 761 b 225 640 351 686 307 640 l 190 640 l 190 560 l 328 561 z "},"②":{"ha":833,"x_min":0,"x_max":0,"o":"m 417 -22 b 817 493 665 -22 817 165 b 417 1008 817 821 665 1008 b 17 493 168 1008 17 821 b 417 -22 17 165 168 -22 z m 417 74 b 114 493 229 74 114 222 b 417 913 114 764 229 913 b 719 493 603 913 719 764 b 417 74 719 222 603 74 z m 229 222 l 600 222 l 600 314 l 344 314 b 419 408 344 344 365 379 l 478 439 b 608 613 558 481 608 525 b 428 771 608 706 543 771 b 229 594 308 771 240 703 l 329 590 b 428 682 338 653 367 682 b 506 611 472 682 506 656 b 439 517 506 563 489 544 l 369 479 b 229 222 247 414 229 349 z "},"③":{"ha":833,"x_min":0,"x_max":0,"o":"m 417 -22 b 817 493 665 -22 817 165 b 417 1008 817 821 665 1008 b 17 493 168 1008 17 821 b 417 -22 17 165 168 -22 z m 417 74 b 114 493 229 74 114 222 b 417 913 114 764 229 913 b 719 493 603 913 719 764 b 417 74 719 222 603 74 z m 417 211 b 618 375 538 211 618 275 b 497 508 618 439 588 488 b 593 625 560 525 593 560 b 410 771 593 711 533 771 b 225 622 299 771 236 710 l 328 615 b 411 681 332 653 360 681 b 488 611 463 681 488 653 b 410 544 488 567 457 544 l 375 544 l 375 460 l 410 460 b 513 379 481 460 513 428 b 417 300 513 331 478 300 b 321 369 353 300 325 328 l 218 365 b 417 211 224 271 271 211 z "},"④":{"ha":833,"x_min":0,"x_max":0,"o":"m 417 -22 b 817 493 665 -22 817 165 b 417 1008 817 821 665 1008 b 17 493 168 1008 17 821 b 417 -22 17 165 168 -22 z m 417 74 b 114 493 229 74 114 222 b 417 913 114 764 229 913 b 719 493 603 913 719 764 b 417 74 719 222 603 74 z m 429 222 l 536 222 l 536 340 l 608 340 l 608 431 l 536 431 l 536 760 l 428 760 l 178 421 l 178 340 l 429 340 z m 286 431 l 429 617 l 429 431 z "},"⑤":{"ha":833,"x_min":0,"x_max":0,"o":"m 417 -22 b 817 493 665 -22 817 165 b 417 1008 817 821 665 1008 b 17 493 168 1008 17 821 b 417 -22 17 165 168 -22 z m 417 74 b 114 493 229 74 114 222 b 417 913 114 764 229 913 b 719 493 603 913 719 764 b 417 74 719 222 603 74 z m 411 211 b 614 397 535 211 614 281 b 443 579 614 503 557 579 b 340 543 400 579 361 565 l 357 671 l 581 671 l 581 760 l 264 760 l 231 446 l 329 446 b 424 497 350 478 376 497 b 510 399 482 497 510 456 b 414 300 510 333 472 300 b 325 361 364 300 335 321 l 222 356 b 411 211 231 264 299 211 z "},"⑥":{"ha":833,"x_min":0,"x_max":0,"o":"m 417 -22 b 817 493 665 -22 817 165 b 417 1008 817 821 665 1008 b 17 493 168 1008 17 821 b 417 -22 17 165 168 -22 z m 417 74 b 114 493 229 74 114 222 b 417 913 114 764 229 913 b 719 493 603 913 719 764 b 417 74 719 222 603 74 z m 417 211 b 625 401 539 211 625 281 b 433 589 625 528 544 589 b 314 535 375 589 333 565 b 433 683 319 629 364 683 b 522 626 485 683 513 664 l 621 636 b 435 771 600 725 547 771 b 208 464 275 771 208 636 b 417 211 208 297 290 211 z m 418 300 b 315 404 354 300 314 342 b 419 504 317 467 358 504 b 524 404 488 504 524 468 b 418 300 524 342 485 300 z "},"⑦":{"ha":833,"x_min":0,"x_max":0,"o":"m 417 -22 b 817 493 665 -22 817 165 b 417 1008 817 821 665 1008 b 17 493 168 1008 17 821 b 417 -22 17 165 168 -22 z m 417 74 b 114 493 229 74 114 222 b 417 913 114 764 229 913 b 719 493 603 913 719 764 b 417 74 719 222 603 74 z m 329 222 l 433 222 b 603 686 433 410 494 550 l 603 761 l 233 761 l 233 669 l 486 669 b 329 222 386 540 329 385 z "},"⑧":{"ha":833,"x_min":0,"x_max":0,"o":"m 417 -22 b 817 493 665 -22 817 165 b 417 1008 817 821 665 1008 b 17 493 168 1008 17 821 b 417 -22 17 165 168 -22 z m 417 74 b 114 493 229 74 114 222 b 417 913 114 764 229 913 b 719 493 603 913 719 764 b 417 74 719 222 603 74 z m 418 211 b 626 367 557 211 626 269 b 513 513 626 433 583 485 b 601 632 568 531 601 564 b 418 771 601 718 542 771 b 235 632 296 771 235 718 b 324 513 235 564 268 531 b 210 367 251 486 210 435 b 418 211 210 269 279 211 z m 418 550 b 340 619 369 550 340 574 b 418 682 340 658 368 682 b 496 619 468 682 496 658 b 418 550 496 574 467 550 z m 418 300 b 317 376 354 300 317 325 b 418 465 317 426 354 465 b 519 376 482 465 519 426 b 418 300 519 325 482 300 z "},"⑨":{"ha":833,"x_min":0,"x_max":0,"o":"m 417 -22 b 817 493 665 -22 817 165 b 417 1008 817 821 665 1008 b 17 493 168 1008 17 821 b 417 -22 17 165 168 -22 z m 417 74 b 114 493 229 74 114 222 b 417 913 114 764 229 913 b 719 493 603 913 719 764 b 417 74 719 222 603 74 z m 419 771 b 211 581 297 771 211 701 b 403 393 211 454 290 393 b 522 447 461 393 503 417 b 403 299 517 353 472 299 b 314 356 351 299 324 318 l 215 346 b 401 211 235 257 289 211 b 628 518 561 211 628 346 b 419 771 628 685 546 771 z m 418 682 b 521 578 482 682 522 640 b 417 478 519 515 478 478 b 313 578 349 478 313 514 b 418 682 313 640 351 682 z "},"⁄":{"ha":833,"x_min":0,"x_max":0,"o":"m 474 631 l 592 631 l 781 986 l 663 986 z m 53 0 l 171 0 l 360 354 l 242 354 z "},"½":{"ha":833,"x_min":0,"x_max":0,"o":"m 147 449 l 253 449 l 253 988 l 171 988 b 44 867 171 913 126 867 l 10 867 l 10 786 l 147 788 z m 471 631 l 588 631 l 778 986 l 660 986 z m 394 0 l 765 0 l 765 92 l 510 92 b 585 186 510 122 531 157 l 643 217 b 774 390 724 258 774 303 b 593 549 774 483 708 549 b 394 372 474 549 406 481 l 494 368 b 593 460 503 431 532 460 b 671 389 638 460 671 433 b 604 294 671 340 654 322 l 535 257 b 394 0 413 192 394 126 z m 50 0 l 167 0 l 356 354 l 239 354 z "},"⅓":{"ha":833,"x_min":0,"x_max":0,"o":"m 144 449 l 251 449 l 251 988 l 168 988 b 43 867 168 913 125 867 l 8 867 l 8 786 l 144 788 z m 472 631 l 590 631 l 779 986 l 661 986 z m 572 -11 b 774 153 693 -11 774 53 b 653 286 774 217 743 265 b 749 403 715 303 749 338 b 567 549 749 489 689 549 b 381 400 454 549 392 488 l 485 393 b 567 458 489 431 517 458 b 644 389 618 458 644 431 b 567 322 644 344 613 322 l 531 322 l 531 238 l 567 238 b 668 157 636 238 668 206 b 572 78 668 108 633 78 b 478 147 508 78 481 106 l 374 143 b 572 -11 381 49 428 -11 z m 51 0 l 168 0 l 358 354 l 240 354 z "},"⅔":{"ha":833,"x_min":0,"x_max":0,"o":"m 21 449 l 393 449 l 393 540 l 138 540 b 213 635 138 571 158 606 l 271 665 b 401 839 351 707 401 751 b 221 997 401 932 335 997 b 21 821 100 997 32 929 l 122 817 b 221 908 129 879 160 908 b 299 838 264 908 299 882 b 232 743 299 789 282 771 l 163 706 b 21 449 40 640 21 575 z m 468 631 l 585 631 l 775 986 l 657 986 z m 613 -11 b 814 153 732 -11 814 53 b 692 286 814 217 782 265 b 789 403 754 303 789 338 b 606 549 789 489 729 549 b 421 400 493 549 432 488 l 524 393 b 606 458 528 431 556 458 b 683 389 658 458 683 431 b 606 322 683 344 653 322 l 569 322 l 569 238 l 606 238 b 707 157 675 238 707 206 b 613 78 707 108 674 78 b 517 147 547 78 521 106 l 414 143 b 613 -11 419 49 467 -11 z m 47 0 l 164 0 l 353 354 l 236 354 z "},"¼":{"ha":833,"x_min":0,"x_max":0,"o":"m 144 449 l 251 449 l 251 988 l 168 988 b 43 867 168 913 125 867 l 8 867 l 8 786 l 144 788 z m 471 631 l 588 631 l 778 986 l 660 986 z m 571 0 l 678 0 l 678 118 l 750 118 l 750 208 l 678 208 l 678 538 l 571 538 l 319 199 l 319 118 l 571 118 z m 428 208 l 571 394 l 571 208 z m 50 0 l 167 0 l 356 354 l 239 354 z "},"¾":{"ha":833,"x_min":0,"x_max":0,"o":"m 226 438 b 428 601 347 438 428 501 b 307 735 428 665 397 714 b 403 851 369 751 403 786 b 219 997 403 938 343 997 b 35 849 108 997 46 936 l 139 842 b 221 907 142 879 171 907 b 297 838 272 907 297 879 b 221 771 297 793 267 771 l 185 771 l 185 686 l 221 686 b 322 606 290 686 322 654 b 226 526 322 557 288 526 b 131 596 163 526 135 554 l 28 592 b 226 438 35 497 81 438 z m 490 631 l 608 631 l 797 986 l 681 986 z m 601 0 l 708 0 l 708 118 l 781 118 l 781 208 l 708 208 l 708 538 l 601 538 l 350 199 l 350 118 l 601 118 z m 458 208 l 601 394 l 601 208 z m 69 0 l 188 0 l 376 354 l 258 354 z "},"⅕":{"ha":833,"x_min":0,"x_max":0,"o":"m 135 449 l 242 449 l 242 988 l 158 988 b 33 867 158 913 115 867 l -1 867 l -1 786 l 135 788 z m 468 631 l 585 631 l 775 986 l 657 986 z m 579 -11 b 781 175 703 -11 781 58 b 611 357 781 281 725 357 b 507 321 568 357 529 343 l 524 449 l 749 449 l 749 538 l 432 538 l 399 224 l 496 224 b 592 275 517 256 544 275 b 678 176 649 275 678 233 b 582 78 678 111 640 78 b 493 139 532 78 503 99 l 389 133 b 579 -11 397 42 465 -11 z m 47 0 l 164 0 l 353 354 l 236 354 z "},"⅛":{"ha":833,"x_min":0,"x_max":0,"o":"m 122 449 l 229 449 l 229 988 l 146 988 b 21 867 146 913 103 867 l -14 867 l -14 786 l 122 788 z m 457 631 l 575 631 l 764 986 l 646 986 z m 589 -11 b 797 144 728 -11 797 47 b 683 290 797 211 754 263 b 772 410 739 308 772 342 b 589 549 772 496 713 549 b 406 410 467 549 406 496 b 494 290 406 342 439 308 b 381 144 422 264 381 213 b 589 -11 381 47 450 -11 z m 589 328 b 511 397 540 328 511 351 b 589 460 511 436 539 460 b 667 397 639 460 667 436 b 589 328 667 351 638 328 z m 36 0 l 154 0 l 343 354 l 225 354 z m 589 78 b 488 154 525 78 488 103 b 589 243 488 204 525 243 b 690 154 653 243 690 204 b 589 78 690 103 653 78 z "},"⅜":{"ha":833,"x_min":0,"x_max":0,"o":"m 213 438 b 414 624 336 438 414 507 b 244 806 414 729 357 806 b 140 769 200 806 163 792 l 157 897 l 381 897 l 381 986 l 65 986 l 32 672 l 129 672 b 224 724 150 704 176 724 b 310 625 282 724 310 682 b 215 526 310 560 274 526 b 125 588 165 526 135 547 l 22 582 b 213 438 31 490 99 438 z m 471 631 l 589 631 l 778 986 l 660 986 z m 603 -11 b 811 144 742 -11 811 47 b 697 290 811 211 768 263 b 786 410 753 308 786 342 b 603 549 786 496 726 549 b 419 410 481 549 419 496 b 508 290 419 342 453 308 b 394 144 436 264 394 213 b 603 -11 394 47 464 -11 z m 603 328 b 525 397 554 328 525 351 b 603 460 525 436 553 460 b 681 397 653 460 681 436 b 603 328 681 351 651 328 z m 50 0 l 168 0 l 357 354 l 239 354 z m 603 78 b 501 154 539 78 501 103 b 603 243 501 204 539 243 b 704 154 667 243 704 204 b 603 78 704 103 667 78 z "},"⅝":{"ha":833,"x_min":0,"x_max":0,"o":"m 221 438 b 422 601 342 438 422 501 b 301 735 422 665 392 714 b 397 851 364 751 397 786 b 214 997 397 938 338 997 b 29 849 103 997 40 936 l 133 842 b 215 907 136 879 165 907 b 292 838 267 907 292 879 b 215 771 292 793 261 771 l 179 771 l 179 686 l 215 686 b 317 606 285 686 317 654 b 221 526 317 557 282 526 b 125 596 157 526 129 554 l 22 592 b 221 438 29 497 75 438 z m 465 631 l 583 631 l 772 986 l 654 986 z m 603 -11 b 811 144 742 -11 811 47 b 697 290 811 211 768 263 b 786 410 753 308 786 342 b 603 549 786 496 726 549 b 419 410 481 549 419 496 b 508 290 419 342 453 308 b 394 144 436 264 394 213 b 603 -11 394 47 464 -11 z m 603 328 b 525 397 554 328 525 351 b 603 460 525 436 553 460 b 681 397 653 460 681 436 b 603 328 681 351 651 328 z m 44 0 l 163 0 l 351 354 l 233 354 z m 603 78 b 501 154 539 78 501 103 b 603 243 501 204 539 243 b 704 154 667 243 704 204 b 603 78 704 103 667 78 z "},"⅞":{"ha":833,"x_min":0,"x_max":0,"o":"m 128 447 l 232 447 b 400 911 232 635 293 775 l 400 986 l 32 986 l 32 894 l 285 894 b 128 447 185 765 128 610 z m 447 631 l 564 631 l 753 986 l 636 986 z m 600 -11 b 808 144 740 -11 808 47 b 694 290 808 211 765 263 b 783 410 750 308 783 342 b 600 549 783 496 725 549 b 418 410 478 549 418 496 b 506 290 418 342 451 308 b 392 144 435 264 392 213 b 600 -11 392 47 461 -11 z m 600 328 b 522 397 551 328 522 351 b 600 460 522 436 550 460 b 678 397 651 460 678 436 b 600 328 678 351 650 328 z m 25 0 l 143 0 l 332 354 l 215 354 z m 600 78 b 499 154 536 78 499 103 b 600 243 499 204 536 243 b 703 154 665 243 703 204 b 600 78 703 103 665 78 z "},"₀":{"ha":833,"x_min":0,"x_max":0,"o":"m 417 -150 b 642 131 554 -150 642 -43 b 417 410 642 306 554 410 b 192 131 279 410 192 306 b 417 -150 192 -43 279 -150 z m 299 131 b 417 318 299 257 339 318 b 476 301 440 318 460 313 l 313 32 b 299 131 304 60 299 93 z m 417 -58 b 357 -39 394 -58 374 -51 l 521 233 b 535 131 531 206 535 171 b 417 -58 535 6 494 -58 z "},"₁":{"ha":833,"x_min":0,"x_max":0,"o":"m 368 -139 l 475 -139 l 475 400 l 392 400 b 267 279 392 325 349 279 l 231 279 l 231 199 l 368 200 z "},"₂":{"ha":833,"x_min":0,"x_max":0,"o":"m 228 -139 l 599 -139 l 599 -47 l 343 -47 b 418 47 343 -17 364 18 l 476 78 b 607 251 557 119 607 164 b 426 410 607 344 542 410 b 228 233 307 410 239 342 l 328 229 b 426 321 336 292 365 321 b 504 250 471 321 504 294 b 438 156 504 201 488 183 l 368 118 b 228 -139 246 53 228 -12 z "},"₃":{"ha":833,"x_min":0,"x_max":0,"o":"m 415 -150 b 617 14 536 -150 617 -86 b 496 147 617 78 586 126 b 592 264 558 164 592 199 b 408 410 592 350 532 410 b 224 261 297 410 235 349 l 328 254 b 410 319 331 292 360 319 b 486 250 461 319 486 292 b 410 183 486 206 456 183 l 374 183 l 374 99 l 410 99 b 511 18 479 99 511 67 b 415 -61 511 -31 476 -61 b 319 8 351 -61 324 -33 l 217 4 b 415 -150 224 -90 269 -150 z "},"₄":{"ha":833,"x_min":0,"x_max":0,"o":"m 428 -139 l 535 -139 l 535 -21 l 607 -21 l 607 69 l 535 69 l 535 399 l 428 399 l 176 60 l 176 -21 l 428 -21 z m 285 69 l 428 256 l 428 69 z "},"₅":{"ha":833,"x_min":0,"x_max":0,"o":"m 411 -150 b 613 36 535 -150 613 -81 b 443 218 613 142 557 218 b 340 182 400 218 361 204 l 357 310 l 581 310 l 581 399 l 264 399 l 231 85 l 329 85 b 424 136 349 117 376 136 b 510 38 481 136 510 94 b 414 -61 510 -28 472 -61 b 325 0 364 -61 335 -40 l 221 -6 b 411 -150 229 -97 297 -150 z "},"₆":{"ha":833,"x_min":0,"x_max":0,"o":"m 415 -150 b 624 40 538 -150 624 -81 b 432 228 624 167 544 228 b 313 174 374 228 332 204 b 432 322 318 268 363 322 b 521 265 483 322 511 303 l 619 275 b 433 410 600 364 546 410 b 207 103 274 410 207 275 b 415 -150 207 -64 289 -150 z m 417 -61 b 314 43 353 -61 313 -19 b 418 143 315 106 357 143 b 522 43 486 143 522 107 b 417 -61 522 -19 483 -61 z "},"₇":{"ha":833,"x_min":0,"x_max":0,"o":"m 328 -139 l 432 -139 b 601 325 432 49 493 189 l 601 400 l 232 400 l 232 308 l 485 308 b 328 -139 385 179 328 24 z "},"₈":{"ha":833,"x_min":0,"x_max":0,"o":"m 417 -150 b 625 6 556 -150 625 -92 b 511 151 625 72 582 124 b 600 271 567 169 600 203 b 417 410 600 357 540 410 b 233 271 294 410 233 357 b 322 151 233 203 267 169 b 208 6 250 125 208 74 b 417 -150 208 -92 278 -150 z m 417 189 b 339 258 368 189 339 213 b 417 321 339 297 367 321 b 494 258 467 321 494 297 b 417 189 494 213 465 189 z m 417 -61 b 315 15 353 -61 315 -36 b 417 104 315 65 353 104 b 518 15 481 104 518 65 b 417 -61 518 -36 481 -61 z "},"₉":{"ha":833,"x_min":0,"x_max":0,"o":"m 418 410 b 210 219 296 410 210 340 b 401 32 210 93 289 32 b 521 86 460 32 501 56 b 401 -62 515 -8 471 -62 b 313 -6 350 -62 322 -43 l 214 -15 b 400 -150 233 -104 288 -150 b 626 157 560 -150 626 -15 b 418 410 626 324 544 410 z m 417 321 b 519 217 481 321 521 279 b 415 117 518 154 476 117 b 311 217 347 117 311 153 b 417 321 311 279 350 321 z "},"⁰":{"ha":833,"x_min":0,"x_max":0,"o":"m 417 438 b 642 718 554 438 642 544 b 417 997 642 893 554 997 b 192 718 279 997 192 893 b 417 438 192 544 279 438 z m 299 718 b 417 906 299 844 339 906 b 476 889 440 906 460 900 l 313 619 b 299 718 304 647 299 681 z m 417 529 b 357 549 394 529 374 536 l 521 821 b 535 718 531 793 535 758 b 417 529 535 593 494 529 z "},"¹":{"ha":833,"x_min":0,"x_max":0,"o":"m 368 449 l 475 449 l 475 988 l 392 988 b 267 867 392 913 349 867 l 231 867 l 231 786 l 368 788 z "},"²":{"ha":833,"x_min":0,"x_max":0,"o":"m 228 449 l 599 449 l 599 540 l 343 540 b 418 635 343 571 364 606 l 476 665 b 607 839 557 707 607 751 b 426 997 607 932 542 997 b 228 821 307 997 239 929 l 328 817 b 426 908 336 879 365 908 b 504 838 471 908 504 882 b 438 743 504 789 488 771 l 368 706 b 228 449 246 640 228 575 z "},"³":{"ha":833,"x_min":0,"x_max":0,"o":"m 415 438 b 617 601 536 438 617 501 b 496 735 617 665 586 714 b 592 851 558 751 592 786 b 408 997 592 938 532 997 b 224 849 297 997 235 936 l 328 842 b 410 907 331 879 360 907 b 486 838 461 907 486 879 b 410 771 486 793 456 771 l 374 771 l 374 686 l 410 686 b 511 606 479 686 511 654 b 415 526 511 557 476 526 b 319 596 351 526 324 554 l 217 592 b 415 438 224 497 269 438 z "},"⁴":{"ha":833,"x_min":0,"x_max":0,"o":"m 428 449 l 535 449 l 535 567 l 607 567 l 607 657 l 535 657 l 535 986 l 428 986 l 176 647 l 176 567 l 428 567 z m 285 657 l 428 843 l 428 657 z "},"⁵":{"ha":833,"x_min":0,"x_max":0,"o":"m 411 438 b 613 624 535 438 613 507 b 443 806 613 729 557 806 b 340 769 400 806 361 792 l 357 897 l 581 897 l 581 986 l 264 986 l 231 672 l 329 672 b 424 724 349 704 376 724 b 510 625 481 724 510 682 b 414 526 510 560 472 526 b 325 588 364 526 335 547 l 221 582 b 411 438 229 490 297 438 z "},"⁶":{"ha":833,"x_min":0,"x_max":0,"o":"m 415 438 b 624 628 538 438 624 507 b 432 815 624 754 544 815 b 313 761 374 815 332 792 b 432 910 318 856 363 910 b 521 853 483 910 511 890 l 619 863 b 433 997 600 951 546 997 b 207 690 274 997 207 863 b 415 438 207 524 289 438 z m 417 526 b 314 631 353 526 313 568 b 418 731 315 693 357 731 b 522 631 486 731 522 694 b 417 526 522 568 483 526 z "},"⁷":{"ha":833,"x_min":0,"x_max":0,"o":"m 328 447 l 432 447 b 601 911 432 635 493 775 l 601 986 l 232 986 l 232 894 l 485 894 b 328 447 385 765 328 610 z "},"⁸":{"ha":833,"x_min":0,"x_max":0,"o":"m 417 438 b 625 593 556 438 625 496 b 511 739 625 660 582 711 b 600 858 567 757 600 790 b 417 997 600 944 540 997 b 233 858 294 997 233 944 b 322 739 233 790 267 757 b 208 593 250 713 208 661 b 417 438 208 496 278 438 z m 417 776 b 339 846 368 776 339 800 b 417 908 339 885 367 908 b 494 846 467 908 494 885 b 417 776 494 800 465 776 z m 417 526 b 315 603 353 526 315 551 b 417 692 315 653 353 692 b 518 603 481 692 518 653 b 417 526 518 551 481 526 z "},"⁹":{"ha":833,"x_min":0,"x_max":0,"o":"m 418 997 b 208 807 294 997 208 928 b 400 619 208 681 289 619 b 519 674 458 619 500 643 b 400 525 514 579 469 525 b 311 582 349 525 321 544 l 214 572 b 399 438 233 483 286 438 b 625 744 558 438 625 572 b 418 997 625 911 544 997 z m 415 908 b 518 804 479 908 519 867 b 414 704 517 742 475 704 b 310 804 346 704 310 740 b 415 908 310 867 349 908 z "}," ":{"ha":833,"x_min":0,"x_max":0,"o":""}," ":{"ha":833,"x_min":0,"x_max":0,"o":""},".":{"ha":833,"x_min":0,"x_max":0,"o":"m 322 0 l 511 0 l 511 183 l 322 183 z "},",":{"ha":833,"x_min":0,"x_max":0,"o":"m 328 -225 l 422 -225 l 508 15 l 508 183 l 325 183 l 325 0 l 406 0 z "},":":{"ha":833,"x_min":0,"x_max":0,"o":"m 322 526 l 511 526 l 511 710 l 322 710 z m 322 0 l 511 0 l 511 183 l 322 183 z "},";":{"ha":833,"x_min":0,"x_max":0,"o":"m 322 526 l 511 526 l 511 710 l 322 710 z m 328 -225 l 422 -225 l 508 15 l 508 183 l 325 183 l 325 0 l 406 0 z "},"…":{"ha":833,"x_min":0,"x_max":0,"o":"m 56 0 l 243 0 l 243 183 l 56 183 z m 322 0 l 510 0 l 510 183 l 322 183 z m 590 0 l 778 0 l 778 183 l 590 183 z "},"!":{"ha":833,"x_min":0,"x_max":0,"o":"m 369 299 l 464 299 b 488 669 474 392 488 558 l 488 986 l 346 986 l 346 669 b 369 299 346 558 361 392 z m 322 0 l 511 0 l 511 183 l 322 183 z "},"¡":{"ha":833,"x_min":0,"x_max":0,"o":"m 322 761 l 322 578 l 511 578 l 511 761 z m 369 463 b 346 92 361 369 346 203 l 346 -225 l 488 -225 l 488 92 b 464 463 488 203 474 369 z "},"?":{"ha":833,"x_min":0,"x_max":0,"o":"m 344 285 l 481 285 b 579 472 481 381 501 424 b 749 725 696 546 749 607 b 436 1008 749 890 626 1008 b 85 694 229 1008 101 878 l 233 686 b 436 875 247 810 308 875 b 600 724 543 875 600 810 b 476 553 600 646 581 614 b 344 285 381 494 344 422 z m 319 0 l 508 0 l 508 183 l 319 183 z "},"¿":{"ha":833,"x_min":0,"x_max":0,"o":"m 514 758 l 325 758 l 325 575 l 514 575 z m 397 -225 b 749 89 604 -225 732 -94 l 600 97 b 397 -92 586 -26 525 -92 b 233 40 290 -92 233 -40 b 357 219 233 122 253 157 b 489 478 453 276 489 346 l 353 478 b 254 299 353 389 332 347 b 85 39 138 225 85 161 b 397 -225 85 -121 207 -225 z "},"·":{"ha":833,"x_min":0,"x_max":0,"o":"m 322 331 l 511 331 l 511 513 l 322 513 z "},"•":{"ha":833,"x_min":0,"x_max":0,"o":"m 417 265 b 581 428 507 265 581 338 b 417 590 581 519 507 590 b 253 428 326 590 253 519 b 417 265 253 338 326 265 z "},"*":{"ha":833,"x_min":0,"x_max":0,"o":"m 281 389 l 417 585 l 554 389 l 644 450 l 511 632 l 722 632 l 722 743 l 511 743 l 644 925 l 554 986 l 417 790 l 281 986 l 189 925 l 322 743 l 111 743 l 111 632 l 322 632 l 189 450 z "},"〃":{"ha":833,"x_min":0,"x_max":0,"o":"m 397 390 l 500 390 l 625 668 l 483 668 z m 208 390 l 311 390 l 436 668 l 294 668 z "},"#":{"ha":833,"x_min":0,"x_max":0,"o":"m 129 0 l 249 0 l 294 263 l 456 263 l 408 0 l 526 0 l 575 263 l 699 263 l 717 378 l 594 378 l 636 603 l 754 603 l 772 718 l 657 718 l 704 986 l 586 986 l 539 718 l 376 718 l 425 986 l 308 986 l 260 718 l 135 718 l 117 603 l 239 603 l 199 378 l 79 378 l 61 263 l 178 263 z m 315 378 l 356 603 l 518 603 l 476 378 z "},"/":{"ha":833,"x_min":0,"x_max":0,"o":"m 140 -153 l 274 -153 l 693 1042 l 560 1042 z "},"\\":{"ha":833,"x_min":0,"x_max":0,"o":"m 693 -153 l 274 1042 l 140 1042 l 560 -153 z "},"-":{"ha":833,"x_min":0,"x_max":0,"o":"m 164 340 l 669 340 l 669 469 l 164 469 z "},"–":{"ha":833,"x_min":0,"x_max":0,"o":"m 136 342 l 697 342 l 697 469 l 136 469 z "},"—":{"ha":833,"x_min":0,"x_max":0,"o":"m 28 342 l 806 342 l 806 469 l 28 469 z "},"_":{"ha":833,"x_min":0,"x_max":0,"o":"m 106 -128 l 728 -128 l 728 0 l 106 0 z "},"〜":{"ha":833,"x_min":0,"x_max":0,"o":"m 583 299 b 825 454 678 299 776 357 l 738 542 b 583 426 692 468 638 426 b 419 490 542 426 488 447 b 250 550 356 531 299 550 b 8 394 156 550 58 492 l 96 307 b 250 422 142 381 196 422 b 414 358 292 422 346 401 b 583 299 478 318 535 299 z "},"(":{"ha":833,"x_min":0,"x_max":0,"o":"m 481 -153 l 622 -153 b 360 444 418 47 360 246 b 622 1042 360 643 418 843 l 481 1042 b 211 444 268 849 211 647 b 481 -153 211 242 268 40 z "},")":{"ha":833,"x_min":0,"x_max":0,"o":"m 353 -153 b 622 444 565 40 622 242 b 353 1042 622 647 565 849 l 211 1042 b 474 444 415 843 474 643 b 211 -153 474 246 415 47 z "},"{":{"ha":833,"x_min":0,"x_max":0,"o":"m 560 -169 l 683 -169 l 683 -42 l 572 -42 b 458 83 490 -42 458 -1 l 458 203 b 274 433 458 339 406 421 l 274 443 b 458 672 406 454 458 536 l 458 793 b 572 917 458 874 489 917 l 683 917 l 683 1046 l 560 1046 b 322 799 392 1046 322 943 l 322 660 b 150 504 322 543 290 504 l 150 371 b 322 215 290 371 322 333 l 322 76 b 560 -169 322 -68 392 -169 z "},"}":{"ha":833,"x_min":0,"x_max":0,"o":"m 274 -169 b 511 76 442 -169 511 -68 l 511 215 b 683 371 511 333 543 371 l 683 504 b 511 660 543 504 511 543 l 511 799 b 274 1046 511 943 442 1046 l 150 1046 l 150 917 l 261 917 b 375 793 344 917 375 874 l 375 672 b 560 443 375 536 428 454 l 560 433 b 375 203 428 421 375 339 l 375 83 b 261 -42 375 -1 343 -42 l 150 -42 l 150 -169 z "},"[":{"ha":833,"x_min":0,"x_max":0,"o":"m 650 -153 l 650 -33 l 322 -33 l 322 922 l 650 922 l 650 1042 l 183 1042 l 183 -153 z "},"]":{"ha":833,"x_min":0,"x_max":0,"o":"m 183 -153 l 650 -153 l 650 1042 l 183 1042 l 183 922 l 511 922 l 511 -33 l 183 -33 z "},"‚":{"ha":833,"x_min":0,"x_max":0,"o":"m 328 -225 l 422 -225 l 508 15 l 508 183 l 325 183 l 325 0 l 406 0 z "},"„":{"ha":833,"x_min":0,"x_max":0,"o":"m 183 -225 l 278 -225 l 364 15 l 364 183 l 181 183 l 181 0 l 261 0 z m 472 -225 l 567 -225 l 653 15 l 653 183 l 469 183 l 469 0 l 550 0 z "},"“":{"ha":833,"x_min":0,"x_max":0,"o":"m 650 1017 l 556 1017 l 469 775 l 469 608 l 653 608 l 653 792 l 572 792 z m 361 1017 l 267 1017 l 181 775 l 181 608 l 364 608 l 364 792 l 283 792 z "},"”":{"ha":833,"x_min":0,"x_max":0,"o":"m 183 578 l 278 578 l 364 819 l 364 986 l 181 986 l 181 803 l 261 803 z m 472 578 l 567 578 l 653 819 l 653 986 l 469 986 l 469 803 l 550 803 z "},"‘":{"ha":833,"x_min":0,"x_max":0,"o":"m 514 1015 l 419 1015 l 333 775 l 333 607 l 517 607 l 517 790 l 436 790 z "},"’":{"ha":833,"x_min":0,"x_max":0,"o":"m 319 578 l 414 578 l 500 819 l 500 986 l 317 986 l 317 803 l 397 803 z "},"«":{"ha":833,"x_min":0,"x_max":0,"o":"m 451 106 l 215 383 l 451 661 l 293 661 l 97 428 l 97 339 l 293 106 z m 736 106 l 500 383 l 736 661 l 578 661 l 382 428 l 382 339 l 578 106 z "},"»":{"ha":833,"x_min":0,"x_max":0,"o":"m 382 106 l 540 106 l 736 339 l 736 428 l 540 661 l 382 661 l 618 383 z m 97 106 l 256 106 l 451 339 l 451 428 l 256 661 l 97 661 l 333 383 z "},"‹":{"ha":833,"x_min":0,"x_max":0,"o":"m 594 106 l 358 383 l 594 661 l 436 661 l 239 428 l 239 339 l 436 106 z "},"›":{"ha":833,"x_min":0,"x_max":0,"o":"m 239 106 l 397 106 l 594 339 l 594 428 l 397 661 l 239 661 l 475 383 z "},"\"":{"ha":833,"x_min":0,"x_max":0,"o":"m 478 479 l 586 479 l 619 832 l 619 986 l 472 986 z m 247 479 l 356 479 l 361 986 l 214 986 l 214 832 z "},"'":{"ha":833,"x_min":0,"x_max":0,"o":"m 358 479 l 475 479 l 494 835 l 494 986 l 339 986 l 339 835 z "},"ƒ":{"ha":833,"x_min":0,"x_max":0,"o":"m 103 0 l 235 -1 b 450 189 361 -3 436 65 l 497 607 l 731 607 l 731 725 l 510 725 l 517 783 b 601 861 522 833 551 861 l 731 861 l 731 985 l 594 986 b 381 796 469 988 394 919 l 372 725 l 206 725 l 206 607 l 360 607 l 315 201 b 232 125 310 151 281 125 l 103 125 z "},"฿":{"ha":833,"x_min":0,"x_max":0,"o":"m 86 0 l 325 0 l 325 -126 l 425 -126 l 425 0 b 747 274 628 6 747 106 b 522 508 747 401 668 490 b 707 718 638 529 707 611 b 425 985 707 874 610 969 l 425 1118 l 325 1118 l 325 986 l 86 986 z m 229 568 l 229 850 l 325 850 l 325 568 z m 561 708 b 425 571 561 629 518 581 l 425 847 b 561 708 518 838 561 789 z m 229 136 l 229 433 l 325 433 l 325 136 z m 601 281 b 425 136 601 193 544 140 l 425 433 b 601 281 540 429 601 374 z "},"":{"ha":833,"x_min":0,"x_max":0,"o":"m 146 0 l 688 0 b 822 135 765 0 822 57 l 822 676 b 688 811 822 754 765 811 l 146 811 b 11 676 68 811 11 754 l 11 135 b 146 0 11 57 68 0 z m 119 172 l 415 688 l 713 172 z "},"@":{"ha":833,"x_min":0,"x_max":0,"o":"m 597 -103 l 561 -7 b 382 -57 499 -40 439 -57 b 125 342 226 -57 125 58 b 456 886 125 706 269 886 b 708 524 632 886 708 744 b 628 206 708 288 674 206 b 583 300 601 206 583 238 b 617 693 583 381 599 518 l 513 693 l 506 632 b 404 696 490 671 454 696 b 199 349 286 696 199 536 b 349 111 199 200 254 111 b 490 221 408 111 464 150 b 608 107 510 151 553 107 b 808 529 728 107 808 215 b 461 986 808 800 688 986 b 25 339 213 986 25 765 b 379 -156 25 -11 175 -156 b 597 -103 450 -156 519 -139 z m 383 204 b 317 358 340 204 317 263 b 421 599 317 488 364 599 b 489 469 465 599 489 554 b 383 204 489 322 439 204 z "},"&":{"ha":833,"x_min":0,"x_max":0,"o":"m 326 -22 b 599 60 457 -22 547 11 l 647 0 l 808 0 l 689 147 b 792 432 746 215 788 324 l 656 447 b 607 257 656 363 638 297 l 410 511 b 615 792 554 606 615 682 b 374 1008 615 924 533 1008 b 119 772 215 1008 119 918 b 218 544 119 686 158 622 b 22 239 74 444 22 368 b 326 -22 22 72 135 -22 z m 338 608 b 267 772 283 678 267 722 b 374 874 267 836 306 874 b 471 779 435 874 471 840 b 338 608 471 715 433 668 z m 344 110 b 172 249 225 110 172 165 b 296 440 172 326 208 381 l 514 163 b 344 110 483 132 428 110 z "},"¶":{"ha":833,"x_min":0,"x_max":0,"o":"m 353 0 l 483 0 l 483 863 l 578 863 l 578 0 l 708 0 l 708 986 l 358 986 b 94 706 213 986 94 878 b 353 426 94 535 207 426 z "},"§":{"ha":833,"x_min":0,"x_max":0,"o":"m 432 -90 b 731 121 607 -90 731 -4 b 618 293 731 203 696 256 b 732 449 694 324 732 375 b 439 683 732 578 649 632 b 276 794 314 714 276 740 b 413 885 276 847 332 885 b 586 758 508 885 572 839 l 732 767 b 424 1008 711 919 594 1008 b 125 789 243 1008 125 925 b 247 635 125 725 165 672 b 122 464 165 597 124 539 b 385 250 121 353 196 289 b 582 128 531 219 582 182 b 431 35 582 71 542 35 b 247 169 321 35 261 86 l 100 160 b 432 -90 114 14 236 -90 z m 463 351 b 260 472 310 353 260 413 b 392 574 260 528 318 574 b 597 454 486 574 597 538 b 463 351 597 392 543 351 z "},"©":{"ha":833,"x_min":0,"x_max":0,"o":"m 415 -17 b 822 496 658 -17 822 193 b 415 1008 822 799 658 1008 b 11 496 172 1008 11 799 b 415 -17 11 193 172 -17 z m 415 75 b 110 496 225 75 110 242 b 415 917 110 751 225 917 b 724 496 606 917 724 751 b 415 75 724 242 606 75 z m 417 206 b 653 425 539 206 636 290 l 540 432 b 419 308 529 351 485 308 b 297 494 339 308 297 382 b 419 681 297 607 339 681 b 536 569 483 681 526 642 l 649 576 b 417 785 635 704 536 785 b 181 494 279 785 181 664 b 417 206 181 324 279 206 z "},"®":{"ha":833,"x_min":0,"x_max":0,"o":"m 418 240 b 800 625 631 240 800 413 b 418 1008 800 838 631 1008 b 33 625 204 1008 33 838 b 418 240 33 413 204 240 z m 418 318 b 118 625 240 318 118 457 b 418 931 118 792 240 931 b 715 625 594 931 715 792 b 418 318 715 457 594 318 z m 263 417 l 353 417 l 353 575 l 408 575 l 497 417 l 597 417 l 496 588 b 582 703 551 603 582 646 b 410 832 582 783 517 832 l 263 832 z m 351 646 l 351 758 l 414 758 b 494 704 464 758 494 740 b 414 646 494 667 464 646 z "},"℗":{"ha":833,"x_min":0,"x_max":0,"o":"m 418 240 b 800 625 631 240 800 413 b 418 1008 800 838 631 1008 b 33 625 204 1008 33 838 b 418 240 33 413 204 240 z m 418 318 b 118 625 240 318 118 457 b 418 931 118 792 240 931 b 715 625 594 931 715 792 b 418 318 715 457 594 318 z m 285 417 l 374 417 l 374 575 l 432 575 b 604 703 542 575 604 619 b 432 832 604 783 542 832 l 285 832 z m 374 646 l 374 758 l 436 758 b 517 704 486 758 517 740 b 436 646 517 667 486 646 z "},"™":{"ha":833,"x_min":0,"x_max":0,"o":"m 365 499 l 456 499 l 456 753 l 540 499 l 625 499 l 708 751 l 708 499 l 800 499 l 800 986 l 701 986 l 582 621 l 465 986 l 365 986 z m 124 499 l 217 499 l 217 897 l 326 897 l 326 986 l 17 986 l 17 897 l 124 897 z "},"°":{"ha":833,"x_min":0,"x_max":0,"o":"m 417 551 b 644 781 542 551 644 650 b 417 1008 644 910 542 1008 b 189 781 293 1008 189 910 b 417 551 189 650 293 551 z m 417 668 b 306 781 356 668 306 714 b 417 894 306 847 357 894 b 528 781 476 894 528 847 b 417 668 528 714 478 668 z "},"′":{"ha":833,"x_min":0,"x_max":0,"o":"m 317 667 l 443 667 l 518 986 l 376 986 z "},"″":{"ha":833,"x_min":0,"x_max":0,"o":"m 218 667 l 344 667 l 419 986 l 278 986 z m 414 667 l 542 667 l 617 986 l 475 986 z "},"|":{"ha":833,"x_min":0,"x_max":0,"o":"m 350 -153 l 483 -153 l 483 1042 l 350 1042 z "},"¦":{"ha":833,"x_min":0,"x_max":0,"o":"m 351 549 l 482 549 l 482 1042 l 351 1042 z m 351 -153 l 482 -153 l 482 340 l 351 340 z "},"†":{"ha":833,"x_min":0,"x_max":0,"o":"m 347 0 l 486 0 l 486 615 l 703 615 l 703 739 l 486 739 l 486 986 l 347 986 l 347 739 l 131 739 l 131 615 l 347 615 z "},"‡":{"ha":833,"x_min":0,"x_max":0,"o":"m 131 238 l 347 238 l 347 0 l 486 0 l 486 238 l 703 238 l 703 361 l 486 361 l 486 615 l 703 615 l 703 739 l 486 739 l 486 986 l 347 986 l 347 739 l 131 739 l 131 615 l 347 615 l 347 361 l 131 361 z "},"№":{"ha":833,"x_min":0,"x_max":0,"o":"m 649 522 b 822 765 765 522 822 614 b 649 1008 822 914 765 1008 b 475 765 531 1008 475 915 b 649 522 475 614 531 522 z m 11 0 l 139 0 l 139 711 l 272 0 l 436 0 l 436 986 l 308 986 l 308 275 l 175 986 l 11 986 z m 649 619 b 590 765 604 619 590 671 b 649 911 590 857 604 911 b 706 765 690 911 706 860 b 649 619 706 669 690 619 z m 497 289 l 799 289 l 799 404 l 497 404 z "},"␣":{"ha":833,"x_min":0,"x_max":0,"o":"m 51 -265 l 782 -265 l 782 0 l 667 0 l 667 -151 l 167 -151 l 167 0 l 51 0 z "},"␌":{"ha":833,"x_min":0,"x_max":0,"o":"m 110 417 l 182 417 l 182 606 l 381 606 l 381 676 l 182 676 l 182 804 l 393 804 l 393 875 l 110 875 z m 461 99 l 532 99 l 532 288 l 732 288 l 732 358 l 532 358 l 532 486 l 744 486 l 744 557 l 461 557 z "},"⌧":{"ha":833,"x_min":0,"x_max":0,"o":"m 19 0 l 814 0 l 814 986 l 19 986 z m 121 101 l 121 885 l 713 885 l 713 101 z m 292 288 l 417 413 l 542 286 l 622 367 l 497 493 l 621 617 l 542 696 l 417 572 l 292 697 l 211 617 l 336 492 l 213 367 z "},"⌫":{"ha":833,"x_min":0,"x_max":0,"o":"m 219 0 l 822 0 l 822 986 l 219 986 l 6 490 z m 288 101 l 117 492 l 288 885 l 721 885 l 721 101 z m 331 290 l 453 413 l 575 289 l 654 369 l 532 493 l 653 614 l 575 693 l 453 572 l 331 694 l 250 614 l 372 492 l 251 369 z "},"⌦":{"ha":833,"x_min":0,"x_max":0,"o":"m 614 0 l 828 490 l 614 986 l 11 986 l 11 0 z m 546 101 l 113 101 l 113 885 l 546 885 l 717 492 z m 258 289 l 381 413 l 503 290 l 582 369 l 461 492 l 583 614 l 503 694 l 381 572 l 258 693 l 181 614 l 301 493 l 179 369 z "},"⏎":{"ha":833,"x_min":0,"x_max":0,"o":"m 415 -21 l 415 249 l 825 249 l 825 986 l 494 986 l 494 579 l 415 579 l 415 846 l 6 414 z m 326 464 l 608 464 l 608 869 l 710 869 l 710 363 l 326 363 l 326 233 l 157 413 l 326 592 z "},"␋":{"ha":833,"x_min":0,"x_max":0,"o":"m 213 417 l 288 417 l 428 875 l 351 875 l 250 529 l 149 875 l 72 875 z m 557 99 l 631 99 l 631 486 l 761 486 l 761 557 l 426 557 l 426 486 l 557 486 z "},"¢":{"ha":833,"x_min":0,"x_max":0,"o":"m 317 -17 l 417 -17 l 428 107 b 750 383 597 107 722 215 l 607 393 b 439 236 586 293 522 240 l 482 742 b 603 604 543 725 586 676 l 746 613 b 493 874 721 758 626 851 l 504 1008 l 404 1008 l 393 878 b 83 493 206 861 83 713 b 329 119 83 299 178 161 z m 229 493 b 382 744 229 632 285 722 l 340 256 b 229 493 269 292 229 375 z "},"¤":{"ha":833,"x_min":0,"x_max":0,"o":"m 121 150 l 249 278 b 417 225 297 244 354 225 b 585 278 479 225 538 244 l 713 150 l 792 228 l 663 356 b 715 524 696 404 715 461 b 663 692 715 586 696 643 l 792 821 l 713 897 l 583 769 b 417 821 536 803 479 821 b 250 769 356 821 297 803 l 121 897 l 43 821 l 171 692 b 118 524 138 644 118 586 b 171 356 118 461 138 404 l 43 228 z m 417 338 b 232 524 314 338 232 421 b 417 708 232 625 314 708 b 601 524 517 708 601 625 b 417 338 601 421 517 338 z "},"$":{"ha":833,"x_min":0,"x_max":0,"o":"m 364 -125 l 471 -125 l 471 -18 b 774 250 654 -4 774 99 b 471 546 774 407 694 482 l 471 847 b 610 669 554 828 597 763 l 757 678 b 471 985 739 847 640 964 l 471 1113 l 364 1113 l 364 986 b 83 711 188 969 83 865 b 364 436 83 571 169 488 l 364 122 b 207 331 276 146 222 217 l 60 321 b 364 -15 75 136 188 10 z m 226 718 b 364 851 226 792 278 839 l 364 578 b 226 718 257 614 226 647 z m 629 250 b 471 115 629 172 575 124 l 471 406 b 629 250 600 364 629 324 z "},"€":{"ha":833,"x_min":0,"x_max":0,"o":"m 11 326 l 96 326 b 439 -22 132 108 246 -22 b 794 336 629 -22 760 111 l 643 343 b 439 114 618 193 542 114 b 247 326 333 114 272 189 l 482 326 l 497 432 l 235 432 b 233 492 235 451 233 471 b 235 539 233 508 235 524 l 510 539 l 525 644 l 244 644 b 439 872 268 792 331 872 b 635 663 533 872 607 800 l 788 671 b 439 1008 749 885 619 1008 b 93 644 243 1008 126 872 l 11 644 l 11 539 l 83 539 b 83 492 83 524 83 508 b 85 432 83 471 83 451 l 11 432 z "},"₴":{"ha":833,"x_min":0,"x_max":0,"o":"m 25 538 l 808 538 l 808 643 l 731 643 b 756 739 743 664 756 697 b 432 1008 756 899 640 1008 b 85 739 232 1008 124 901 l 233 726 b 436 876 261 822 319 876 b 621 736 569 876 621 817 b 593 643 621 699 607 667 l 25 643 z m 404 -17 b 765 240 589 -17 726 85 l 613 251 b 399 115 578 168 499 115 b 210 256 288 115 210 169 b 228 326 210 279 214 306 l 808 326 l 808 432 l 25 432 l 25 326 l 85 326 b 69 246 75 308 69 274 b 404 -17 69 86 203 -17 z "},"₱":{"ha":833,"x_min":0,"x_max":0,"o":"m 142 0 l 288 0 l 288 304 l 379 304 b 675 515 531 304 636 378 l 797 515 l 797 613 l 692 613 b 693 647 693 624 693 636 b 692 678 693 658 693 668 l 797 678 l 797 775 l 676 775 b 379 986 638 913 532 986 l 142 986 l 142 775 l 36 775 l 36 678 l 142 678 l 142 613 l 36 613 l 36 515 l 142 515 z m 288 854 l 378 854 b 518 775 446 854 493 829 l 288 775 z m 542 647 b 540 613 542 635 542 624 l 288 613 l 288 678 l 540 678 b 542 647 542 668 542 658 z m 288 438 l 288 515 l 518 515 b 378 438 492 461 444 438 z "},"₽":{"ha":833,"x_min":0,"x_max":0,"o":"m 147 0 l 293 0 l 293 158 l 522 158 l 522 267 l 293 267 l 293 374 l 453 374 b 794 679 658 374 794 490 b 453 986 794 869 658 986 l 147 986 l 147 267 l 39 267 l 39 158 l 147 158 z m 293 511 l 293 849 l 438 849 b 643 679 578 849 643 789 b 438 511 643 569 578 511 z "},"₹":{"ha":833,"x_min":0,"x_max":0,"o":"m 463 0 l 653 0 l 222 379 l 326 379 b 667 628 518 379 643 472 l 794 628 l 794 736 l 668 736 b 606 881 661 793 639 842 l 794 881 l 794 986 l 39 986 l 39 857 l 319 857 b 524 736 436 857 504 815 l 39 736 l 39 628 l 522 628 b 319 508 501 550 433 508 l 39 508 l 39 379 z "},"₪":{"ha":833,"x_min":0,"x_max":0,"o":"m 246 0 l 597 0 b 806 208 725 0 806 81 l 806 986 l 686 986 l 686 206 b 603 119 686 151 654 119 l 365 119 l 365 771 l 246 771 z m 28 0 l 147 0 l 147 867 l 383 867 b 467 781 435 867 467 833 l 467 215 l 586 215 l 586 778 b 379 986 586 906 506 986 l 28 986 z "},"£":{"ha":833,"x_min":0,"x_max":0,"o":"m 57 0 l 760 1 l 760 142 l 206 142 b 351 438 315 196 350 288 l 572 438 l 572 543 l 336 543 b 296 713 314 613 296 668 b 454 871 296 806 360 871 b 611 744 528 871 590 829 l 776 754 b 450 1008 754 894 657 1008 b 149 732 274 1008 149 890 b 190 543 149 676 165 615 l 57 543 l 57 438 l 214 438 b 219 385 217 419 219 401 b 57 128 219 275 163 186 z "},"¥":{"ha":833,"x_min":0,"x_max":0,"o":"m 100 190 l 344 190 l 344 0 l 490 0 l 490 190 l 735 190 l 735 303 l 490 303 l 490 397 l 735 397 l 735 511 l 543 511 l 782 986 l 621 986 l 417 556 l 213 986 l 51 986 l 292 511 l 100 511 l 100 397 l 344 397 l 344 303 l 100 303 z "},"+":{"ha":833,"x_min":0,"x_max":0,"o":"m 82 342 l 353 342 l 353 71 l 481 71 l 481 342 l 751 342 l 751 469 l 481 469 l 481 740 l 353 740 l 353 469 l 82 469 z "},"−":{"ha":833,"x_min":0,"x_max":0,"o":"m 106 342 l 728 342 l 728 469 l 106 469 z "},"×":{"ha":833,"x_min":0,"x_max":0,"o":"m 115 194 l 206 104 l 417 315 l 628 104 l 718 194 l 507 406 l 718 617 l 628 708 l 417 496 l 206 708 l 115 617 l 326 406 z "},"÷":{"ha":833,"x_min":0,"x_max":0,"o":"m 417 568 b 514 663 476 568 514 608 b 417 757 514 717 476 757 b 319 663 357 757 319 717 b 417 568 319 608 357 568 z m 92 343 l 742 343 l 742 468 l 92 468 z m 417 54 b 514 149 476 54 514 94 b 417 243 514 204 476 243 b 319 149 357 243 319 204 b 417 54 319 94 357 54 z "},"=":{"ha":833,"x_min":0,"x_max":0,"o":"m 110 501 l 724 501 l 724 625 l 110 625 z m 110 201 l 724 201 l 724 325 l 110 325 z "},"≠":{"ha":833,"x_min":0,"x_max":0,"o":"m 110 201 l 294 201 l 249 44 l 368 44 l 414 201 l 724 201 l 724 325 l 450 325 l 503 501 l 724 501 l 724 625 l 539 625 l 585 781 l 465 781 l 419 625 l 110 625 l 110 501 l 383 501 l 331 325 l 110 325 z "},">":{"ha":833,"x_min":0,"x_max":0,"o":"m 99 39 l 735 318 l 735 486 l 99 765 l 99 628 l 611 403 l 99 176 z "},"<":{"ha":833,"x_min":0,"x_max":0,"o":"m 735 39 l 735 176 l 222 403 l 735 628 l 735 765 l 99 486 l 99 318 z "},"≥":{"ha":833,"x_min":0,"x_max":0,"o":"m 99 165 l 732 385 l 732 556 l 99 775 l 99 639 l 614 469 l 99 300 z m 99 0 l 735 0 l 735 118 l 99 118 z "},"≤":{"ha":833,"x_min":0,"x_max":0,"o":"m 692 165 l 692 300 l 176 469 l 692 639 l 692 775 l 58 556 l 58 385 z m 692 0 l 692 118 l 56 118 l 56 0 z "},"±":{"ha":833,"x_min":0,"x_max":0,"o":"m 353 165 l 481 165 l 481 418 l 738 418 l 738 544 l 481 544 l 481 796 l 353 796 l 353 544 l 96 544 l 96 418 l 353 418 z m 96 0 l 738 0 l 738 118 l 96 118 z "},"≈":{"ha":833,"x_min":0,"x_max":0,"o":"m 593 482 b 779 736 706 482 779 583 l 657 736 b 589 600 657 646 633 600 b 496 667 556 600 542 610 b 349 749 450 724 415 749 b 164 494 238 749 164 646 l 286 494 b 356 631 286 583 311 631 b 447 563 383 631 394 626 b 593 482 500 503 531 482 z m 593 176 b 779 431 706 176 779 278 l 657 431 b 589 294 657 340 633 294 b 496 361 556 294 542 304 b 349 443 450 418 415 443 b 164 189 238 443 164 340 l 286 189 b 356 325 286 278 311 325 b 447 257 383 325 394 321 b 593 176 500 197 531 176 z "},"~":{"ha":833,"x_min":0,"x_max":0,"o":"m 539 329 b 725 583 651 329 725 431 l 603 583 b 535 447 603 493 579 447 b 442 514 501 447 488 457 b 294 596 396 571 361 596 b 110 342 183 596 110 493 l 232 342 b 301 478 232 431 257 478 b 393 410 329 478 340 474 b 539 329 446 350 476 329 z "},"¬":{"ha":833,"x_min":0,"x_max":0,"o":"m 596 92 l 711 92 l 711 446 l 122 446 l 122 331 l 596 331 z "},"^":{"ha":833,"x_min":0,"x_max":0,"o":"m 144 518 l 278 518 l 417 869 l 556 518 l 689 518 l 499 986 l 335 986 z "},"∞":{"ha":833,"x_min":0,"x_max":0,"o":"m 210 153 b 417 293 285 153 371 200 b 626 153 461 200 550 153 b 822 376 739 153 822 251 b 626 599 822 501 739 600 b 417 460 546 599 464 549 b 210 600 371 549 288 600 b 11 376 94 600 11 501 b 210 153 11 251 94 153 z m 214 275 b 129 376 163 275 129 317 b 214 478 129 436 163 478 b 363 376 267 476 326 435 b 214 275 326 317 267 275 z m 621 275 b 469 376 568 274 508 315 b 621 476 510 436 568 478 b 704 376 669 475 704 433 b 621 275 704 318 669 276 z "},"∫":{"ha":833,"x_min":0,"x_max":0,"o":"m 226 -208 b 439 -18 356 -208 425 -142 l 529 785 b 615 861 535 833 564 861 l 679 861 l 692 986 l 607 986 b 394 796 481 986 408 919 l 306 -7 b 224 -83 299 -67 272 -83 l 154 -83 l 142 -208 z "},"∆":{"ha":833,"x_min":0,"x_max":0,"o":"m 14 0 l 819 0 l 819 131 l 499 986 l 335 986 l 14 131 z m 125 128 l 417 869 l 708 128 z "},"∏":{"ha":833,"x_min":0,"x_max":0,"o":"m 169 -208 l 300 -208 l 300 858 l 539 858 l 539 -208 l 668 -208 l 668 858 l 808 858 l 808 986 l 25 986 l 25 858 l 169 858 z "},"∑":{"ha":833,"x_min":0,"x_max":0,"o":"m 83 0 l 750 0 l 750 133 l 242 133 l 485 493 l 242 853 l 750 853 l 750 986 l 83 986 l 83 853 l 326 493 l 83 133 z "},"√":{"ha":833,"x_min":0,"x_max":0,"o":"m 174 -208 l 336 -208 l 529 863 l 822 863 l 822 986 l 419 986 l 249 18 l 140 472 l 11 472 z "},"µ":{"ha":833,"x_min":0,"x_max":0,"o":"m 118 -208 l 258 -208 l 258 69 b 400 -17 282 15 336 -17 b 581 115 479 -17 549 32 l 581 0 l 715 0 l 715 739 l 575 739 l 575 308 b 400 106 575 183 508 106 b 258 308 306 106 258 175 l 258 739 l 118 739 z "},"μ":{"ha":833,"x_min":0,"x_max":0,"o":"m 118 -208 l 258 -208 l 258 69 b 400 -17 282 15 336 -17 b 581 115 479 -17 549 32 l 581 0 l 715 0 l 715 739 l 575 739 l 575 308 b 400 106 575 183 508 106 b 258 308 306 106 258 175 l 258 739 l 118 739 z "},"∂":{"ha":833,"x_min":0,"x_max":0,"o":"m 407 -15 b 732 378 596 -15 732 126 b 214 1007 732 710 618 940 l 183 883 b 593 579 425 840 544 749 b 403 649 540 619 476 649 b 101 317 222 649 101 518 b 407 -15 101 115 217 -15 z m 407 99 b 239 317 294 99 239 179 b 418 535 239 453 306 535 b 596 353 528 535 596 468 b 407 99 596 161 518 99 z "},"%":{"ha":833,"x_min":0,"x_max":0,"o":"m 213 508 b 414 753 326 508 414 592 b 213 997 414 914 326 997 b 11 753 99 997 11 914 b 213 508 11 592 99 508 z m 68 0 l 181 0 l 765 986 l 653 986 z m 213 601 b 122 753 157 601 122 656 b 213 904 122 850 157 904 b 303 753 268 904 303 850 b 213 601 303 656 268 601 z m 621 -11 b 822 233 735 -11 822 72 b 621 478 822 394 735 478 b 419 233 507 478 419 394 b 621 -11 419 72 507 -11 z m 621 82 b 531 233 565 82 531 136 b 621 385 531 331 565 385 b 711 233 676 385 711 331 b 621 82 711 136 676 82 z "},"‰":{"ha":833,"x_min":0,"x_max":0,"o":"m 185 508 b 369 753 296 508 369 592 b 185 997 369 914 296 997 b 0 753 74 997 0 914 b 185 508 0 592 74 508 z m 0 0 l 100 0 l 678 986 l 578 986 z m 185 601 b 110 753 132 601 110 653 b 185 904 110 853 132 904 b 260 753 238 904 260 853 b 185 601 260 653 238 601 z m 463 -11 b 575 50 507 -11 546 10 b 688 -11 604 10 643 -11 b 833 233 774 -11 833 72 b 688 478 833 394 774 478 b 575 417 643 478 604 457 b 463 478 546 457 507 478 b 317 233 376 478 317 394 b 463 -11 317 72 376 -11 z m 474 82 b 421 233 443 82 421 111 b 474 385 421 344 443 385 b 526 233 504 385 526 344 b 474 82 526 111 504 82 z m 676 82 b 624 233 646 82 624 111 b 676 385 624 344 646 385 b 729 233 707 385 729 344 b 676 82 729 111 707 82 z "},"∶":{"ha":833,"x_min":0,"x_max":0,"o":"m 322 665 l 511 665 l 511 849 l 322 849 z m 322 139 l 511 139 l 511 322 l 322 322 z "},"↑":{"ha":833,"x_min":0,"x_max":0,"o":"m 356 25 l 478 25 l 478 736 l 792 424 l 792 589 l 417 964 l 42 590 l 42 425 l 356 739 z "},"↗":{"ha":833,"x_min":0,"x_max":0,"o":"m 35 226 l 121 139 l 624 642 l 625 199 l 742 315 l 742 846 l 213 847 l 94 731 l 539 731 z "},"→":{"ha":833,"x_min":0,"x_max":0,"o":"m 297 132 l 464 133 l 824 493 l 464 854 l 299 854 l 597 554 l 22 554 l 22 432 l 597 432 z "},"↘":{"ha":833,"x_min":0,"x_max":0,"o":"m 108 257 l 225 139 l 756 139 l 757 669 l 640 786 l 640 342 l 136 847 l 49 760 l 551 257 z "},"↓":{"ha":833,"x_min":0,"x_max":0,"o":"m 792 565 l 478 253 l 478 964 l 356 964 l 356 250 l 42 564 l 42 399 l 417 25 l 792 400 z "},"↙":{"ha":833,"x_min":0,"x_max":0,"o":"m 725 257 l 282 257 l 785 760 l 697 847 l 193 342 l 193 786 l 76 669 l 78 139 l 608 139 z "},"←":{"ha":833,"x_min":0,"x_max":0,"o":"m 536 132 l 236 432 l 811 432 l 811 554 l 236 554 l 535 854 l 369 854 l 10 493 l 369 133 z "},"↖":{"ha":833,"x_min":0,"x_max":0,"o":"m 208 199 l 210 642 l 713 139 l 799 226 l 294 731 l 739 731 l 621 847 l 92 846 l 92 315 z "},"↔":{"ha":833,"x_min":0,"x_max":0,"o":"m 224 268 l 378 268 l 218 433 l 615 433 l 456 268 l 610 268 l 831 494 l 611 718 l 457 718 l 615 556 l 218 556 l 376 718 l 222 718 l 3 494 z "},"↕":{"ha":833,"x_min":0,"x_max":0,"o":"m 418 -60 l 658 181 l 658 336 l 478 156 l 478 832 l 658 650 l 658 806 l 418 1046 l 175 804 l 175 649 l 358 831 l 358 156 l 175 338 l 175 182 z "},"↝":{"ha":833,"x_min":0,"x_max":0,"o":"m 401 258 b 688 383 499 203 611 260 l 804 315 l 774 653 l 469 511 l 582 446 b 453 365 542 376 496 340 b 406 469 415 386 411 426 b 321 613 399 519 388 572 b 25 422 211 675 51 576 l 151 422 b 269 506 175 496 228 529 b 318 386 310 482 307 436 b 401 258 326 336 346 292 z "},"⇤":{"ha":833,"x_min":0,"x_max":0,"o":"m 28 164 l 140 164 l 140 706 l 28 706 z m 456 203 l 454 374 l 806 374 l 806 496 l 454 496 l 454 667 l 175 435 z "},"⇥":{"ha":833,"x_min":0,"x_max":0,"o":"m 806 164 l 806 706 l 693 706 l 693 164 z m 378 203 l 658 435 l 379 667 l 379 496 l 28 496 l 28 374 l 379 374 z "},"↩":{"ha":833,"x_min":0,"x_max":0,"o":"m 415 163 l 246 335 l 500 335 b 813 632 675 335 813 464 b 500 931 813 800 675 931 l 90 931 l 90 808 l 500 808 b 688 632 606 808 688 731 b 500 457 688 535 606 457 l 243 457 l 414 628 l 251 628 l 21 396 l 254 163 z "},"↪":{"ha":833,"x_min":0,"x_max":0,"o":"m 418 163 l 579 163 l 813 396 l 582 628 l 419 628 l 590 457 l 333 457 b 146 632 228 457 146 535 b 333 808 146 731 228 808 l 743 808 l 743 931 l 333 931 b 21 632 158 931 21 800 b 333 335 21 464 158 335 l 588 335 z "},"↰":{"ha":833,"x_min":0,"x_max":0,"o":"m 311 381 l 310 557 l 671 557 l 671 0 l 794 0 l 794 679 l 310 679 l 310 856 l 25 618 z "},"↱":{"ha":833,"x_min":0,"x_max":0,"o":"m 163 0 l 163 557 l 524 557 l 522 381 l 808 618 l 524 856 l 524 679 l 39 679 l 39 0 z "},"↳":{"ha":833,"x_min":0,"x_max":0,"o":"m 522 606 l 524 429 l 163 429 l 163 986 l 39 986 l 39 307 l 524 307 l 524 131 l 808 368 z "},"↴":{"ha":833,"x_min":0,"x_max":0,"o":"m 589 0 l 821 278 l 651 279 l 651 985 l 19 985 l 19 863 l 528 863 l 528 279 l 357 279 z "},"↵":{"ha":833,"x_min":0,"x_max":0,"o":"m 311 606 l 25 368 l 310 131 l 310 307 l 794 307 l 794 986 l 671 986 l 671 429 l 310 429 z "},"⇧":{"ha":833,"x_min":0,"x_max":0,"o":"m 185 0 l 651 0 l 651 550 l 831 550 l 418 993 l 3 550 l 185 550 z m 308 122 l 308 624 l 235 624 l 418 826 l 600 624 l 528 624 l 528 122 z "},"▁":{"ha":833,"x_min":0,"x_max":0,"o":"m 0 -472 l 833 -472 l 833 -246 l 0 -246 z "},"▂":{"ha":833,"x_min":0,"x_max":0,"o":"m 0 -472 l 833 -472 l 833 -21 l 0 -21 z "},"▃":{"ha":833,"x_min":0,"x_max":0,"o":"m 0 -472 l 833 -472 l 833 206 l 0 206 z "},"▄":{"ha":833,"x_min":0,"x_max":0,"o":"m 0 -472 l 833 -472 l 833 431 l 0 431 z "},"▅":{"ha":833,"x_min":0,"x_max":0,"o":"m 0 -472 l 833 -472 l 833 657 l 0 657 z "},"▆":{"ha":833,"x_min":0,"x_max":0,"o":"m 0 -472 l 833 -472 l 833 882 l 0 882 z "},"▇":{"ha":833,"x_min":0,"x_max":0,"o":"m 0 -472 l 833 -472 l 833 1108 l 0 1108 z "},"█":{"ha":833,"x_min":0,"x_max":0,"o":"m 0 -472 l 833 -472 l 833 1333 l 0 1333 z "},"▀":{"ha":833,"x_min":0,"x_max":0,"o":"m 0 431 l 833 431 l 833 1333 l 0 1333 z "},"▔":{"ha":833,"x_min":0,"x_max":0,"o":"m 0 1108 l 833 1108 l 833 1333 l 0 1333 z "},"▏":{"ha":833,"x_min":0,"x_max":0,"o":"m 0 -472 l 104 -472 l 104 1333 l 0 1333 z "},"▎":{"ha":833,"x_min":0,"x_max":0,"o":"m 0 -472 l 208 -472 l 208 1333 l 0 1333 z "},"▍":{"ha":833,"x_min":0,"x_max":0,"o":"m 0 -472 l 313 -472 l 313 1333 l 0 1333 z "},"▌":{"ha":833,"x_min":0,"x_max":0,"o":"m 0 -472 l 417 -472 l 417 1333 l 0 1333 z "},"▋":{"ha":833,"x_min":0,"x_max":0,"o":"m 0 -472 l 521 -472 l 521 1333 l 0 1333 z "},"▊":{"ha":833,"x_min":0,"x_max":0,"o":"m 0 -472 l 625 -472 l 625 1333 l 0 1333 z "},"▉":{"ha":833,"x_min":0,"x_max":0,"o":"m 0 -472 l 729 -472 l 729 1333 l 0 1333 z "},"▐":{"ha":833,"x_min":0,"x_max":0,"o":"m 417 -472 l 833 -472 l 833 1333 l 417 1333 z "},"▕":{"ha":833,"x_min":0,"x_max":0,"o":"m 729 -472 l 833 -472 l 833 1333 l 729 1333 z "},"▖":{"ha":833,"x_min":0,"x_max":0,"o":"m 0 -472 l 417 -472 l 417 431 l 0 431 z "},"▗":{"ha":833,"x_min":0,"x_max":0,"o":"m 417 -472 l 833 -472 l 833 431 l 417 431 z "},"▘":{"ha":833,"x_min":0,"x_max":0,"o":"m 0 431 l 417 431 l 417 1333 l 0 1333 z "},"▙":{"ha":833,"x_min":0,"x_max":0,"o":"m 0 -472 l 833 -472 l 833 431 l 417 431 l 417 1333 l 0 1333 z "},"▚":{"ha":833,"x_min":0,"x_max":0,"o":"m 0 431 l 417 431 l 417 1333 l 0 1333 z m 417 -472 l 833 -472 l 833 431 l 417 431 z "},"▛":{"ha":833,"x_min":0,"x_max":0,"o":"m 0 -472 l 417 -472 l 417 431 l 833 431 l 833 1333 l 0 1333 z "},"▜":{"ha":833,"x_min":0,"x_max":0,"o":"m 417 -472 l 833 -472 l 833 1333 l 0 1333 l 0 431 l 417 431 z "},"▝":{"ha":833,"x_min":0,"x_max":0,"o":"m 417 431 l 833 431 l 833 1333 l 417 1333 z "},"▞":{"ha":833,"x_min":0,"x_max":0,"o":"m 417 431 l 833 431 l 833 1333 l 417 1333 z m 0 -472 l 417 -472 l 417 431 l 0 431 z "},"▟":{"ha":833,"x_min":0,"x_max":0,"o":"m 0 -472 l 833 -472 l 833 1333 l 417 1333 l 417 431 l 0 431 z "},"░":{"ha":833,"x_min":0,"x_max":0,"o":"m 417 1283 b 467 1333 444 1283 467 1306 b 417 1383 467 1361 444 1383 b 367 1333 389 1383 367 1361 b 417 1283 367 1306 389 1283 z m 139 1283 b 189 1333 167 1283 189 1306 b 139 1383 189 1361 167 1383 b 89 1333 111 1383 89 1361 b 139 1283 89 1306 111 1283 z m 694 1283 b 744 1333 722 1283 744 1306 b 694 1383 744 1361 722 1383 b 644 1333 667 1383 644 1361 b 694 1283 644 1306 667 1283 z m 556 1161 b 589 1194 574 1161 589 1176 b 556 1228 589 1213 574 1228 b 522 1194 538 1228 522 1213 b 556 1161 522 1176 538 1161 z m 278 1161 b 311 1194 296 1161 311 1176 b 278 1228 311 1213 296 1228 b 244 1194 260 1228 244 1213 b 278 1161 244 1176 260 1161 z m 0 1161 b 33 1194 17 1161 33 1176 b 0 1228 33 1213 17 1228 b -33 1194 -17 1228 -33 1213 b 0 1161 -33 1176 -17 1161 z m 694 1006 b 744 1056 722 1006 744 1028 b 694 1106 744 1083 722 1106 b 644 1056 667 1106 644 1083 b 694 1006 644 1028 667 1006 z m 417 1006 b 467 1056 444 1006 467 1028 b 417 1106 467 1083 444 1106 b 367 1056 389 1106 367 1083 b 417 1006 367 1028 389 1006 z m 139 1006 b 189 1056 167 1006 189 1028 b 139 1106 189 1083 167 1106 b 89 1056 111 1106 89 1083 b 139 1006 89 1028 111 1006 z m 556 883 b 589 917 574 883 589 899 b 556 950 589 935 574 950 b 522 917 538 950 522 935 b 556 883 522 899 538 883 z m 0 883 b 33 917 17 883 33 899 b 0 950 33 935 17 950 b -33 917 -17 950 -33 935 b 0 883 -33 899 -17 883 z m 278 883 b 311 917 296 883 311 899 b 278 950 311 935 296 950 b 244 917 260 950 244 935 b 278 883 244 899 260 883 z m 417 728 b 467 778 444 728 467 750 b 417 828 467 806 444 828 b 367 778 389 828 367 806 b 417 728 367 750 389 728 z m 139 728 b 189 778 167 728 189 750 b 139 828 189 806 167 828 b 89 778 111 828 89 806 b 139 728 89 750 111 728 z m 694 728 b 744 778 722 728 744 750 b 694 828 744 806 722 828 b 644 778 667 828 644 806 b 694 728 644 750 667 728 z m 0 606 b 33 639 17 606 33 621 b 0 672 33 657 17 672 b -33 639 -17 672 -33 657 b 0 606 -33 621 -17 606 z m 556 606 b 589 639 574 606 589 621 b 556 672 589 657 574 672 b 522 639 538 672 522 657 b 556 606 522 621 538 606 z m 278 606 b 311 639 296 606 311 621 b 278 672 311 657 296 672 b 244 639 260 672 244 657 b 278 606 244 621 260 606 z m 694 450 b 744 500 722 450 744 472 b 694 550 744 528 722 550 b 644 500 667 550 644 528 b 694 450 644 472 667 450 z m 139 450 b 189 500 167 450 189 472 b 139 550 189 528 167 550 b 89 500 111 550 89 528 b 139 450 89 472 111 450 z m 417 450 b 467 500 444 450 467 472 b 417 550 467 528 444 550 b 367 500 389 550 367 528 b 417 450 367 472 389 450 z m 278 328 b 311 361 296 328 311 343 b 278 394 311 379 296 394 b 244 361 260 394 244 379 b 278 328 244 343 260 328 z m 0 328 b 33 361 17 328 33 343 b 0 394 33 379 17 394 b -33 361 -17 394 -33 379 b 0 328 -33 343 -17 328 z m 556 328 b 589 361 574 328 589 343 b 556 394 589 379 574 394 b 522 361 538 394 522 379 b 556 328 522 343 538 328 z m 417 172 b 467 222 444 172 467 194 b 417 272 467 250 444 272 b 367 222 389 272 367 250 b 417 172 367 194 389 172 z m 139 172 b 189 222 167 172 189 194 b 139 272 189 250 167 272 b 89 222 111 272 89 250 b 139 172 89 194 111 172 z m 694 172 b 744 222 722 172 744 194 b 694 272 744 250 722 272 b 644 222 667 272 644 250 b 694 172 644 194 667 172 z m 556 50 b 589 83 574 50 589 65 b 556 117 589 101 574 117 b 522 83 538 117 522 101 b 556 50 522 65 538 50 z m 278 50 b 311 83 296 50 311 65 b 278 117 311 101 296 117 b 244 83 260 117 244 101 b 278 50 244 65 260 50 z m 0 50 b 33 83 17 50 33 65 b 0 117 33 101 17 117 b -33 83 -17 117 -33 101 b 0 50 -33 65 -17 50 z m 694 -106 b 744 -56 722 -106 744 -83 b 694 -6 744 -28 722 -6 b 644 -56 667 -6 644 -28 b 694 -106 644 -83 667 -106 z m 417 -106 b 467 -56 444 -106 467 -83 b 417 -6 467 -28 444 -6 b 367 -56 389 -6 367 -28 b 417 -106 367 -83 389 -106 z m 139 -106 b 189 -56 167 -106 189 -83 b 139 -6 189 -28 167 -6 b 89 -56 111 -6 89 -28 b 139 -106 89 -83 111 -106 z m 556 -228 b 589 -194 574 -228 589 -212 b 556 -161 589 -176 574 -161 b 522 -194 538 -161 522 -176 b 556 -228 522 -212 538 -228 z m 278 -228 b 311 -194 296 -228 311 -212 b 278 -161 311 -176 296 -161 b 244 -194 260 -161 244 -176 b 278 -228 244 -212 260 -228 z m 0 -228 b 33 -194 17 -228 33 -212 b 0 -161 33 -176 17 -161 b -33 -194 -17 -161 -33 -176 b 0 -228 -33 -212 -17 -228 z m 694 -383 b 744 -333 722 -383 744 -361 b 694 -283 744 -306 722 -283 b 644 -333 667 -283 644 -306 b 694 -383 644 -361 667 -383 z m 417 -383 b 467 -333 444 -383 467 -361 b 417 -283 467 -306 444 -283 b 367 -333 389 -283 367 -306 b 417 -383 367 -361 389 -383 z m 139 -383 b 189 -333 167 -383 189 -361 b 139 -283 189 -306 167 -283 b 89 -333 111 -283 89 -306 b 139 -383 89 -361 111 -383 z m 556 -506 b 589 -472 574 -506 589 -490 b 556 -439 589 -454 574 -439 b 522 -472 538 -439 522 -454 b 556 -506 522 -490 538 -506 z m 278 -506 b 311 -472 296 -506 311 -490 b 278 -439 311 -454 296 -439 b 244 -472 260 -439 244 -454 b 278 -506 244 -490 260 -506 z m 0 -506 b 33 -472 17 -506 33 -490 b 0 -439 33 -454 17 -439 b -33 -472 -17 -439 -33 -454 b 0 -506 -33 -490 -17 -506 z "},"▒":{"ha":833,"x_min":0,"x_max":0,"o":"m 417 1258 b 492 1333 458 1258 492 1292 b 417 1408 492 1375 458 1408 b 342 1333 375 1408 342 1375 b 417 1258 342 1292 375 1258 z m 139 1258 b 214 1333 181 1258 214 1292 b 139 1408 214 1375 181 1408 b 64 1333 97 1408 64 1375 b 139 1258 64 1292 97 1258 z m 694 1258 b 769 1333 736 1258 769 1292 b 694 1408 769 1375 736 1408 b 619 1333 653 1408 619 1375 b 694 1258 619 1292 653 1258 z m 556 1144 b 606 1194 583 1144 606 1167 b 556 1244 606 1222 583 1244 b 506 1194 528 1244 506 1222 b 556 1144 506 1167 528 1144 z m 278 1144 b 328 1194 306 1144 328 1167 b 278 1244 328 1222 306 1244 b 228 1194 250 1244 228 1222 b 278 1144 228 1167 250 1144 z m 0 1144 b 50 1194 29 1144 50 1167 b 0 1244 50 1222 29 1244 b -50 1194 -29 1244 -50 1222 b 0 1144 -50 1167 -29 1144 z m 694 981 b 769 1056 736 981 769 1014 b 694 1131 769 1097 736 1131 b 619 1056 653 1131 619 1097 b 694 981 619 1014 653 981 z m 417 981 b 492 1056 458 981 492 1014 b 417 1131 492 1097 458 1131 b 342 1056 375 1131 342 1097 b 417 981 342 1014 375 981 z m 139 981 b 214 1056 181 981 214 1014 b 139 1131 214 1097 181 1131 b 64 1056 97 1131 64 1097 b 139 981 64 1014 97 981 z m 556 867 b 606 917 583 867 606 889 b 556 967 606 944 583 967 b 506 917 528 967 506 944 b 556 867 506 889 528 867 z m 0 867 b 50 917 29 867 50 889 b 0 967 50 944 29 967 b -50 917 -29 967 -50 944 b 0 867 -50 889 -29 867 z m 278 867 b 328 917 306 867 328 889 b 278 967 328 944 306 967 b 228 917 250 967 228 944 b 278 867 228 889 250 867 z m 417 703 b 492 778 458 703 492 736 b 417 853 492 819 458 853 b 342 778 375 853 342 819 b 417 703 342 736 375 703 z m 139 703 b 214 778 181 703 214 736 b 139 853 214 819 181 853 b 64 778 97 853 64 819 b 139 703 64 736 97 703 z m 694 703 b 769 778 736 703 769 736 b 694 853 769 819 736 853 b 619 778 653 853 619 819 b 694 703 619 736 653 703 z m 0 589 b 50 639 29 589 50 611 b 0 689 50 667 29 689 b -50 639 -29 689 -50 667 b 0 589 -50 611 -29 589 z m 556 589 b 606 639 583 589 606 611 b 556 689 606 667 583 689 b 506 639 528 689 506 667 b 556 589 506 611 528 589 z m 278 589 b 328 639 306 589 328 611 b 278 689 328 667 306 689 b 228 639 250 689 228 667 b 278 589 228 611 250 589 z m 694 425 b 769 500 736 425 769 458 b 694 575 769 542 736 575 b 619 500 653 575 619 542 b 694 425 619 458 653 425 z m 139 425 b 214 500 181 425 214 458 b 139 575 214 542 181 575 b 64 500 97 575 64 542 b 139 425 64 458 97 425 z m 417 425 b 492 500 458 425 492 458 b 417 575 492 542 458 575 b 342 500 375 575 342 542 b 417 425 342 458 375 425 z m 278 311 b 328 361 306 311 328 333 b 278 411 328 389 306 411 b 228 361 250 411 228 389 b 278 311 228 333 250 311 z m 0 311 b 50 361 29 311 50 333 b 0 411 50 389 29 411 b -50 361 -29 411 -50 389 b 0 311 -50 333 -29 311 z m 556 311 b 606 361 583 311 606 333 b 556 411 606 389 583 411 b 506 361 528 411 506 389 b 556 311 506 333 528 311 z m 417 147 b 492 222 458 147 492 181 b 417 297 492 264 458 297 b 342 222 375 297 342 264 b 417 147 342 181 375 147 z m 139 147 b 214 222 181 147 214 181 b 139 297 214 264 181 297 b 64 222 97 297 64 264 b 139 147 64 181 97 147 z m 694 147 b 769 222 736 147 769 181 b 694 297 769 264 736 297 b 619 222 653 297 619 264 b 694 147 619 181 653 147 z m 556 33 b 606 83 583 33 606 56 b 556 133 606 111 583 133 b 506 83 528 133 506 111 b 556 33 506 56 528 33 z m 278 33 b 328 83 306 33 328 56 b 278 133 328 111 306 133 b 228 83 250 133 228 111 b 278 33 228 56 250 33 z m 0 33 b 50 83 29 33 50 56 b 0 133 50 111 29 133 b -50 83 -29 133 -50 111 b 0 33 -50 56 -29 33 z m 694 -131 b 769 -56 736 -131 769 -97 b 694 19 769 -14 736 19 b 619 -56 653 19 619 -14 b 694 -131 619 -97 653 -131 z m 417 -131 b 492 -56 458 -131 492 -97 b 417 19 492 -14 458 19 b 342 -56 375 19 342 -14 b 417 -131 342 -97 375 -131 z m 139 -131 b 214 -56 181 -131 214 -97 b 139 19 214 -14 181 19 b 64 -56 97 19 64 -14 b 139 -131 64 -97 97 -131 z m 556 -244 b 606 -194 583 -244 606 -222 b 556 -144 606 -167 583 -144 b 506 -194 528 -144 506 -167 b 556 -244 506 -222 528 -244 z m 278 -244 b 328 -194 306 -244 328 -222 b 278 -144 328 -167 306 -144 b 228 -194 250 -144 228 -167 b 278 -244 228 -222 250 -244 z m 0 -244 b 50 -194 29 -244 50 -222 b 0 -144 50 -167 29 -144 b -50 -194 -29 -144 -50 -167 b 0 -244 -50 -222 -29 -244 z m 694 -408 b 769 -333 736 -408 769 -375 b 694 -258 769 -292 736 -258 b 619 -333 653 -258 619 -292 b 694 -408 619 -375 653 -408 z m 417 -408 b 492 -333 458 -408 492 -375 b 417 -258 492 -292 458 -258 b 342 -333 375 -258 342 -292 b 417 -408 342 -375 375 -408 z m 139 -408 b 214 -333 181 -408 214 -375 b 139 -258 214 -292 181 -258 b 64 -333 97 -258 64 -292 b 139 -408 64 -375 97 -408 z m 556 -522 b 606 -472 583 -522 606 -500 b 556 -422 606 -444 583 -422 b 506 -472 528 -422 506 -444 b 556 -522 506 -500 528 -522 z m 278 -522 b 328 -472 306 -522 328 -500 b 278 -422 328 -444 306 -422 b 228 -472 250 -422 228 -444 b 278 -522 228 -500 250 -522 z m 0 -522 b 50 -472 29 -522 50 -500 b 0 -422 50 -444 29 -422 b -50 -472 -29 -422 -50 -444 b 0 -522 -50 -500 -29 -522 z "},"▓":{"ha":833,"x_min":0,"x_max":0,"o":"m 417 1221 b 529 1333 479 1221 529 1271 b 417 1446 529 1396 479 1446 b 304 1333 354 1446 304 1396 b 417 1221 304 1271 354 1221 z m 139 1221 b 251 1333 201 1221 251 1271 b 139 1446 251 1396 201 1446 b 26 1333 76 1446 26 1396 b 139 1221 26 1271 76 1221 z m 694 1221 b 807 1333 757 1221 807 1271 b 694 1446 807 1396 757 1446 b 582 1333 632 1446 582 1396 b 694 1221 582 1271 632 1221 z m 556 1119 b 631 1194 597 1119 631 1153 b 556 1269 631 1236 597 1269 b 481 1194 514 1269 481 1236 b 556 1119 481 1153 514 1119 z m 278 1119 b 353 1194 319 1119 353 1153 b 278 1269 353 1236 319 1269 b 203 1194 236 1269 203 1236 b 278 1119 203 1153 236 1119 z m 0 1119 b 75 1194 43 1119 75 1153 b 0 1269 75 1236 43 1269 b -75 1194 -43 1269 -75 1236 b 0 1119 -75 1153 -43 1119 z m 694 943 b 807 1056 757 943 807 993 b 694 1168 807 1118 757 1168 b 582 1056 632 1168 582 1118 b 694 943 582 993 632 943 z m 417 943 b 529 1056 479 943 529 993 b 417 1168 529 1118 479 1168 b 304 1056 354 1168 304 1118 b 417 943 304 993 354 943 z m 139 943 b 251 1056 201 943 251 993 b 139 1168 251 1118 201 1168 b 26 1056 76 1168 26 1118 b 139 943 26 993 76 943 z m 556 842 b 631 917 597 842 631 875 b 556 992 631 958 597 992 b 481 917 514 992 481 958 b 556 842 481 875 514 842 z m 0 842 b 75 917 43 842 75 875 b 0 992 75 958 43 992 b -75 917 -43 992 -75 958 b 0 842 -75 875 -43 842 z m 278 842 b 353 917 319 842 353 875 b 278 992 353 958 319 992 b 203 917 236 992 203 958 b 278 842 203 875 236 842 z m 417 665 b 529 778 479 665 529 715 b 417 890 529 840 479 890 b 304 778 354 890 304 840 b 417 665 304 715 354 665 z m 139 665 b 251 778 201 665 251 715 b 139 890 251 840 201 890 b 26 778 76 890 26 840 b 139 665 26 715 76 665 z m 694 665 b 807 778 757 665 807 715 b 694 890 807 840 757 890 b 582 778 632 890 582 840 b 694 665 582 715 632 665 z m 0 564 b 75 639 43 564 75 597 b 0 714 75 681 43 714 b -75 639 -43 714 -75 681 b 0 564 -75 597 -43 564 z m 556 564 b 631 639 597 564 631 597 b 556 714 631 681 597 714 b 481 639 514 714 481 681 b 556 564 481 597 514 564 z m 278 564 b 353 639 319 564 353 597 b 278 714 353 681 319 714 b 203 639 236 714 203 681 b 278 564 203 597 236 564 z m 694 388 b 807 500 757 388 807 438 b 694 613 807 563 757 613 b 582 500 632 613 582 563 b 694 388 582 438 632 388 z m 139 388 b 251 500 201 388 251 438 b 139 613 251 563 201 613 b 26 500 76 613 26 563 b 139 388 26 438 76 388 z m 417 388 b 529 500 479 388 529 438 b 417 613 529 563 479 613 b 304 500 354 613 304 563 b 417 388 304 438 354 388 z m 278 286 b 353 361 319 286 353 319 b 278 436 353 403 319 436 b 203 361 236 436 203 403 b 278 286 203 319 236 286 z m 0 286 b 75 361 43 286 75 319 b 0 436 75 403 43 436 b -75 361 -43 436 -75 403 b 0 286 -75 319 -43 286 z m 556 286 b 631 361 597 286 631 319 b 556 436 631 403 597 436 b 481 361 514 436 481 403 b 556 286 481 319 514 286 z m 417 110 b 529 222 479 110 529 160 b 417 335 529 285 479 335 b 304 222 354 335 304 285 b 417 110 304 160 354 110 z m 139 110 b 251 222 201 110 251 160 b 139 335 251 285 201 335 b 26 222 76 335 26 285 b 139 110 26 160 76 110 z m 694 110 b 807 222 757 110 807 160 b 694 335 807 285 757 335 b 582 222 632 335 582 285 b 694 110 582 160 632 110 z m 556 8 b 631 83 597 8 631 42 b 556 158 631 125 597 158 b 481 83 514 158 481 125 b 556 8 481 42 514 8 z m 278 8 b 353 83 319 8 353 42 b 278 158 353 125 319 158 b 203 83 236 158 203 125 b 278 8 203 42 236 8 z m 0 8 b 75 83 43 8 75 42 b 0 158 75 125 43 158 b -75 83 -43 158 -75 125 b 0 8 -75 42 -43 8 z m 694 -168 b 807 -56 757 -168 807 -118 b 694 57 807 7 757 57 b 582 -56 632 57 582 7 b 694 -168 582 -118 632 -168 z m 417 -168 b 529 -56 479 -168 529 -118 b 417 57 529 7 479 57 b 304 -56 354 57 304 7 b 417 -168 304 -118 354 -168 z m 139 -168 b 251 -56 201 -168 251 -118 b 139 57 251 7 201 57 b 26 -56 76 57 26 7 b 139 -168 26 -118 76 -168 z m 556 -269 b 631 -194 597 -269 631 -236 b 556 -119 631 -153 597 -119 b 481 -194 514 -119 481 -153 b 556 -269 481 -236 514 -269 z m 278 -269 b 353 -194 319 -269 353 -236 b 278 -119 353 -153 319 -119 b 203 -194 236 -119 203 -153 b 278 -269 203 -236 236 -269 z m 0 -269 b 75 -194 43 -269 75 -236 b 0 -119 75 -153 43 -119 b -75 -194 -43 -119 -75 -153 b 0 -269 -75 -236 -43 -269 z m 694 -446 b 807 -333 757 -446 807 -396 b 694 -221 807 -271 757 -221 b 582 -333 632 -221 582 -271 b 694 -446 582 -396 632 -446 z m 417 -446 b 529 -333 479 -446 529 -396 b 417 -221 529 -271 479 -221 b 304 -333 354 -221 304 -271 b 417 -446 304 -396 354 -446 z m 139 -446 b 251 -333 201 -446 251 -396 b 139 -221 251 -271 201 -221 b 26 -333 76 -221 26 -271 b 139 -446 26 -396 76 -446 z m 556 -547 b 631 -472 597 -547 631 -514 b 556 -397 631 -431 597 -397 b 481 -472 514 -397 481 -431 b 556 -547 481 -514 514 -547 z m 278 -547 b 353 -472 319 -547 353 -514 b 278 -397 353 -431 319 -397 b 203 -472 236 -397 203 -431 b 278 -547 203 -514 236 -547 z m 0 -547 b 75 -472 43 -547 75 -514 b 0 -397 75 -431 43 -397 b -75 -472 -43 -397 -75 -431 b 0 -547 -75 -514 -43 -547 z "},"●":{"ha":833,"x_min":0,"x_max":0,"o":"m 418 110 b 813 494 640 110 813 271 b 418 882 813 721 640 882 b 22 494 194 882 22 721 b 418 110 22 271 194 110 z "},"○":{"ha":833,"x_min":0,"x_max":0,"o":"m 418 110 b 813 494 640 110 813 272 b 418 882 813 719 640 882 b 22 494 194 882 22 719 b 418 110 22 272 194 110 z m 418 226 b 143 494 263 226 143 338 b 418 765 143 654 263 765 b 692 494 572 765 692 654 b 418 226 692 338 572 226 z "},"◌":{"ha":833,"x_min":0,"x_max":0,"o":"m 340 813 b 417 819 365 817 390 819 l 415 904 b 325 894 383 903 354 900 z m 544 797 l 574 874 b 485 899 544 886 517 894 l 472 815 b 544 797 496 811 522 806 z m 222 763 b 289 796 244 776 265 788 l 260 874 b 176 832 229 863 203 850 z m 651 729 l 711 789 b 636 846 688 811 663 829 l 593 774 b 651 729 615 761 635 746 z m 135 672 b 181 728 147 692 164 711 l 124 789 b 64 717 100 767 82 744 z m 724 622 l 799 654 b 756 736 788 685 772 713 l 686 688 b 724 622 701 667 713 646 z m 92 553 b 111 624 96 576 101 601 l 33 654 b 8 565 21 626 14 597 z m 746 497 l 829 497 b 819 589 829 529 826 558 l 738 572 b 746 497 743 547 746 522 z m 13 406 l 94 422 b 86 497 89 447 86 471 l 3 497 b 13 406 3 464 6 435 z m 799 339 b 824 429 811 368 818 397 l 742 442 b 722 371 738 418 731 392 z m 79 257 l 146 307 b 110 372 132 326 121 347 l 33 340 b 79 257 46 310 60 283 z m 708 204 b 768 278 731 226 751 251 l 697 322 b 650 267 685 303 668 283 z m 199 149 l 242 222 b 182 265 221 233 199 250 l 124 207 b 199 149 146 185 171 165 z m 572 121 b 654 163 601 132 628 144 l 608 232 b 542 197 588 218 567 208 z m 349 97 l 361 181 b 290 197 338 183 311 190 l 260 119 b 349 97 289 110 318 101 z m 414 92 b 506 101 446 92 478 96 l 490 182 b 414 176 467 178 440 176 z "},"◊":{"ha":833,"x_min":0,"x_max":0,"o":"m 333 0 l 499 0 l 733 447 l 499 894 l 333 894 l 99 447 z m 235 447 l 417 792 l 597 447 l 417 103 z "},"▲":{"ha":833,"x_min":0,"x_max":0,"o":"m 11 0 l 821 0 l 415 701 z "},"▶":{"ha":833,"x_min":0,"x_max":0,"o":"m -75 901 l -75 92 l 626 497 z "},"▼":{"ha":833,"x_min":0,"x_max":0,"o":"m 11 986 l 415 285 l 821 986 z "},"◀":{"ha":833,"x_min":0,"x_max":0,"o":"m 908 901 l 207 497 l 908 92 z "},"△":{"ha":833,"x_min":0,"x_max":0,"o":"m 11 136 l 821 136 l 415 838 z m 207 250 l 415 614 l 625 250 z "},"▷":{"ha":833,"x_min":0,"x_max":0,"o":"m 61 901 l 61 92 l 763 497 z m 175 706 l 539 497 l 175 288 z "},"▽":{"ha":833,"x_min":0,"x_max":0,"o":"m 11 861 l 415 160 l 821 861 z m 207 747 l 625 747 l 415 383 z "},"◁":{"ha":833,"x_min":0,"x_max":0,"o":"m 772 901 l 71 497 l 772 92 z m 658 706 l 658 288 l 294 497 z "},"╦":{"ha":833,"x_min":0,"x_max":0,"o":"m -7 496 l 840 496 l 840 625 l -7 625 z m 482 -479 l 611 -479 l 611 236 l 840 236 l 840 365 l 482 365 z m 222 -479 l 351 -479 l 351 365 l -7 365 l -7 236 l 222 236 z "},"╗":{"ha":833,"x_min":0,"x_max":0,"o":"m 482 -479 l 611 -479 l 611 625 l -7 625 l -7 496 l 482 496 z m 222 -479 l 351 -479 l 351 365 l -7 365 l -7 236 l 222 236 z "},"╔":{"ha":833,"x_min":0,"x_max":0,"o":"m 222 -479 l 351 -479 l 351 496 l 840 496 l 840 625 l 222 625 z m 482 -479 l 611 -479 l 611 236 l 840 236 l 840 365 l 482 365 z "},"═":{"ha":833,"x_min":0,"x_max":0,"o":"m -7 496 l 840 496 l 840 625 l -7 625 z m -7 236 l 840 236 l 840 365 l -7 365 z "},"╩":{"ha":833,"x_min":0,"x_max":0,"o":"m 482 496 l 840 496 l 840 625 l 611 625 l 611 1340 l 482 1340 z m -7 496 l 351 496 l 351 1340 l 222 1340 l 222 625 l -7 625 z m -7 236 l 840 236 l 840 365 l -7 365 z "},"╝":{"ha":833,"x_min":0,"x_max":0,"o":"m -7 236 l 611 236 l 611 1340 l 482 1340 l 482 365 l -7 365 z m -7 496 l 351 496 l 351 1340 l 222 1340 l 222 625 l -7 625 z "},"╚":{"ha":833,"x_min":0,"x_max":0,"o":"m 222 236 l 840 236 l 840 365 l 351 365 l 351 1340 l 222 1340 z m 482 496 l 840 496 l 840 625 l 611 625 l 611 1340 l 482 1340 z "},"║":{"ha":833,"x_min":0,"x_max":0,"o":"m 482 -479 l 611 -479 l 611 1340 l 482 1340 z m 222 -479 l 351 -479 l 351 1340 l 222 1340 z "},"╬":{"ha":833,"x_min":0,"x_max":0,"o":"m 482 496 l 840 496 l 840 625 l 611 625 l 611 1340 l 482 1340 z m -7 496 l 351 496 l 351 1340 l 222 1340 l 222 625 l -7 625 z m 222 -479 l 351 -479 l 351 365 l -7 365 l -7 236 l 222 236 z m 482 -479 l 611 -479 l 611 236 l 840 236 l 840 365 l 482 365 z "},"╣":{"ha":833,"x_min":0,"x_max":0,"o":"m -7 496 l 351 496 l 351 1340 l 222 1340 l 222 625 l -7 625 z m 482 -479 l 611 -479 l 611 1340 l 482 1340 z m 222 -479 l 351 -479 l 351 365 l -7 365 l -7 236 l 222 236 z "},"╠":{"ha":833,"x_min":0,"x_max":0,"o":"m 482 496 l 840 496 l 840 625 l 611 625 l 611 1340 l 482 1340 z m 222 -479 l 351 -479 l 351 1340 l 222 1340 z m 482 -479 l 611 -479 l 611 236 l 840 236 l 840 365 l 482 365 z "},"╥":{"ha":833,"x_min":0,"x_max":0,"o":"m 222 -479 l 351 -479 l 351 365 l 482 365 l 482 -479 l 611 -479 l 611 365 l 840 365 l 840 496 l -7 496 l -7 365 l 222 365 z "},"╖":{"ha":833,"x_min":0,"x_max":0,"o":"m 222 -479 l 351 -479 l 351 365 l 482 365 l 482 -479 l 611 -479 l 611 496 l -7 496 l -7 365 l 222 365 z "},"╓":{"ha":833,"x_min":0,"x_max":0,"o":"m 222 -479 l 351 -479 l 351 365 l 482 365 l 482 -479 l 611 -479 l 611 365 l 840 365 l 840 496 l 222 496 z "},"┰":{"ha":833,"x_min":0,"x_max":0,"o":"m 286 -479 l 547 -479 l 547 365 l 840 365 l 840 496 l -7 496 l -7 365 l 286 365 z "},"┒":{"ha":833,"x_min":0,"x_max":0,"o":"m 286 -479 l 547 -479 l 547 496 l -7 496 l -7 365 l 286 365 z "},"┧":{"ha":833,"x_min":0,"x_max":0,"o":"m 286 -479 l 547 -479 l 547 496 l 482 496 l 482 1340 l 351 1340 l 351 496 l -7 496 l -7 365 l 286 365 z "},"┎":{"ha":833,"x_min":0,"x_max":0,"o":"m 286 -479 l 547 -479 l 547 365 l 840 365 l 840 496 l 286 496 z "},"┟":{"ha":833,"x_min":0,"x_max":0,"o":"m 286 -479 l 547 -479 l 547 365 l 840 365 l 840 496 l 482 496 l 482 1340 l 351 1340 l 351 496 l 286 496 z "},"╁":{"ha":833,"x_min":0,"x_max":0,"o":"m 286 -479 l 547 -479 l 547 365 l 840 365 l 840 496 l 482 496 l 482 1340 l 351 1340 l 351 496 l -7 496 l -7 365 l 286 365 z "},"┯":{"ha":833,"x_min":0,"x_max":0,"o":"m 351 -479 l 482 -479 l 482 300 l 840 300 l 840 561 l -7 561 l -7 300 l 351 300 z "},"┑":{"ha":833,"x_min":0,"x_max":0,"o":"m 351 -479 l 482 -479 l 482 561 l -7 561 l -7 300 l 351 300 z "},"┩":{"ha":833,"x_min":0,"x_max":0,"o":"m 351 -479 l 482 -479 l 482 300 l 547 300 l 547 1340 l 286 1340 l 286 561 l -7 561 l -7 300 l 351 300 z "},"┍":{"ha":833,"x_min":0,"x_max":0,"o":"m 351 -479 l 482 -479 l 482 300 l 840 300 l 840 561 l 351 561 z "},"┡":{"ha":833,"x_min":0,"x_max":0,"o":"m 351 -479 l 482 -479 l 482 300 l 840 300 l 840 561 l 547 561 l 547 1340 l 286 1340 l 286 300 l 351 300 z "},"╇":{"ha":833,"x_min":0,"x_max":0,"o":"m 351 -479 l 482 -479 l 482 300 l 840 300 l 840 561 l 547 561 l 547 1340 l 286 1340 l 286 561 l -7 561 l -7 300 l 351 300 z "},"╤":{"ha":833,"x_min":0,"x_max":0,"o":"m -7 496 l 840 496 l 840 625 l -7 625 z m 351 -479 l 482 -479 l 482 236 l 840 236 l 840 365 l -7 365 l -7 236 l 351 236 z "},"╕":{"ha":833,"x_min":0,"x_max":0,"o":"m 351 -479 l 482 -479 l 482 625 l -7 625 l -7 496 l 351 496 l 351 365 l -7 365 l -7 236 l 351 236 z "},"╒":{"ha":833,"x_min":0,"x_max":0,"o":"m 351 -479 l 482 -479 l 482 236 l 840 236 l 840 365 l 482 365 l 482 496 l 840 496 l 840 625 l 351 625 z "},"╍":{"ha":833,"x_min":0,"x_max":0,"o":"m 521 300 l 729 300 l 729 561 l 521 561 z m 104 300 l 313 300 l 313 561 l 104 561 z "},"╏":{"ha":833,"x_min":0,"x_max":0,"o":"m 286 639 l 547 639 l 547 1056 l 286 1056 z m 286 -194 l 547 -194 l 547 222 l 286 222 z "},"╻":{"ha":833,"x_min":0,"x_max":0,"o":"m 286 -479 l 547 -479 l 547 496 l 286 496 z "},"┳":{"ha":833,"x_min":0,"x_max":0,"o":"m 286 -479 l 547 -479 l 547 300 l 840 300 l 840 561 l -7 561 l -7 300 l 286 300 z "},"┓":{"ha":833,"x_min":0,"x_max":0,"o":"m 286 -479 l 547 -479 l 547 561 l -7 561 l -7 300 l 286 300 z "},"┏":{"ha":833,"x_min":0,"x_max":0,"o":"m 286 -479 l 547 -479 l 547 300 l 840 300 l 840 561 l 286 561 z "},"━":{"ha":833,"x_min":0,"x_max":0,"o":"m -7 300 l 840 300 l 840 561 l -7 561 z "},"╸":{"ha":833,"x_min":0,"x_max":0,"o":"m -7 300 l 482 300 l 482 561 l -7 561 z "},"╾":{"ha":833,"x_min":0,"x_max":0,"o":"m -7 300 l 482 300 l 482 365 l 840 365 l 840 496 l 482 496 l 482 561 l -7 561 z "},"┉":{"ha":833,"x_min":0,"x_max":0,"o":"m 651 300 l 807 300 l 807 561 l 651 561 z m 26 300 l 182 300 l 182 561 l 26 561 z m 235 300 l 390 300 l 390 561 l 235 561 z m 443 300 l 599 300 l 599 561 l 443 561 z "},"┋":{"ha":833,"x_min":0,"x_max":0,"o":"m 286 900 l 547 900 l 547 1213 l 286 1213 z m 286 483 l 547 483 l 547 796 l 286 796 z m 286 67 l 547 67 l 547 379 l 286 379 z m 286 -350 l 547 -350 l 547 -37 l 286 -37 z "},"╺":{"ha":833,"x_min":0,"x_max":0,"o":"m 351 300 l 840 300 l 840 561 l 351 561 z "},"┅":{"ha":833,"x_min":0,"x_max":0,"o":"m 601 300 l 788 300 l 788 561 l 601 561 z m 46 300 l 232 300 l 232 561 l 46 561 z m 324 300 l 510 300 l 510 561 l 324 561 z "},"┇":{"ha":833,"x_min":0,"x_max":0,"o":"m 286 801 l 547 801 l 547 1171 l 286 1171 z m 286 246 l 547 246 l 547 615 l 286 615 z m 286 -310 l 547 -310 l 547 60 l 286 60 z "},"╹":{"ha":833,"x_min":0,"x_max":0,"o":"m 286 365 l 547 365 l 547 1340 l 286 1340 z "},"┻":{"ha":833,"x_min":0,"x_max":0,"o":"m -7 300 l 840 300 l 840 561 l 547 561 l 547 1340 l 286 1340 l 286 561 l -7 561 z "},"┛":{"ha":833,"x_min":0,"x_max":0,"o":"m -7 300 l 547 300 l 547 1340 l 286 1340 l 286 561 l -7 561 z "},"╿":{"ha":833,"x_min":0,"x_max":0,"o":"m 351 -479 l 482 -479 l 482 365 l 547 365 l 547 1340 l 286 1340 l 286 365 l 351 365 z "},"┗":{"ha":833,"x_min":0,"x_max":0,"o":"m 286 300 l 840 300 l 840 561 l 547 561 l 547 1340 l 286 1340 z "},"┃":{"ha":833,"x_min":0,"x_max":0,"o":"m 286 -479 l 547 -479 l 547 1340 l 286 1340 z "},"╋":{"ha":833,"x_min":0,"x_max":0,"o":"m 286 -479 l 547 -479 l 547 300 l 840 300 l 840 561 l 547 561 l 547 1340 l 286 1340 l 286 561 l -7 561 l -7 300 l 286 300 z "},"┫":{"ha":833,"x_min":0,"x_max":0,"o":"m 286 -479 l 547 -479 l 547 1340 l 286 1340 l 286 561 l -7 561 l -7 300 l 286 300 z "},"┣":{"ha":833,"x_min":0,"x_max":0,"o":"m 286 -479 l 547 -479 l 547 300 l 840 300 l 840 561 l 547 561 l 547 1340 l 286 1340 z "},"╅":{"ha":833,"x_min":0,"x_max":0,"o":"m 286 -479 l 547 -479 l 547 365 l 840 365 l 840 496 l 547 496 l 547 561 l 482 561 l 482 1340 l 351 1340 l 351 561 l -7 561 l -7 300 l 286 300 z "},"┭":{"ha":833,"x_min":0,"x_max":0,"o":"m 351 -479 l 482 -479 l 482 365 l 840 365 l 840 496 l 482 496 l 482 561 l -7 561 l -7 300 l 351 300 z "},"┵":{"ha":833,"x_min":0,"x_max":0,"o":"m -7 300 l 482 300 l 482 365 l 840 365 l 840 496 l 482 496 l 482 1340 l 351 1340 l 351 561 l -7 561 z "},"┽":{"ha":833,"x_min":0,"x_max":0,"o":"m 351 -479 l 482 -479 l 482 365 l 840 365 l 840 496 l 482 496 l 482 1340 l 351 1340 l 351 561 l -7 561 l -7 300 l 351 300 z "},"┲":{"ha":833,"x_min":0,"x_max":0,"o":"m 286 -479 l 547 -479 l 547 300 l 840 300 l 840 561 l 286 561 l 286 496 l -7 496 l -7 365 l 286 365 z "},"┺":{"ha":833,"x_min":0,"x_max":0,"o":"m 286 300 l 840 300 l 840 561 l 547 561 l 547 1340 l 286 1340 l 286 496 l -7 496 l -7 365 l 286 365 z "},"╊":{"ha":833,"x_min":0,"x_max":0,"o":"m 286 -479 l 547 -479 l 547 300 l 840 300 l 840 561 l 547 561 l 547 1340 l 286 1340 l 286 496 l -7 496 l -7 365 l 286 365 z "},"╃":{"ha":833,"x_min":0,"x_max":0,"o":"m 351 -479 l 482 -479 l 482 300 l 547 300 l 547 365 l 840 365 l 840 496 l 547 496 l 547 1340 l 286 1340 l 286 561 l -7 561 l -7 300 l 351 300 z "},"╮":{"ha":833,"x_min":0,"x_max":0,"o":"m 351 -479 l 482 -479 l 482 33 b 19 496 482 289 275 496 l -7 496 l -7 365 l 19 365 b 351 33 203 365 351 217 z "},"╭":{"ha":833,"x_min":0,"x_max":0,"o":"m 351 -479 l 482 -479 l 482 33 b 814 365 482 217 631 365 l 840 365 l 840 496 l 814 496 b 351 33 558 496 351 289 z "},"╯":{"ha":833,"x_min":0,"x_max":0,"o":"m -7 365 l 19 365 b 482 828 275 365 482 572 l 482 1340 l 351 1340 l 351 828 b 19 496 351 644 203 496 l -7 496 z "},"╰":{"ha":833,"x_min":0,"x_max":0,"o":"m 814 365 l 840 365 l 840 496 l 814 496 b 482 828 631 496 482 644 l 482 1340 l 351 1340 l 351 828 b 814 365 351 572 558 365 z "},"╳":{"ha":833,"x_min":0,"x_max":0,"o":"m 0 -403 l 72 -403 l 417 285 l 761 -403 l 833 -403 l 833 -257 l 489 431 l 833 1118 l 833 1264 l 761 1264 l 417 576 l 72 1264 l 0 1264 l 0 1118 l 344 431 l 0 -257 z "},"╲":{"ha":833,"x_min":0,"x_max":0,"o":"m 761 -403 l 833 -403 l 833 -257 l 72 1264 l 0 1264 l 0 1118 z "},"╱":{"ha":833,"x_min":0,"x_max":0,"o":"m 0 -403 l 72 -403 l 833 1118 l 833 1264 l 761 1264 l 0 -257 z "},"╌":{"ha":833,"x_min":0,"x_max":0,"o":"m 521 365 l 729 365 l 729 496 l 521 496 z m 104 365 l 313 365 l 313 496 l 104 496 z "},"╎":{"ha":833,"x_min":0,"x_max":0,"o":"m 351 639 l 482 639 l 482 1056 l 351 1056 z m 351 -194 l 482 -194 l 482 222 l 351 222 z "},"╷":{"ha":833,"x_min":0,"x_max":0,"o":"m 351 -479 l 482 -479 l 482 496 l 351 496 z "},"┬":{"ha":833,"x_min":0,"x_max":0,"o":"m 351 -479 l 482 -479 l 482 365 l 840 365 l 840 496 l -7 496 l -7 365 l 351 365 z "},"┐":{"ha":833,"x_min":0,"x_max":0,"o":"m 351 -479 l 482 -479 l 482 496 l -7 496 l -7 365 l 351 365 z "},"┌":{"ha":833,"x_min":0,"x_max":0,"o":"m 351 -479 l 482 -479 l 482 365 l 840 365 l 840 496 l 351 496 z "},"─":{"ha":833,"x_min":0,"x_max":0,"o":"m -7 365 l 840 365 l 840 496 l -7 496 z "}}}
